<?xml version="1.0" encoding="UTF-8"?><svg id="Layer_2" xmlns="http://www.w3.org/2000/svg" width="1107" height="660" xmlns:xlink="http://www.w3.org/1999/xlink" viewBox="0 0 1107 660"><defs><style>.cls-1{fill:#e6eaff;filter:url(#drop-shadow-1);}</style><filter id="drop-shadow-1" filterUnits="userSpaceOnUse"><feOffset dx="7" dy="-7"/><feGaussianBlur result="blur" stdDeviation="4"/><feFlood flood-color="#000" flood-opacity=".5"/><feComposite in2="blur" operator="in"/><feComposite in="SourceGraphic"/></filter></defs><g id="Layer_1-2"><path class="cls-1" d="m1047.11,399.78c4.43-10.54,6.89-22.13,6.89-34.28,0-48.88-39.62-88.5-88.5-88.5-3.39,0-6.73.2-10.02.57-8.32-8.02-17.54-15.1-27.51-21.06,3.92-13.49,6.03-27.75,6.03-42.5,0-83.95-68.05-152-152-152-63.06,0-117.15,38.4-140.16,93.1-10.02-3.93-20.93-6.1-32.34-6.1-17.23,0-33.3,4.93-46.9,13.44.91-4.34,1.4-8.83,1.4-13.44,0-35.9-29.1-65-65-65-1.01,0-2.01.03-3,.08,0-.03,0-.05,0-.08,0-35.9-29.1-65-65-65-32.79,0-59.89,24.28-64.35,55.84-11.54-10.47-26.85-16.84-43.65-16.84-35.9,0-65,29.1-65,65-32.66,0-59.69,24.09-64.3,55.47-11.75-2.91-24.05-4.47-36.7-4.47-83.95,0-152,68.05-152,152,0,66.46,42.66,122.95,102.09,143.6-.04,1.13-.09,2.26-.09,3.4,0,47.5,38.5,86,86,86,26.58,0,50.34-12.06,66.11-31.01,2.34,46.79,41.02,84.01,88.39,84.01,13.44,0,26.18-3,37.6-8.37,27.85,31.5,68.55,51.37,113.9,51.37,61.55,0,114.55-36.58,138.45-89.18,19.91-.96,38.82-5.76,56-13.66,15.54,22.27,41.34,36.85,70.55,36.85,34.72,0,64.61-20.58,78.19-50.2,2.59.13,5.19.2,7.81.2,28.64,0,55.42-7.92,78.29-21.69,15.05,24.98,42.43,41.69,73.71,41.69,47.5,0,86-38.5,86-86,0-30.95-16.36-58.07-40.89-73.22ZM286.75,246.8c-.08-.13-.16-.25-.24-.38.1-.05.19-.1.29-.15-.02.18-.03.35-.05.53Z"/></g></svg>