<?xml version="1.0" encoding="UTF-8"?><svg id="Layer_2" xmlns="http://www.w3.org/2000/svg" width="1062" height="790" xmlns:xlink="http://www.w3.org/1999/xlink" viewBox="0 0 1062 790"><defs><style>.cls-1{fill:#e6eaff;filter:url(#drop-shadow-1);}</style><filter id="drop-shadow-1" filterUnits="userSpaceOnUse"><feOffset dx="7" dy="-7"/><feGaussianBlur result="blur" stdDeviation="4"/><feFlood flood-color="#000" flood-opacity=".5"/><feComposite in2="blur" operator="in"/><feComposite in="SourceGraphic"/></filter></defs><g id="Layer_1-2"><path class="cls-1" d="m90.9,610.92c1.68,11.32,5.59,22.49,11.89,32.88,25.35,41.79,79.77,55.12,121.56,29.78,2.9-1.76,5.65-3.66,8.27-5.68,11.27,2.54,22.83,3.81,34.45,3.74,3.64,13.57,9.23,26.85,16.88,39.47,43.53,71.78,137.01,94.67,208.79,51.14,53.92-32.7,80.25-93.59,71.57-152.28,10.61-1.83,21.05-5.64,30.81-11.56,14.73-8.93,25.92-21.48,33.13-35.81,1.47,4.18,3.38,8.28,5.77,12.22,18.62,30.69,58.59,40.49,89.28,21.87.86-.52,1.7-1.07,2.53-1.62.01.02.02.04.04.07,18.62,30.69,58.59,40.49,89.28,21.87,28.04-17,38.62-51.82,26.06-81.12,15.29,2.96,31.69.48,46.06-8.24,30.69-18.62,40.49-58.59,21.87-89.28,27.93-16.94,38.54-51.55,26.21-80.77,11.56-3.6,22.88-8.65,33.7-15.21,71.78-43.53,94.67-137.01,51.14-208.79-34.47-56.83-100.23-83-161.76-69.85-.55-.99-1.1-1.97-1.69-2.95-24.63-40.61-77.52-53.57-118.13-28.94-22.73,13.78-36.78,36.42-40.45,60.8-26.26-38.79-78.64-50.56-119.14-25.99-11.49,6.97-20.83,16.15-27.81,26.65-40.15-12.49-85.25-8.37-124.03,15.15-52.62,31.92-78.97,90.68-72.13,148.05-16.53,11.15-30.2,25.05-40.8,40.72-24.84-10.98-54.45-10.07-79.43,5.08-29.68,18-44.57,51.1-40.82,83.47-2.28,1.23-4.54,2.52-6.78,3.88-24.48,14.85-43.28,35.51-55.69,59.14-25.82-13.56-57.9-13.65-84.65,2.58-40.61,24.63-53.57,77.52-28.94,118.13,16.05,26.46,44.1,41.17,72.93,41.4Zm729.46-263.5c.13.07.27.13.4.2-.06.09-.11.19-.17.28-.08-.16-.15-.32-.23-.48Z"/></g></svg>