<?xml version="1.0" encoding="UTF-8"?><svg id="Layer_2" xmlns="http://www.w3.org/2000/svg" width="873" height="523" xmlns:xlink="http://www.w3.org/1999/xlink" viewBox="0 0 873 523"><defs><style>.cls-1{fill:#e6eaff;filter:url(#drop-shadow-1);}</style><filter id="drop-shadow-1" filterUnits="userSpaceOnUse"><feOffset dx="7" dy="-7"/><feGaussianBlur result="blur" stdDeviation="4"/><feFlood flood-color="#000" flood-opacity=".5"/><feComposite in2="blur" operator="in"/><feComposite in="SourceGraphic"/></filter></defs><g id="Layer_1-2"><path class="cls-1" d="m37.05,219.49c-3.48,8.27-5.4,17.35-5.4,26.88,0,38.32,31.06,69.38,69.38,69.38,2.66,0,5.28-.15,7.85-.45,6.52,6.29,13.75,11.83,21.57,16.51-3.07,10.57-4.73,21.75-4.73,33.32,0,65.81,53.35,119.16,119.16,119.16,49.44,0,91.84-30.11,109.88-72.98,7.85,3.08,16.4,4.78,25.35,4.78,13.51,0,26.11-3.86,36.77-10.54-.72,3.4-1.1,6.92-1.1,10.54,0,28.14,22.81,50.96,50.96,50.96.79,0,1.57-.02,2.35-.06,0,.02,0,.04,0,.06,0,28.14,22.81,50.96,50.96,50.96,25.7,0,46.95-19.04,50.44-43.78,9.04,8.2,21.05,13.2,34.22,13.2,28.14,0,50.96-22.81,50.96-50.96,25.6,0,46.79-18.89,50.41-43.49,9.22,2.29,18.85,3.51,28.77,3.51,65.81,0,119.16-53.35,119.16-119.16,0-52.1-33.44-96.38-80.03-112.58.03-.88.07-1.77.07-2.66,0-37.23-30.18-67.42-67.42-67.42-20.84,0-39.46,9.46-51.83,24.31-1.83-36.68-32.15-65.86-69.29-65.86-10.54,0-20.53,2.35-29.47,6.56-21.83-24.69-53.74-40.27-89.29-40.27-48.25,0-89.8,28.68-108.54,69.91-15.61.75-30.43,4.51-43.9,10.71-12.18-17.46-32.41-28.88-55.31-28.88-27.21,0-50.65,16.13-61.3,39.35-2.03-.1-4.07-.15-6.12-.15-22.45,0-43.45,6.21-61.37,17-11.8-19.58-33.26-32.68-57.79-32.68-37.23,0-67.42,30.18-67.42,67.42,0,24.26,12.82,45.52,32.05,57.4Zm596.07,119.93c.06.1.12.2.19.3-.08.04-.15.08-.23.12.01-.14.03-.28.04-.41Z"/></g></svg>