<?xml version="1.0" encoding="UTF-8"?><svg id="Layer_1" xmlns="http://www.w3.org/2000/svg" width="1920" height="1920" viewBox="0 0 1920 1920"><defs><style>.cls-1{fill:#1a1a1a;}</style></defs><path class="cls-1" d="m599.55,1803.73c-46.63-8.96-91.46-26.05-131.51-51.57-247.73-157.9-403.33-430.54-403.33-748.14h0c0-494.46,400.84-895.3,895.29-895.3h0c494.46,0,895.29,400.84,895.29,895.3h0c0,263.46-113.87,500.24-295.02,664.04-74.41,67.28-168.93,109.22-269.12,114.24-105.59,5.3-115.05-38.67-115.05-38.67v-223.3c0-13.88-1.16-27.78-4.19-41.32-4.28-19.12-11.04-37.88-21.13-54.73-3.08-5.15-6.49-10.1-10.22-14.8-1.56-1.97-3.15-3.92-4.91-5.71-1.31-1.32-3.32-2.57-3.61-4.52,2.26-1.99,8.14-1.47,11.04-1.99,4.93-.88,9.79-2.03,14.66-3.17,8.85-2.08,17.77-3.6,26.7-5.26,18.59-3.46,37.03-8.15,55.11-13.66,50.84-15.51,100.11-39.63,137.09-78.63,20.01-21.1,35.15-46.02,47.67-72.15,47.03-98.14,54.17-218.34,7.07-317.83-8.03-16.97-17.39-33.36-28.23-48.7-1.22-1.72-13.4-14.81-12.89-16.64,30.92-111.35-9.05-193.31-9.05-193.31-98.03-.76-200.59,76.17-200.59,76.17-179.47-59.57-371.02-1.51-371.02-1.51-111.61-76.92-197.57-74.65-197.57-74.65-33.93,69.38-12.06,193.3-12.06,193.3-99.54,118.65-85.22,314.96-12.82,425.81,72.39,110.85,276.25,132.47,276.25,132.47-21.12,17.35-43.24,64.1-45.75,87.48-2.51,23.38-66.11,27.4-66.11,27.4-99.54,9.05-134.98-57.31-134.98-57.31-34.69-64.1-66.36-75.41-66.36-75.41,0,0-28.66-18.85-67.87-17.34-39.21,1.51-21.87,21.11-21.87,21.11,70.13,36.95,92,95.02,92,95.02,31.67,82.95,67.11,101.8,67.11,101.8,73.9,55.8,195.31,27.15,195.31,27.15v134.98c-27.9,96.52-210.92,60.2-210.92,60.2l-4.43-.85Z"/></svg>