<?xml version="1.0" encoding="UTF-8"?><svg id="Layer_1" xmlns="http://www.w3.org/2000/svg" width="1920" height="1920" viewBox="0 0 1920 1920"><defs><style>.cls-1{fill:#d5f0ff;}</style></defs><path class="cls-1" d="m584.64,1838.64c-48.56-9.33-95.25-27.13-136.95-53.71C189.7,1620.5,27.66,1336.58,27.66,1005.84h0C27.66,490.92,445.08,73.5,960,73.5h0c514.92,0,932.34,417.42,932.34,932.34h0c0,274.36-118.58,520.94-307.22,691.51-77.49,70.06-175.92,113.74-280.26,118.97-109.96,5.52-119.81-40.27-119.81-40.27v-232.53c0-14.45-1.21-28.93-4.36-43.03-4.45-19.91-11.5-39.45-22.01-56.99-3.21-5.36-6.76-10.52-10.64-15.41-1.63-2.05-3.28-4.08-5.12-5.95-1.36-1.38-3.45-2.68-3.76-4.7,2.36-2.07,8.48-1.53,11.5-2.07,5.13-.92,10.2-2.12,15.27-3.3,9.21-2.16,18.5-3.75,27.8-5.48,19.36-3.6,38.56-8.48,57.39-14.23,52.94-16.15,104.25-41.27,142.76-81.88,20.84-21.97,36.6-47.93,49.65-75.14,48.97-102.2,56.41-227.37,7.37-330.98-8.36-17.67-18.11-34.74-29.39-50.72-1.27-1.79-13.95-15.43-13.43-17.33,32.2-115.96-9.42-201.3-9.42-201.3-102.09-.79-208.89,79.32-208.89,79.32-186.9-62.04-386.37-1.57-386.37-1.57-116.22-80.1-205.75-77.74-205.75-77.74-35.34,72.25-12.56,201.3-12.56,201.3-103.66,123.55-88.74,327.99-13.35,443.43,75.39,115.44,287.68,137.95,287.68,137.95-21.99,18.06-45.02,66.75-47.64,91.1-2.62,24.34-68.84,28.53-68.84,28.53-103.66,9.42-140.57-59.68-140.57-59.68-36.12-66.75-69.11-78.53-69.11-78.53,0,0-29.84-19.63-70.68-18.06-40.84,1.57-22.77,21.99-22.77,21.99,73.03,38.48,95.81,98.95,95.81,98.95,32.98,86.38,69.89,106.01,69.89,106.01,76.96,58.11,203.39,28.27,203.39,28.27v140.57c-29.06,100.52-219.64,62.69-219.64,62.69l-4.61-.89Z"/></svg>