<?xml version="1.0" encoding="UTF-8"?><svg id="Layer_1" xmlns="http://www.w3.org/2000/svg" width="1920" height="1920" viewBox="0 0 1920 1920"><defs><style>.cls-1{fill:#1a1a1a;}</style></defs><path class="cls-1" d="m958.72,823.27c-73.79,0-133.83,60.04-133.83,133.83s60.04,133.83,133.83,133.83,133.83-60.04,133.83-133.83-60.04-133.83-133.83-133.83Z"/><path class="cls-1" d="m1132.43,548.76h-344.87c-131.89,0-238.81,106.92-238.81,238.81v344.87c0,131.89,106.92,238.81,238.81,238.81h344.86c131.89,0,238.81-106.92,238.81-238.81v-344.86c0-131.89-106.92-238.81-238.81-238.81Zm-173.71,617.12c-115.12,0-208.78-93.65-208.78-208.78s93.66-208.78,208.78-208.78,208.78,93.66,208.78,208.78-93.66,208.78-208.78,208.78Zm320.28-437.82c0,19.84-16.09,35.93-35.93,35.93h-28.07c-19.84,0-35.93-16.09-35.93-35.93v-28.07c0-19.84,16.09-35.93,35.93-35.93h28.07c19.84,0,35.93,16.09,35.93,35.93v28.07Z"/><path class="cls-1" d="m1061.59,72.38h0C571.37,16.27,128.48,368.19,72.38,858.41h0c-56.11,490.22,295.81,933.11,786.03,989.21h0c490.22,56.11,933.11-295.81,989.21-786.03h0c56.11-490.22-295.81-933.11-786.03-989.21Zm386.52,1061.98c0,173.28-140.47,313.76-313.76,313.76h-348.71c-173.28,0-313.75-140.47-313.75-313.75v-348.71c0-173.28,140.47-313.76,313.76-313.76h348.71c173.28,0,313.76,140.47,313.76,313.76v348.71Z"/></svg>