<?xml version="1.0" encoding="UTF-8"?><svg id="Layer_1" xmlns="http://www.w3.org/2000/svg" width="1920" height="1920" viewBox="0 0 1920 1920"><defs><style>.cls-1{fill:#d5f0ff;}</style></defs><path class="cls-1" d="m973.98,841.15c-72.12,0-130.8,58.67-130.8,130.79s58.68,130.8,130.8,130.8,130.79-58.67,130.79-130.8-58.67-130.79-130.79-130.79Z"/><path class="cls-1" d="m1143.74,572.87h-337.04c-128.9,0-233.39,104.49-233.39,233.39v337.04c0,128.9,104.49,233.39,233.39,233.39h337.04c128.9,0,233.39-104.49,233.39-233.39v-337.04c0-128.9-104.49-233.39-233.39-233.39Zm-169.77,603.11c-112.51,0-204.04-91.53-204.04-204.04s91.53-204.04,204.04-204.04,204.04,91.53,204.04,204.04-91.53,204.04-204.04,204.04Zm313.01-427.88c0,19.39-15.72,35.11-35.12,35.11h-27.43c-19.39,0-35.11-15.72-35.11-35.11v-27.43c0-19.39,15.72-35.11,35.11-35.11h27.43c19.39,0,35.12,15.72,35.12,35.11v27.43Z"/><path class="cls-1" d="m1074.51,107.29h0C595.42,52.46,162.58,396.39,107.74,875.49h0c-54.83,479.1,289.1,911.93,768.19,966.77h0c479.1,54.83,911.93-289.1,966.77-768.19h0c54.83-479.1-289.1-911.93-768.19-966.77Zm377.75,1037.88c0,169.35-137.29,306.64-306.64,306.64h-340.8c-169.35,0-306.63-137.28-306.63-306.63v-340.8c0-169.35,137.29-306.64,306.64-306.64h340.79c169.35,0,306.64,137.29,306.64,306.64v340.79Z"/></svg>