<?xml version="1.0" encoding="UTF-8"?><svg id="Layer_1" xmlns="http://www.w3.org/2000/svg" width="1920" height="1920" viewBox="0 0 1920 1920"><defs><style>.cls-1{fill:#d5f0ff;}</style></defs><path class="cls-1" d="m960,85.5h0c-482.97,0-874.5,391.53-874.5,874.5h0c0,482.97,391.53,874.5,874.5,874.5h0c482.97,0,874.5-391.53,874.5-874.5h0c0-482.97-391.53-874.5-874.5-874.5Zm-399.89,1264.8v-529.94h172.81v529.94h-172.81Zm91-599.06h-.01s-1.13,0-1.13,0c-58.62,0-96.51-40.35-96.51-90.77s39.04-90.79,98.81-90.79,96.5,39.22,97.64,90.79c0,50.43-37.91,90.77-98.8,90.77Zm715.42,599.06h-172.81v-281.07c0-70.64-25.36-118.83-88.71-118.83-48.39,0-77.2,32.49-89.85,63.88-4.63,11.2-5.77,26.92-5.77,42.61v293.4h-176.15v.02s2.31-480.24,0-529.96h176.14v78.87c23.12-35.8,64.47-86.75,156.82-86.75,114.48,0,200.31,75.11,200.31,236.52v301.31Z"/></svg>