<?xml version="1.0" encoding="UTF-8"?><svg id="Layer_1" xmlns="http://www.w3.org/2000/svg" width="1920" height="1920" viewBox="0 0 1920 1920"><defs><style>.cls-1{fill:#1a1a1a;}</style></defs><path class="cls-1" d="m960,128.5h0c-459.22,0-831.5,372.27-831.5,831.5h0c0,459.23,372.28,831.5,831.5,831.5h0c459.22,0,831.5-372.28,831.5-831.5h0c0-459.23-372.27-831.5-831.5-831.5Zm-380.23,1202.61v-503.88h164.31v503.88h-164.31Zm86.53-569.6h-.01s-1.07,0-1.07,0c-55.74,0-91.77-38.37-91.77-86.31s37.12-86.33,93.96-86.33,91.76,37.29,92.84,86.33c0,47.95-36.04,86.31-93.94,86.31Zm680.25,569.6h-164.31v-267.25c0-67.17-24.11-112.98-84.34-112.98-46.01,0-73.4,30.89-85.43,60.74-4.4,10.65-5.49,25.6-5.49,40.51v278.98h-167.49v.02s2.19-456.63,0-503.9h167.48v74.99c21.98-34.04,61.3-82.49,149.11-82.49,108.85,0,190.46,71.42,190.46,224.89v286.49Z"/></svg>