<?xml version="1.0" encoding="UTF-8"?><svg id="_Ñëîé_4" xmlns="http://www.w3.org/2000/svg" width="200" height="75" viewBox="0 0 200 75"><defs><style>.cls-1{fill:#fff;}</style></defs><path class="cls-1" d="m200,0H0v7.34H0v2.95c1.07,1.08,2.55,1.75,4.19,1.75.18,0,.36-.01.53-.03.35,2.91,2.82,5.16,5.83,5.16,2.64,0,4.87-1.75,5.6-4.15.12,0,.23.02.35.02,2.42,0,4.64-.86,6.37-2.29.74.33,1.56.52,2.42.52,2.06,0,3.86-1.09,4.9-2.7.51-.22.97-.53,1.36-.91.52,1.82,2.2,3.16,4.19,3.16.73,0,1.41-.18,2.02-.5,1.14,1.43,2.89,2.35,4.86,2.35,3.12,0,5.69-2.31,6.12-5.31h.2c.1.03.21.06.31.08,1.39,2.02,3.43,3.53,5.79,4.25,1.43.43,2.96.58,4.54.38.44-.06.87-.15,1.3-.26.18-.05.35-.1.52-.15.32-.1.61-.24.92-.36.32.08.65.14,1,.14.67,0,1.31-.16,1.88-.43,1.27.94,2.88,1.43,4.57,1.2.54-.07,1.04-.21,1.52-.41.52-.21,1.01-.48,1.45-.81,2.27,2.07,5.4,3.16,8.69,2.73.06,0,.12-.02.18-.03,2.41-.36,4.52-1.5,6.11-3.12.65.3,1.36.5,2.11.6.21.03.42.04.63.05.17,2.33,1.8,4.33,4.08,4.95.15.04.31.08.47.1.1.02.19.04.29.05.76.1,1.51.04,2.21-.16,1.37-.38,2.54-1.28,3.26-2.5.06,0,.12.02.18.03,3.29.42,6.41-.68,8.68-2.76.44.33.93.6,1.45.81.48.19.99.33,1.53.4,2.11.27,4.1-.54,5.44-1.99.03.02.06.04.09.06.86.58,1.81,1.04,2.83,1.35.17.05.34.1.52.15.42.11.85.2,1.3.26,1.58.2,3.11.04,4.54-.39,2.33-.71,4.35-2.21,5.73-4.2h.18v.02c.42.45.94.81,1.51,1.04.51.21,1.07.33,1.66.33,1.19,0,2.27-.48,3.05-1.26.52,1.82,2.2,3.16,4.19,3.16.73,0,1.41-.18,2.02-.5,1.14,1.43,2.89,2.35,4.86,2.35,3.06,0,5.57-2.23,6.08-5.13h5.24c1.07,1.46,2.79,2.41,4.74,2.41.65,0,1.27-.11,1.86-.31.57,4.07,4.06,7.2,8.29,7.19,2.65,0,5.01-1.25,6.54-3.18.81.43,1.74.67,2.72.67,2.68,0,4.94-1.81,5.63-4.27,1.06,1.04,2.51,1.68,4.12,1.68.79,0,1.54-.16,2.23-.45.78-.32,1.47-.81,2.03-1.41v-2.33s0,0,0,0V0Z"/></svg>