<?xml version="1.0" encoding="UTF-8"?><svg id="_Ñëîé_4" xmlns="http://www.w3.org/2000/svg" width="200" height="75" viewBox="0 0 200 75"><defs><style>.cls-1{fill:#fff;}.cls-2{fill:#2c375f;}.cls-3{fill:#141a2d;}.cls-4{fill:#f0f9ff;}.cls-5{fill:#222c47;}</style></defs><path class="cls-3" d="m91.22,53.6c-.22-1.37-.9-2.58-1.88-3.49-1.13-1.05-2.65-1.69-4.33-1.68-.96,0-1.87.23-2.68.62,0-.1.01-.2.01-.3,0,0,0,0,0,0,0-.92-.19-1.79-.52-2.6-.3-.74-.7-1.42-1.22-2.02-.18-.21-.37-.4-.57-.59-1.33-1.25-3.14-2.01-5.12-2-3.39.02-6.22,2.3-7.06,5.37-.08-.03-.16-.06-.24-.08-.81-.24-1.68-.37-2.58-.36-4.37.03-7.95,3.24-8.52,7.38,0,.05-.02.1-.02.14-.98-.24-2-.37-3.06-.37-2.05.01-3.98.52-5.68,1.4-.03-.08-.06-.17-.1-.25-.34-.8-.85-1.51-1.48-2.09-1.13-1.05-2.65-1.69-4.33-1.68-.58,0-1.13.09-1.66.24,1.19,1.11,1.93,2.67,1.94,4.41,0,.58-.08,1.14-.23,1.68.01,0,.02,0,.04,0,1.88-.01,3.58.75,4.8,1.99.24.23.47.47.68.74.42.53.76,1.14,1,1.79,1.75-1.69,4.13-2.74,6.77-2.76.98,0,1.92.13,2.81.39,1.62.47,3.06,1.33,4.22,2.49,1.11,1.05,1.97,2.35,2.48,3.81.87-.43,1.84-.68,2.88-.69,1.84-.01,3.5.74,4.69,1.94.13.12.26.25.38.38,1.45-.45,3.02-.61,4.63-.42.45.05.89.14,1.33.25.5-.11,1.02-.16,1.56-.17.47,0,.93.04,1.38.12-.02-.2-.03-.41-.04-.61-.03-3.54,2.87-6.43,6.46-6.46.4,0,.79.04,1.17.1-.13-.5-.2-1.02-.21-1.56,0-1.08.25-2.09.7-3,.39-.78.93-1.47,1.59-2.04Z"/><path class="cls-3" d="m182.96,41.14c-1.32-1.24-3.09-2-5.05-1.99-2.54.02-4.76,1.33-6.05,3.3-.09-.02-.19-.05-.28-.07-.86-.19-1.75-.31-2.67-.3-3.85.03-7.25,1.92-9.35,4.8-.04-.1-.09-.19-.14-.28-.32-.63-.75-1.2-1.27-1.68-1.11-1.04-2.61-1.68-4.26-1.67-2.25.02-4.2,1.23-5.26,3.03-.06-.08-.12-.16-.18-.24-.35-.43-.72-.85-1.12-1.23-2.31-2.22-5.46-3.58-8.93-3.55-4.6.03-8.6,2.49-10.81,6.15-.01.02-.02.04-.03.06-.88-.47-1.88-.73-2.94-.72-3.4.02-6.14,2.79-6.12,6.17,0,.04,0,.08,0,.11-.06-.02-.13-.03-.19-.05-.71-.16-1.45-.26-2.21-.26.15.5.26,1.02.34,1.55,1.01.33,1.95.82,2.78,1.45.35.27.68.55.99.86.04.04.08.07.12.11,1.34,1.32,2.27,3.05,2.6,4.98.81-.24,1.66-.38,2.55-.39,2.55-.02,4.85,1.02,6.5,2.69.89.84,1.6,1.86,2.09,3,.71-.49,1.58-.79,2.51-.79.54,0,1.06.1,1.54.28.19-3.6,3.16-6.47,6.83-6.5,1.19,0,2.32.29,3.3.81.86-4.38,4.72-7.7,9.38-7.73,2.71-.02,5.16,1.08,6.93,2.86.12.11.22.23.33.34.72-.37,1.52-.61,2.39-.61.54,0,1.06.1,1.55.25.14-.52.34-1.03.58-1.5.69-1.36,1.75-2.5,3.05-3.29,1.16-.7,2.51-1.13,3.96-1.17,0-.05-.02-.1-.02-.15-.02-2.91,2.33-5.28,5.25-5.3.92,0,1.77.24,2.52.64.21-.35.43-.68.69-1-.38-1.15-1.04-2.17-1.91-2.99Z"/><path class="cls-5" d="m141.38,70.06c-.07-1.85-1.26-3.41-2.92-4.01-.48-.17-.99-.28-1.54-.28-.97,0-1.86.34-2.59.87.37.98.59,2.03.6,3.14,0,.45-.04.89-.1,1.33l3.85-.03,2.7-1.03Z"/><path class="cls-5" d="m143.49,59.62c.43-.09.87-.14,1.33-.14.56,0,1.1.06,1.61.19-.52-.13-1.06-.19-1.61-.19-.46,0-.9.05-1.33.14Z"/><path class="cls-5" d="m147.92,60.21c.07.04.15.07.22.11.22-1.14.62-2.21,1.18-3.18-.56.97-.96,2.04-1.18,3.18-.07-.04-.15-.07-.22-.11Z"/><path class="cls-5" d="m150.81,55.17c-.38.39-.74.82-1.05,1.28.32-.46.67-.88,1.05-1.28Z"/><path class="cls-5" d="m147.92,60.21c-.47-.24-.96-.42-1.48-.55.52.13,1.01.31,1.48.55Z"/><path class="cls-5" d="m142.86,59.79c-.41.13-.81.3-1.19.5.38-.2.77-.37,1.19-.5Z"/><path class="cls-5" d="m141.67,60.29c-.57.31-1.09.69-1.55,1.14.46-.45.98-.83,1.55-1.14Z"/><path class="cls-5" d="m176.42,48.93s0-.05,0-.08h0s0,.05,0,.08Z"/><path class="cls-5" d="m197.15,40.89c-.49-.33-1.01-.61-1.55-.84.54.23,1.06.51,1.55.84Z"/><path class="cls-5" d="m183.97,43.87c.08.04.16.09.25.14.2-.34.42-.68.66-.99-.24.31-.46.65-.66.99-.08-.05-.16-.09-.25-.14Z"/><path class="cls-5" d="m170.66,51.76c1.44-1.62,3.48-2.67,5.77-2.74h0c-2.29.08-4.33,1.12-5.77,2.74Z"/><path class="cls-5" d="m180.62,43.45c.34-.07.7-.12,1.06-.12.2,0,.41,0,.6.03-.2-.02-.4-.03-.6-.03-.36,0-.72.04-1.06.12Z"/><path class="cls-5" d="m200.07,57.2l-.05-6.87-.04-6.46c-.41-.69-.9-1.32-1.47-1.88-.21-.21-.43-.4-.66-.59.23.19.45.38.66.59-.6-.63-1.28-1.16-2.02-1.6-1.37-.8-2.94-1.26-4.63-1.25-.19,0-.38.02-.57.03-.38.03-.76.07-1.13.15-2.2.44-4.13,1.68-5.47,3.43-.25.33-.48.68-.69,1.04-.76-.42-1.61-.67-2.53-.67-2.93.02-5.3,2.49-5.27,5.52,0,.05.01.1.02.16-1.45.05-2.81.49-3.97,1.22-1.31.82-2.38,2.01-3.06,3.43-.24.5-.43,1.02-.58,1.56-.01.04-.02.09-.03.13h0c-.43-.11-.87-.19-1.33-.18-.88,0-1.69.25-2.41.64-.06-.07-.13-.14-.19-.21-.11-.12-.22-.24-.34-.35,0,0,0,0,0,0-1.77-1.85-4.23-3-6.95-2.98-4.68.03-8.56,3.49-9.42,8.05-.99-.54-2.12-.85-3.31-.84-3.69.03-6.67,3.02-6.86,6.77.07.03.14.04.21.07,0,.05,0,.09,0,.14,1.68.63,2.89,2.24,2.95,4.17l-2.72,1.07,30.56-.22c.25-3.11,2.77-5.56,5.86-5.59.87,0,1.7.19,2.45.53,1.74-1.49,3.98-2.4,6.42-2.42.12,0,.24.01.35.02.73-2.5,2.97-4.34,5.63-4.35,3.03-.02,5.54,2.31,5.91,5.33.18-.02.36-.03.54-.03,1.65-.01,3.15.68,4.23,1.8l-.06-9.36Zm-58.41,3.08c-.57.31-1.09.69-1.55,1.14.46-.45.98-.83,1.55-1.14.38-.2.77-.37,1.19-.5-.41.13-.81.3-1.19.5Zm6.47.03c-.07-.04-.15-.07-.22-.11-.47-.24-.96-.42-1.48-.55-.52-.13-1.06-.19-1.61-.19-.46,0-.9.05-1.33.14.43-.09.87-.14,1.33-.14.56,0,1.1.06,1.61.19.52.13,1.01.31,1.48.55.07.04.15.07.22.11.22-1.14.62-2.21,1.18-3.18-.56.97-.96,2.04-1.18,3.18Zm1.63-3.88c.32-.46.67-.88,1.05-1.28-.38.39-.74.82-1.05,1.28Zm26.65-7.59s0,.05,0,.08c0-.03,0-.05,0-.08h0Zm-5.75,2.9c1.44-1.62,3.48-2.67,5.77-2.74h0c-2.29.08-4.33,1.12-5.77,2.74Zm11.03-8.42c-.36,0-.72.04-1.06.12.34-.07.7-.12,1.06-.12.2,0,.41,0,.6.03-.2-.02-.4-.03-.6-.03Zm2.53.67c-.08-.05-.16-.09-.25-.14.08.04.16.09.25.14.2-.34.42-.68.66-.99-.24.31-.46.65-.66.99Zm11.39-3.95c.54.23,1.06.51,1.55.84-.49-.33-1.01-.61-1.55-.84Z"/><path class="cls-5" d="m72.31,66.03c-1.15-1.08-2.69-1.74-4.4-1.73-1.06,0-2.05.28-2.93.74-.03-.09-.06-.17-.09-.25-.5-1.45-1.34-2.75-2.43-3.79-1.74-1.66-4.09-2.68-6.69-2.66-2.64.02-5.01,1.1-6.73,2.83-.03-.1-.07-.19-.1-.29-.23-.65-.57-1.24-.98-1.78-.2-.26-.42-.51-.66-.73-1.17-1.11-2.76-1.79-4.5-1.78-.1,0-.2.01-.3.02.02-.07.04-.14.06-.21.15-.53.23-1.09.22-1.67-.01-1.73-.74-3.28-1.9-4.39,0,0-.02-.02-.03-.02-1.11-1.04-2.6-1.68-4.24-1.67-1.6.01-3.05.64-4.14,1.66-.06-.08-.11-.15-.17-.23-.28-.36-.58-.7-.91-1.01-1.18-1.13-2.67-1.95-4.33-2.31,0-.05,0-.1,0-.15-.11-1.66-.84-3.14-1.98-4.2-1.15-1.08-2.69-1.74-4.4-1.73-2.96.02-5.42,2.06-6.1,4.8-.01.05-.03.11-.04.16-.54-.09-1.1-.15-1.67-.14-5.1.04-9.22,4.05-9.48,9.07-.07,0-.14.02-.21.03-1.17.17-2.27.55-3.27,1.09l.09,13c.56-.61,1.25-1.1,2.03-1.42.69-.29,1.44-.45,2.23-.46,1.6-.01,3.06.62,4.13,1.66.68-2.46,2.92-4.28,5.61-4.3.98,0,1.91.23,2.72.65,1.52-1.94,3.87-3.2,6.53-3.22,4.23-.03,7.73,3.08,8.32,7.15.58-.2,1.21-.31,1.86-.32,2.6-.02,4.81,1.66,5.6,4l24.93-.18h.43s1.67-.01,1.67-.01c1.28-2.8,3.71-4.91,6.62-5.82-.12-.13-.24-.26-.37-.38Z"/><path class="cls-4" d="m119.46,55.1c-.82-.63-1.75-1.12-2.76-1.45,0,.05.02.09.02.14,1.41.42,2.68,1.18,3.72,2.18-.31-.31-.64-.6-.98-.86Z"/><path class="cls-1" d="m81.44,65.74c0-.06-.02-.11-.02-.17-.44-.08-.89-.12-1.35-.12-.52,0-1.03.06-1.52.17.18.04.35.09.52.15.39-.07.79-.11,1.21-.11s.79.03,1.18.09Z"/><path class="cls-4" d="m81.44,65.74c-.38-.06-.77-.1-1.18-.09s-.81.05-1.21.11c1.03.31,1.98.76,2.84,1.34-.14-.43-.24-.87-.28-1.33-.06-.01-.12-.02-.18-.03Z"/><path class="cls-5" d="m136.25,67.11c-.04-.1-.07-.2-.11-.3-.52-1.23-1.28-2.32-2.23-3.23-1.75-1.67-4.11-2.69-6.72-2.67-1.01,0-1.98.17-2.89.47-.01-.09-.03-.18-.04-.26-.36-2.07-1.35-3.93-2.78-5.35-.04-.04-.09-.08-.13-.12-1.12-1.07-2.48-1.88-4-2.33,0-.05-.02-.1-.02-.15-.08-.57-.2-1.12-.36-1.66-.02-.07-.03-.14-.05-.21-.59-1.86-1.64-3.5-3.01-4.82-2.09-2.01-4.93-3.24-8.06-3.22-4.61.03-8.55,2.77-10.37,6.69-.1-.01-.2-.03-.3-.04-.22-.02-.44-.03-.66-.03-3.93.03-7.09,3.24-7.07,7.17,0,.51.06,1,.17,1.48.01.06.03.12.05.19-.4-.07-.81-.11-1.23-.11-3.78.03-6.82,3.11-6.8,6.89,0,.22.02.44.04.65.05.49.15.97.3,1.43.03.02.07.04.1.06,1.43-1.57,3.56-2.45,5.83-2.17.58.07,1.12.22,1.64.42.56.22,1.09.51,1.56.86,2.42-2.24,5.77-3.44,9.3-3.01.07,0,.13.03.2.03.77-1.31,2.03-2.28,3.49-2.7.75-.21,1.55-.29,2.37-.19.1.01.21.04.31.05.17.03.34.07.5.11,2.45.65,4.21,2.78,4.41,5.29.23,0,.45.02.68.05,3.23.4,5.77,2.7,6.61,5.65l11.54-.08,8.28-.06c.07-.47.11-.94.11-1.43,0-1.19-.24-2.32-.64-3.37Z"/><path class="cls-5" d="m38.26,68.74c-.5,0-.98.09-1.43.24.04.29.07.59.07.89,0,.69-.1,1.35-.3,1.98l5.95-.04c-.6-1.8-2.3-3.08-4.3-3.07Z"/><path class="cls-2" d="m177.17,66.02c-.74-.33-1.56-.52-2.42-.51-3.06.02-5.55,2.38-5.8,5.36l5.02-.04c.58-1.91,1.71-3.57,3.2-4.82Z"/><path class="cls-2" d="m200,69.48l-.03-4.2c-1.07-1.16-2.55-1.87-4.19-1.86-.18,0-.36.01-.53.03-.37-3.13-2.85-5.54-5.85-5.52-2.64.02-4.86,1.92-5.58,4.5-.12,0-.23-.02-.35-.02-2.42.02-4.63.96-6.36,2.5-1.04.93-1.89,2.09-2.51,3.4-.41-.45-.9-.81-1.45-1.05-.51-.22-1.07-.35-1.66-.34-1.19,0-2.26.53-3.04,1.37-.53-1.96-2.21-3.39-4.21-3.37-.73,0-1.41.21-2.01.55-1.15-1.53-2.91-2.51-4.88-2.5-3.14.02-5.71,2.55-6.1,5.81-.03.21-.03.42-.04.64-1.39-2.56-3.64-4.47-6.27-5.31-1.43-.46-2.97-.61-4.54-.38-.44.07-.87.17-1.3.29-.18.05-.35.11-.52.16-1.02.35-1.97.85-2.82,1.48-.03.02-.06.04-.09.07-1.35-1.55-3.35-2.4-5.46-2.09-.54.08-1.04.24-1.52.45-.52.23-1.01.53-1.44.89-2.28-2.21-5.42-3.37-8.7-2.89-.06,0-.12.03-.18.04-2.41.4-4.51,1.64-6.1,3.39-.65-.32-1.36-.53-2.11-.63-.21-.03-.42-.04-.63-.05-.18-2.51-1.83-4.65-4.11-5.3-.15-.04-.31-.08-.47-.11-.1-.02-.19-.04-.29-.05-.76-.1-1.51-.03-2.21.19-1.36.42-2.53,1.4-3.25,2.71-.06,0-.12-.03-.18-.03-3.29-.43-6.41.77-8.66,3.02-.44-.35-.93-.64-1.46-.86-.48-.2-.99-.35-1.53-.42-2.11-.28-4.1.6-5.43,2.18-.03-.02-.06-.04-.09-.06-.86-.62-1.82-1.11-2.84-1.44-.17-.06-.34-.11-.52-.16-.42-.11-.86-.21-1.3-.27-1.58-.21-3.11-.03-4.53.45-2.43.82-4.51,2.54-5.89,4.85v-.31c-.43-.48-.94-.86-1.52-1.12-.51-.22-1.07-.35-1.66-.34-1.19,0-2.26.53-3.04,1.37-.53-1.96-2.21-3.39-4.21-3.37-.73,0-1.41.21-2.01.55-1.15-1.53-2.91-2.51-4.88-2.5-3.14.02-5.71,2.55-6.1,5.81-.43-.15-.9-.24-1.38-.23-1.15,0-2.18.51-2.95,1.3h-.2c-.9-2.27-2.97-3.86-5.41-3.84-.65,0-1.27.13-1.86.34-.59-4.38-4.1-7.73-8.32-7.7-2.65.02-5.01,1.37-6.53,3.46-.82-.45-1.74-.71-2.72-.7-2.68.02-4.93,1.98-5.61,4.63-1.07-1.12-2.52-1.8-4.13-1.79-.79,0-1.54.18-2.23.49-.78.35-1.46.88-2.03,1.53l.03,4.32v3.75h199.99v-5.7h0Z"/></svg>