<?xml version="1.0" encoding="UTF-8"?>
<svg xmlns="http://www.w3.org/2000/svg" xmlns:xlink="http://www.w3.org/1999/xlink" viewBox="0 0 200 75">
  <defs>
    <style>
      .cls-1 {
        fill: #d8e1e6;
        opacity: .32;
      }

      .cls-2 {
        fill: #dce4e8;
        opacity: .29;
      }

      .cls-3 {
        fill: #a9bdc7;
        opacity: .71;
      }

      .cls-4 {
        fill: #9ab1bd;
        opacity: .84;
      }

      .cls-5, .cls-6 {
        fill: #fff;
      }

      .cls-7 {
        fill: #f3f6f7;
        opacity: .1;
      }

      .cls-8 {
        fill: #86a2b0;
      }

      .cls-9 {
        fill: #92abb8;
        opacity: .9;
      }

      .cls-10 {
        fill: #ccd8de;
        opacity: .42;
      }

      .cls-11 {
        fill: #a5bac4;
        opacity: .74;
      }

      .cls-12 {
        fill: #eff3f5;
        opacity: .13;
      }

      .cls-6 {
        opacity: 0;
      }

      .cls-13 {
        fill: #c4d2d9;
        opacity: .48;
      }

      .cls-14 {
        fill: #a1b7c2;
        opacity: .77;
      }

      .cls-15 {
        isolation: isolate;
      }

      .cls-16 {
        fill: #d4dee3;
        opacity: .35;
      }

      .cls-17 {
        fill: #e0e7eb;
        opacity: .26;
      }

      .cls-18 {
        fill: #bdccd4;
        opacity: .55;
      }

      .cls-19 {
        fill: #f0f9ff;
      }

      .cls-20 {
        fill: #fbfcfc;
        opacity: .03;
      }

      .cls-21 {
        fill: #b8dbf2;
      }

      .cls-22 {
        fill: #d0dbe0;
        opacity: .39;
      }

      .cls-23 {
        fill: #96aeba;
        opacity: .87;
      }

      .cls-24 {
        fill: #b1c3cc;
        opacity: .65;
      }

      .cls-25 {
        fill: #e8edf0;
        opacity: .19;
      }

      .cls-26 {
        clip-path: url(#clippath);
      }

      .cls-27 {
        fill: none;
      }

      .cls-28 {
        fill: #e1f0fa;
      }

      .cls-29 {
        fill: #c1cfd6;
        opacity: .52;
      }

      .cls-30 {
        fill: #c8d5db;
        opacity: .45;
      }

      .cls-31 {
        fill: #8ea8b5;
        opacity: .94;
      }

      .cls-32 {
        fill: #b5c6cf;
        opacity: .61;
      }

      .cls-33 {
        fill: #b9c9d1;
        opacity: .58;
      }

      .cls-34 {
        fill: #f7f9fa;
        opacity: .06;
      }

      .cls-35 {
        fill: #9db4bf;
        opacity: .81;
      }

      .cls-36 {
        fill: #e4eaed;
        opacity: .23;
      }

      .cls-37 {
        fill: #8aa5b3;
        opacity: .97;
      }

      .cls-38 {
        fill: #adc0c9;
        opacity: .68;
      }

      .cls-39 {
        fill: #c8e4f7;
      }

      .cls-40 {
        mix-blend-mode: multiply;
      }

      .cls-41 {
        fill: #ebf0f2;
        opacity: .16;
      }
    </style>
    <clipPath id="clippath">
      <rect class="cls-27" x="0" width="200" height="75"/>
    </clipPath>
  </defs>
  <g class="cls-15">
    <g id="_Ñëîé_4" data-name="Ñëîé 4">
      <g class="cls-26">
        <g>
          <path class="cls-39" d="m195.54,38.25c0-3.24,2.62-5.86,5.86-5.86s5.86,2.62,5.86,5.86-2.62,5.86-5.86,5.86-5.86-2.62-5.86-5.86Z"/>
          <path class="cls-39" d="m185.97,29.89c0-4.62,3.74-8.36,8.36-8.36s8.36,3.74,8.36,8.36-3.74,8.36-8.36,8.36-8.36-3.74-8.36-8.36Z"/>
        </g>
        <g>
          <path class="cls-21" d="m195.34,38.05c0-3.24,2.62-5.86,5.86-5.86s5.86,2.62,5.86,5.86-2.62,5.86-5.86,5.86-5.86-2.62-5.86-5.86Z"/>
          <circle class="cls-21" cx="194.14" cy="29.69" r="8.36"/>
        </g>
        <g>
          <path class="cls-39" d="m3.6,34.56c0-3.24,2.62-5.86,5.86-5.86s5.86,2.62,5.86,5.86-2.62,5.86-5.86,5.86-5.86-2.63-5.86-5.86Z"/>
          <path class="cls-39" d="m13.35,33.96c0-3.24,2.62-5.86,5.86-5.86s5.86,2.62,5.86,5.86-2.62,5.86-5.86,5.86-5.86-2.62-5.86-5.86Z"/>
          <path class="cls-39" d="m-8.16,38.78c0-4.62,3.74-8.36,8.36-8.36s8.36,3.74,8.36,8.36S4.82,47.14.2,47.14s-8.36-3.74-8.36-8.36Z"/>
        </g>
        <g>
          <path class="cls-21" d="m3.4,34.36c0-3.24,2.62-5.86,5.86-5.86s5.86,2.62,5.86,5.86-2.62,5.86-5.86,5.86-5.86-2.62-5.86-5.86Z"/>
          <path class="cls-21" d="m13.15,33.76c0-3.24,2.62-5.86,5.86-5.86s5.86,2.62,5.86,5.86-2.62,5.86-5.86,5.86-5.86-2.62-5.86-5.86Z"/>
          <path class="cls-21" d="m-8.36,38.58C-8.36,33.96-4.62,30.21,0,30.21s8.36,3.74,8.36,8.36S4.62,46.94,0,46.94s-8.36-3.74-8.36-8.36Z"/>
        </g>
        <g>
          <path class="cls-28" d="m152.15,17.81c0-3.5-2.84-6.35-6.35-6.35s-6.35,2.84-6.35,6.35,2.84,6.35,6.35,6.35,6.35-2.84,6.35-6.35Z"/>
          <path class="cls-28" d="m128.44,26.95c0-3.58-2.9-6.49-6.49-6.49s-6.49,2.9-6.49,6.49,2.9,6.49,6.49,6.49,6.49-2.9,6.49-6.49Z"/>
          <circle class="cls-28" cx="84.07" cy="25.08" r="9.8" transform="translate(-3.51 19.9) rotate(-13.23)"/>
          <path class="cls-28" d="m110.85,35.18c0-3.39-2.75-6.14-6.14-6.14s-6.14,2.75-6.14,6.14,2.75,6.14,6.14,6.14,6.14-2.75,6.14-6.14Z"/>
          <path class="cls-28" d="m119.58,29.64c0-3.38-2.74-6.13-6.13-6.13s-6.13,2.74-6.13,6.13,2.74,6.13,6.13,6.13,6.13-2.74,6.13-6.13Z"/>
          <path class="cls-28" d="m105.13,30.57c0-5.29-4.29-9.58-9.58-9.58s-9.58,4.29-9.58,9.58,4.29,9.58,9.58,9.58,9.58-4.29,9.58-9.58Z"/>
          <path class="cls-28" d="m142.49,23.03c0-5.29-4.29-9.58-9.58-9.58s-9.58,4.29-9.58,9.58,4.29,9.58,9.58,9.58,9.58-4.29,9.58-9.58Z"/>
          <polygon class="cls-28" points="158.65 9.92 79.91 9.92 79.91 25.68 105.17 34.28 130.07 20.63 158.65 9.92"/>
        </g>
        <g>
          <circle class="cls-39" cx="145.61" cy="17.61" r="6.35"/>
          <path class="cls-39" d="m128.24,26.75c0-3.58-2.9-6.49-6.49-6.49s-6.49,2.9-6.49,6.49,2.9,6.49,6.49,6.49,6.49-2.9,6.49-6.49Z"/>
          <path class="cls-39" d="m93.67,24.88c0-5.41-4.39-9.8-9.8-9.8s-9.8,4.39-9.8,9.8,4.39,9.8,9.8,9.8,9.8-4.39,9.8-9.8Z"/>
          <path class="cls-39" d="m110.65,34.98c0-3.39-2.75-6.14-6.14-6.14s-6.14,2.75-6.14,6.14,2.75,6.14,6.14,6.14,6.14-2.75,6.14-6.14Z"/>
          <path class="cls-39" d="m119.38,29.44c0-3.38-2.74-6.13-6.13-6.13s-6.13,2.74-6.13,6.13,2.74,6.13,6.13,6.13,6.13-2.74,6.13-6.13Z"/>
          <path class="cls-39" d="m104.93,30.37c0-5.29-4.29-9.58-9.58-9.58s-9.58,4.29-9.58,9.58,4.29,9.58,9.58,9.58,9.58-4.29,9.58-9.58Z"/>
          <path class="cls-39" d="m142.29,22.83c0-5.29-4.29-9.58-9.58-9.58s-9.58,4.29-9.58,9.58,4.29,9.58,9.58,9.58,9.58-4.29,9.58-9.58Z"/>
          <polygon class="cls-39" points="158.45 9.72 79.71 9.72 79.71 25.48 104.97 34.08 129.87 20.43 158.45 9.72"/>
        </g>
        <g>
          <path class="cls-28" d="m172.11,30.62c0-3.91,3.17-7.08,7.08-7.08s7.09,3.17,7.09,7.08-3.17,7.08-7.09,7.08-7.08-3.17-7.08-7.08Z"/>
          <path class="cls-28" d="m166.16,35.33c0-3.54,2.87-6.41,6.41-6.41s6.41,2.87,6.41,6.41-2.87,6.41-6.41,6.41-6.41-2.87-6.41-6.41Z"/>
          <path class="cls-28" d="m155.56,28.39c0-5.45,4.42-9.87,9.87-9.87s9.86,4.42,9.86,9.87-4.42,9.87-9.86,9.87-9.87-4.42-9.87-9.87Z"/>
          <path class="cls-28" d="m141.27,22.11c0-5.91,4.79-10.7,10.7-10.7s10.71,4.79,10.71,10.7-4.79,10.7-10.71,10.7-10.7-4.79-10.7-10.7Z"/>
          <path class="cls-28" d="m186.13,18.47c0-5.37,4.35-9.73,9.73-9.73s9.73,4.35,9.73,9.73-4.36,9.73-9.73,9.73-9.73-4.35-9.73-9.73Z"/>
          <path class="cls-28" d="m180.85,29.05c0-3.76,3.05-6.82,6.82-6.82s6.82,3.05,6.82,6.82-3.05,6.82-6.82,6.82-6.82-3.05-6.82-6.82Z"/>
          <path class="cls-28" d="m132.14,18.47c0-3.76,3.05-6.82,6.82-6.82s6.82,3.05,6.82,6.82-3.05,6.82-6.82,6.82-6.82-3.05-6.82-6.82Z"/>
          <polygon class="cls-28" points="142.47 12.95 191.25 12.95 185.87 34.29 159.01 30.98 142.47 12.95"/>
        </g>
        <g>
          <path class="cls-39" d="m171.91,30.42c0-3.91,3.17-7.08,7.08-7.08s7.08,3.17,7.08,7.08-3.17,7.08-7.08,7.08-7.08-3.17-7.08-7.08Z"/>
          <path class="cls-39" d="m165.96,35.13c0-3.54,2.87-6.41,6.41-6.41s6.41,2.87,6.41,6.41-2.87,6.41-6.41,6.41-6.41-2.87-6.41-6.41Z"/>
          <path class="cls-39" d="m155.36,28.19c0-5.45,4.42-9.87,9.86-9.87s9.87,4.42,9.87,9.87-4.42,9.87-9.87,9.87-9.86-4.42-9.86-9.87Z"/>
          <path class="cls-39" d="m141.07,21.91c0-5.91,4.79-10.7,10.7-10.7s10.7,4.79,10.7,10.7-4.79,10.71-10.7,10.71-10.7-4.79-10.7-10.71Z"/>
          <path class="cls-39" d="m185.93,18.27c0-5.37,4.36-9.73,9.73-9.73s9.73,4.35,9.73,9.73-4.36,9.73-9.73,9.73-9.73-4.35-9.73-9.73Z"/>
          <path class="cls-39" d="m180.65,28.85c0-3.76,3.05-6.82,6.82-6.82s6.82,3.05,6.82,6.82-3.05,6.82-6.82,6.82-6.82-3.05-6.82-6.82Z"/>
          <path class="cls-39" d="m131.94,18.27c0-3.76,3.05-6.82,6.82-6.82s6.82,3.05,6.82,6.82-3.05,6.82-6.82,6.82-6.82-3.05-6.82-6.82Z"/>
          <polygon class="cls-39" points="142.27 12.75 191.05 12.75 185.67 34.09 158.81 30.78 142.27 12.75"/>
        </g>
        <g>
          <path class="cls-28" d="m40.43,32.88c0-4,3.24-7.24,7.24-7.24s7.24,3.24,7.24,7.24-3.24,7.24-7.24,7.24-7.24-3.24-7.24-7.24Z"/>
          <circle class="cls-28" cx="3.21" cy="29.58" r="7.37" transform="translate(-19.97 10.93) rotate(-45)"/>
          <circle class="cls-28" cx="68.66" cy="23.22" r="11.14"/>
          <path class="cls-28" d="m17.17,27.16c0-5.74,4.66-10.4,10.4-10.4s10.4,4.66,10.4,10.4-4.66,10.4-10.4,10.4-10.4-4.66-10.4-10.4Z"/>
          <path class="cls-28" d="m30.88,35.33c0-3.85,3.12-6.96,6.96-6.96s6.96,3.12,6.96,6.96-3.12,6.96-6.96,6.96-6.96-3.12-6.96-6.96Z"/>
          <path class="cls-28" d="m74.96,20.48c0-3.85,3.12-6.96,6.96-6.96s6.96,3.12,6.96,6.96-3.12,6.96-6.96,6.96-6.96-3.12-6.96-6.96Z"/>
          <circle class="cls-28" cx="57.8" cy="29.42" r="6.96"/>
          <circle class="cls-28" cx="15.24" cy="24.84" r="8.85"/>
          <polygon class="cls-28" points="-16.32 11.05 73.18 11.05 73.18 28.97 43.47 36.48 -.35 28.97 -16.32 11.05"/>
        </g>
        <g>
          <path class="cls-39" d="m40.23,32.68c0-4,3.24-7.24,7.24-7.24s7.24,3.24,7.24,7.24-3.24,7.24-7.24,7.24-7.24-3.24-7.24-7.24Z"/>
          <circle class="cls-39" cx="3.01" cy="29.38" r="7.37" transform="translate(-19.89 10.73) rotate(-45)"/>
          <circle class="cls-39" cx="68.46" cy="23.02" r="11.14"/>
          <path class="cls-39" d="m16.97,26.96c0-5.74,4.66-10.4,10.4-10.4s10.4,4.66,10.4,10.4-4.66,10.4-10.4,10.4-10.4-4.66-10.4-10.4Z"/>
          <path class="cls-39" d="m30.67,35.12c0-3.85,3.12-6.96,6.96-6.96s6.96,3.12,6.96,6.96-3.12,6.96-6.96,6.96-6.96-3.12-6.96-6.96Z"/>
          <path class="cls-39" d="m74.76,20.28c0-3.85,3.12-6.96,6.96-6.96s6.96,3.12,6.96,6.96-3.12,6.96-6.96,6.96-6.96-3.12-6.96-6.96Z"/>
          <circle class="cls-39" cx="57.6" cy="29.22" r="6.96"/>
          <path class="cls-39" d="m6.2,24.64c0-4.88,3.96-8.84,8.85-8.84s8.85,3.96,8.85,8.84-3.96,8.85-8.85,8.85-8.85-3.96-8.85-8.85Z"/>
          <polygon class="cls-39" points="-16.52 10.85 72.98 10.85 72.98 28.77 43.27 36.28 -.55 28.77 -16.52 10.85"/>
        </g>
        <g class="cls-40">
          <path class="cls-6" d="m111.87,31.08c-1.55-.76-5.15-2.04-7.05-3.54-1.74-1.38-3.7-5.29-5.5-6.99-3.34-3.16-10.11-5.23-9.45-14.21.67-9.14,22.13-7.29,26.69-6.68,4.92.66,44.54,4.8,47.41,7.62,6.7,6.6,1.05,17.67-4.5,18.4-3.94.52-6.56-.07-8.4-.7-2.76-.95-4.19-.44-5.8,1.4-1.41,1.61-2.87,2.83-5.3,4.3-2.5,1.51-5.06,1.49-6.8,2.2-2.2.9-7.34,4.3-12.4,3.2-4.94-1.08-7.82-4.47-8.9-5Z"/>
          <path class="cls-20" d="m112.09,30.81c-1.54-.77-5.12-1.98-7.01-3.47-1.76-1.39-3.63-5.23-5.44-6.92-3.31-3.11-10.18-5.2-9.49-14.1.68-8.96,22.03-7.07,26.67-6.48,4.91.62,44.29,4.76,47.11,7.52,6.52,6.41,1.06,17.42-4.53,18.14-3.9.51-6.51-.21-8.38-.79-2.77-.85-4.29-.44-5.88,1.37-1.39,1.58-2.82,2.88-5.24,4.35-2.49,1.52-5.09,1.46-6.8,2.16-2.17.88-7.15,4.28-12.21,3.21-4.94-1.05-7.72-4.46-8.8-5Z"/>
          <path class="cls-34" d="m112.3,30.55c-1.53-.77-5.09-1.91-6.98-3.39-1.79-1.4-3.55-5.16-5.38-6.86-3.27-3.06-10.24-5.16-9.53-13.99C91.09-2.46,112.33-.53,117.06.03s44.05,4.71,46.82,7.42c6.33,6.22,1.06,17.17-4.56,17.88-3.86.5-6.45-.36-8.36-.87-2.78-.75-4.4-.44-5.97,1.35-1.36,1.55-2.78,2.92-5.18,4.41-2.49,1.54-5.11,1.44-6.79,2.12-2.13.87-6.96,4.25-12.02,3.21-4.94-1.02-7.62-4.44-8.71-4.99Z"/>
          <path class="cls-7" d="m112.51,30.28c-1.52-.78-5.07-1.84-6.95-3.32-1.81-1.41-3.48-5.09-5.32-6.8-3.25-3-10.29-5.13-9.56-13.87.71-8.59,21.81-6.61,26.63-6.08s43.8,4.67,46.53,7.32c6.16,6.02,1.06,16.92-4.59,17.62-3.82.48-6.38-.51-8.34-.96-2.79-.65-4.51-.44-6.05,1.32-1.33,1.52-2.73,2.97-5.12,4.46-2.48,1.55-5.14,1.42-6.79,2.08-2.1.85-6.77,4.23-11.83,3.22-4.93-.99-7.51-4.43-8.61-4.99Z"/>
          <path class="cls-12" d="m112.72,30.02c-1.52-.78-5.04-1.78-6.92-3.24-1.83-1.42-3.4-5.03-5.26-6.73-3.21-2.95-10.34-5.09-9.6-13.76S112.64-.09,117.56.41s43.56,4.62,46.23,7.22c5.98,5.82,1.06,16.66-4.62,17.36-3.79.46-6.32-.66-8.32-1.05-2.8-.55-4.61-.44-6.14,1.29-1.31,1.49-2.68,3.02-5.06,4.51-2.48,1.56-5.16,1.39-6.78,2.04-2.06.83-6.57,4.2-11.64,3.23-4.93-.95-7.41-4.42-8.51-4.99Z"/>
          <path class="cls-41" d="m112.94,29.76c-1.51-.79-5.01-1.71-6.89-3.16-1.85-1.43-3.33-4.96-5.2-6.67-3.18-2.9-10.4-5.06-9.64-13.65S112.8.12,117.81.59s43.32,4.58,45.94,7.12c5.81,5.63,1.06,16.41-4.65,17.09-3.75.45-6.26-.81-8.3-1.14-2.81-.45-4.72-.45-6.22,1.26-1.28,1.46-2.63,3.07-5,4.57-2.47,1.57-5.18,1.37-6.78,2-2.03.81-6.38,4.18-11.45,3.23-4.93-.92-7.31-4.4-8.42-4.98Z"/>
          <path class="cls-25" d="m113.15,29.49c-1.5-.79-4.99-1.64-6.86-3.09-1.88-1.44-3.26-4.9-5.14-6.6-3.14-2.85-10.46-5.02-9.68-13.54.74-8.04,21.48-5.92,26.58-5.48s43.07,4.53,45.64,7.02c5.63,5.43,1.06,16.16-4.67,16.83-3.71.43-6.19-.96-8.28-1.22-2.82-.35-4.83-.45-6.3,1.24-1.26,1.43-2.59,3.12-4.94,4.62-2.47,1.59-5.21,1.34-6.77,1.96-1.99.79-6.19,4.15-11.26,3.24-4.93-.89-7.21-4.39-8.32-4.98Z"/>
          <path class="cls-36" d="m113.36,29.23c-1.49-.8-4.96-1.58-6.82-3.01-1.9-1.45-3.18-4.83-5.08-6.54-3.11-2.8-10.52-4.98-9.71-13.42.75-7.85,21.37-5.69,26.56-5.28,4.85.38,42.83,4.49,45.35,6.92,5.45,5.24,1.06,15.92-4.7,16.57-3.67.42-6.13-1.11-8.26-1.31-2.82-.26-4.93-.45-6.39,1.21-1.23,1.4-2.54,3.16-4.88,4.67-2.47,1.6-5.23,1.32-6.77,1.93-1.96.78-5.99,4.12-11.07,3.25-4.92-.86-7.1-4.38-8.22-4.98Z"/>
          <path class="cls-17" d="m113.58,28.96c-1.48-.8-4.93-1.51-6.79-2.94s-3.11-4.77-5.02-6.47c-3.08-2.75-10.58-4.95-9.75-13.31.76-7.67,21.26-5.45,26.54-5.08,4.84.34,42.58,4.45,45.06,6.82,5.27,5.05,1.06,15.67-4.73,16.31-3.64.4-6.06-1.27-8.25-1.4-2.83-.17-5.04-.45-6.47,1.18-1.2,1.37-2.49,3.21-4.82,4.73-2.46,1.61-5.26,1.29-6.76,1.89-1.92.76-5.8,4.1-10.88,3.25-4.92-.83-7-4.36-8.13-4.97Z"/>
          <path class="cls-2" d="m113.79,28.7c-1.47-.81-4.9-1.45-6.76-2.86s-3.03-4.7-4.96-6.41c-3.04-2.7-10.64-4.91-9.79-13.2.77-7.48,21.15-5.22,26.52-4.88,4.82.31,42.34,4.4,44.76,6.72,5.09,4.85,1.06,15.42-4.76,16.05-3.6.39-6.01-1.21-8.23-1.48-2.81-.35-5.15-.45-6.55,1.16-1.18,1.35-2.44,3.26-4.76,4.78-2.46,1.62-5.28,1.27-6.76,1.85-1.89.74-5.61,4.07-10.69,3.26-4.92-.8-6.9-4.35-8.03-4.97Z"/>
          <path class="cls-1" d="m114,28.43c-1.47-.81-4.88-1.38-6.73-2.79-1.96-1.49-2.96-4.64-4.89-6.35-3.01-2.65-10.7-4.88-9.83-13.09.78-7.3,21.04-4.99,26.5-4.68,4.81.27,42.09,4.36,44.47,6.62,4.91,4.66,1.06,15.17-4.79,15.79-3.56.38-5.94-1.35-8.21-1.57-2.82-.27-5.25-.46-6.64,1.13-1.15,1.32-2.4,3.31-4.7,4.83-2.45,1.63-5.3,1.24-6.75,1.81-1.85.72-5.42,4.05-10.5,3.26-4.91-.76-6.79-4.34-7.93-4.97Z"/>
          <path class="cls-16" d="m114.21,28.17c-1.46-.82-4.85-1.31-6.7-2.71-1.99-1.5-2.88-4.57-4.83-6.28-2.97-2.6-10.76-4.84-9.86-12.98.79-7.12,20.93-4.75,26.48-4.48,4.8.24,41.85,4.31,44.18,6.52,4.73,4.47,1.06,14.92-4.82,15.53-3.52.36-5.86-1.5-8.19-1.66-2.84-.19-5.36-.46-6.72,1.1-1.13,1.29-2.35,3.36-4.64,4.89-2.45,1.65-5.33,1.22-6.75,1.77-1.82.71-5.22,4.02-10.31,3.27-4.91-.73-6.69-4.32-7.84-4.96Z"/>
          <path class="cls-22" d="m114.43,27.9c-1.45-.82-4.82-1.25-6.67-2.64-2.01-1.52-2.81-4.51-4.77-6.22-2.94-2.55-10.82-4.81-9.9-12.86.79-6.93,20.82-4.52,26.46-4.28,4.79.2,41.6,4.27,43.88,6.41,4.54,4.27,1.07,14.67-4.85,15.26-3.48.35-5.79-1.89-8.17-1.75-2.84.18-5.47-.46-6.81,1.07-1.1,1.26-2.3,3.4-4.58,4.94-2.45,1.66-5.35,1.19-6.74,1.73-1.79.69-5.03,4-10.12,3.28-4.91-.7-6.59-4.31-7.74-4.96Z"/>
          <path class="cls-10" d="m114.64,27.64c-1.44-.83-4.8-1.18-6.63-2.56-2.03-1.53-2.73-4.44-4.71-6.15-2.9-2.5-10.89-4.77-9.94-12.75.8-6.75,20.71-4.28,26.44-4.08,4.78.17,41.36,4.23,43.59,6.31,4.36,4.08,1.07,14.42-4.88,15-3.45.34-5.73-2.05-8.15-1.83-2.85.26-5.57-.46-6.89,1.05-1.07,1.23-2.25,3.45-4.52,4.99-2.44,1.67-5.38,1.17-6.74,1.69-1.75.67-4.84,3.97-9.93,3.28-4.9-.67-6.48-4.29-7.64-4.96Z"/>
          <path class="cls-30" d="m114.85,27.37c-1.43-.83-4.77-1.11-6.6-2.48-2.05-1.54-2.65-4.38-4.65-6.09-2.86-2.45-10.95-4.73-9.98-12.64.81-6.56,20.6-4.05,26.42-3.88,4.77.14,41.11,4.18,43.29,6.21,4.18,3.89,1.07,14.17-4.91,14.74-3.41.32-5.66-2.21-8.13-1.92-2.85.34-5.68-.46-6.97,1.02-1.05,1.2-2.2,3.5-4.46,5.05-2.44,1.68-5.4,1.14-6.73,1.65-1.72.65-4.64,3.94-9.74,3.29-4.9-.64-6.38-4.28-7.55-4.96Z"/>
          <path class="cls-13" d="m115.07,27.11c-1.42-.84-4.74-1.05-6.57-2.41-2.08-1.55-2.58-4.31-4.59-6.02-2.83-2.4-11.01-4.7-10.02-12.53.81-6.38,20.49-3.81,26.4-3.68,4.75.1,40.87,4.14,43,6.11,4,3.7,1.07,13.93-4.94,14.48-3.37.31-5.59-2.38-8.11-2.01-2.86.42-5.79-.47-7.06.99-1.02,1.17-2.16,3.55-4.4,5.1-2.43,1.7-5.43,1.12-6.73,1.61-1.68.64-4.45,3.92-9.55,3.3-4.9-.61-6.28-4.26-7.45-4.95Z"/>
          <path class="cls-29" d="m115.28,26.85c-1.42-.84-4.72-.98-6.54-2.33-2.1-1.56-2.5-4.25-4.53-5.96-2.79-2.35-11.08-4.66-10.05-12.41.82-6.2,20.37-3.57,26.39-3.48,4.74.07,40.62,4.09,42.71,6.01,3.82,3.51,1.07,13.68-4.96,14.22-3.33.3-5.53-2.54-8.09-2.09-2.86.5-5.89-.47-7.14.96-1,1.14-2.11,3.6-4.34,5.15-2.43,1.71-5.45,1.09-6.72,1.57-1.65.62-4.26,3.89-9.35,3.3-4.89-.57-6.18-4.25-7.35-4.95Z"/>
          <path class="cls-18" d="m115.49,26.58c-1.41-.85-4.69-.91-6.51-2.26-2.12-1.57-2.43-4.19-4.47-5.89-2.76-2.31-11.14-4.63-10.09-12.3.82-6.01,20.26-3.33,26.37-3.28,4.73.04,40.37,4.05,42.41,5.91,3.63,3.32,1.07,13.43-4.99,13.96-3.29.29-5.46-2.71-8.07-2.18-2.87.58-6-.47-7.22.94-.97,1.11-2.06,3.64-4.29,5.21-2.43,1.72-5.47,1.07-6.72,1.54-1.61.6-4.07,3.87-9.16,3.31-4.89-.54-6.07-4.24-7.26-4.95Z"/>
          <path class="cls-33" d="m115.71,26.32c-1.4-.85-4.67-.85-6.47-2.18-2.14-1.58-2.35-4.12-4.41-5.83-2.72-2.26-11.2-4.59-10.13-12.19.83-5.83,20.15-3.1,26.35-3.08,4.72.01,40.13,4.01,42.12,5.81,3.45,3.13,1.07,13.18-5.02,13.7-3.26.27-5.39-2.87-8.05-2.27-2.87.65-6.11-.47-7.31.91-.94,1.08-2.01,3.69-4.23,5.26-2.42,1.73-5.5,1.05-6.71,1.5-1.58.58-3.87,3.84-8.97,3.32-4.89-.51-5.97-4.22-7.16-4.94Z"/>
          <path class="cls-32" d="m115.92,26.05c-1.39-.85-4.64-.78-6.44-2.11-2.17-1.59-2.28-4.06-4.35-5.77-2.68-2.21-11.27-4.56-10.17-12.08.83-5.65,20.04-2.86,26.33-2.88,4.71-.02,39.88,3.96,41.83,5.71,3.27,2.94,1.07,12.94-5.05,13.44-3.22.26-5.33-3.04-8.03-2.36-2.88.73-6.21-.47-7.39.88-.92,1.05-1.97,3.74-4.17,5.31-2.42,1.74-5.52,1.02-6.71,1.46-1.54.57-3.68,3.82-8.78,3.32-4.89-.48-5.87-4.21-7.06-4.94Z"/>
          <path class="cls-24" d="m116.13,25.79c-1.38-.86-4.61-.71-6.41-2.03-2.19-1.6-2.2-4-4.29-5.7-2.65-2.16-11.34-4.52-10.2-11.96.83-5.46,19.93-2.61,26.31-2.68,4.7-.05,39.64,3.92,41.53,5.61,3.08,2.75,1.07,12.69-5.08,13.17-3.18.25-5.27-3.21-8.01-2.44-2.88.8-6.32-.48-7.48.86-.89,1.02-1.92,3.79-4.11,5.37-2.41,1.76-5.55,1-6.7,1.42-1.51.55-3.49,3.79-8.59,3.33-4.88-.45-5.77-4.19-6.96-4.94Z"/>
          <path class="cls-38" d="m116.34,25.52c-1.38-.86-4.59-.65-6.38-1.96-2.21-1.62-2.12-3.93-4.23-5.64-2.61-2.11-11.4-4.49-10.24-11.85.83-5.28,19.82-2.37,26.29-2.48,4.68-.08,39.39,3.88,41.24,5.51,2.9,2.56,1.08,12.45-5.11,12.91-3.14.24-5.2-3.38-7.99-2.53s-6.43-.48-7.56.83c-.87,1-1.87,3.84-4.05,5.42-2.41,1.77-5.57.97-6.7,1.38-1.47.53-3.29,3.76-8.4,3.34-4.88-.42-5.66-4.18-6.87-4.93Z"/>
          <path class="cls-3" d="m116.56,25.26c-1.37-.87-4.56-.58-6.35-1.88-2.23-1.63-2.05-3.87-4.17-5.57-2.57-2.07-11.47-4.45-10.28-11.74.83-5.1,19.71-2.13,26.27-2.28,4.67-.11,39.14,3.84,40.94,5.41,2.71,2.37,1.08,12.2-5.14,12.65-3.1.23-5.14-3.55-7.97-2.62s-6.53-.48-7.64.8c-.84.97-1.82,3.88-3.99,5.47-2.41,1.78-5.59.95-6.7,1.34-1.44.51-3.1,3.74-8.21,3.34-4.88-.38-5.56-4.16-6.77-4.93Z"/>
          <path class="cls-11" d="m116.77,24.99c-1.36-.87-4.53-.51-6.32-1.8-2.26-1.64-1.97-3.81-4.1-5.51-2.53-2.02-11.54-4.42-10.32-11.63.83-4.91,19.6-1.89,26.25-2.08,4.66-.13,38.9,3.79,40.65,5.31,2.53,2.18,1.08,11.95-5.17,12.39-3.07.21-5.08-3.72-7.95-2.7s-6.64-.48-7.73.77c-.81.94-1.78,3.93-3.93,5.53-2.4,1.79-5.62.92-6.69,1.3-1.4.5-2.91,3.71-8.02,3.35-4.87-.35-5.46-4.15-6.67-4.93Z"/>
          <path class="cls-14" d="m116.98,24.73c-1.35-.87-4.51-.44-6.28-1.73-2.28-1.64-1.89-3.74-4.04-5.44-2.5-1.97-11.61-4.38-10.35-11.52.83-4.73,19.49-1.64,26.23-1.88,4.65-.16,38.65,3.75,40.36,5.21,2.34,1.99,1.08,11.71-5.2,12.13-3.03.2-5.01-3.89-7.94-2.79s-6.75-.48-7.81.75c-.79.91-1.73,3.98-3.87,5.58-2.4,1.81-5.64.9-6.69,1.26-1.37.48-2.72,3.69-7.83,3.36-4.87-.32-5.36-4.13-6.58-4.92Z"/>
          <path class="cls-35" d="m117.2,24.47c-1.35-.88-4.48-.37-6.25-1.65-2.31-1.66-1.82-3.68-3.98-5.38-2.46-1.93-11.68-4.35-10.39-11.4.83-4.55,19.38-1.4,26.21-1.68,4.64-.19,38.4,3.71,40.06,5.1,2.15,1.81,1.08,11.46-5.23,11.87-2.99.19-4.95-4.06-7.92-2.88s-6.85-.49-7.9.72c-.76.88-1.68,4.03-3.81,5.63-2.39,1.82-5.67.87-6.68,1.22-1.34.46-2.52,3.66-7.64,3.36-4.87-.29-5.25-4.12-6.48-4.92Z"/>
          <path class="cls-4" d="m117.41,24.2c-1.34-.88-4.46-.31-6.22-1.58-2.33-1.67-1.74-3.62-3.92-5.31-2.42-1.88-11.76-4.31-10.43-11.29.83-4.37,19.27-1.15,26.19-1.48,4.63-.22,38.15,3.67,39.77,5,1.97,1.62,1.08,11.22-5.25,11.61-2.95.18-4.89-4.23-7.9-2.96s-6.96-.49-7.98.69c-.73.85-1.63,4.07-3.75,5.69-2.39,1.83-5.69.85-6.68,1.18-1.3.44-2.33,3.63-7.45,3.37-4.86-.26-5.15-4.1-6.38-4.92Z"/>
          <path class="cls-23" d="m117.62,23.94c-1.33-.89-4.43-.24-6.19-1.5-2.35-1.68-1.66-3.56-3.86-5.25-2.38-1.83-11.83-4.28-10.47-11.18.83-4.18,19.16-.91,26.17-1.28,4.62-.24,37.9,3.63,39.47,4.9,1.78,1.44,1.08,10.98-5.28,11.35-2.92.17-4.83-4.4-7.88-3.05s-7.07-.49-8.06.67c-.71.82-1.58,4.12-3.69,5.74-2.39,1.84-5.72.82-6.67,1.14-1.27.42-2.14,3.61-7.26,3.37-4.86-.23-5.05-4.09-6.29-4.91Z"/>
          <path class="cls-9" d="m117.83,23.67c-1.32-.89-4.4-.17-6.16-1.43-2.37-1.69-1.58-3.5-3.8-5.19-2.35-1.79-11.91-4.25-10.5-11.07.83-4,19.05-.66,26.16-1.08,4.6-.27,37.65,3.59,39.18,4.8s1.09,10.73-5.31,11.08c-2.88.16-4.77-4.58-7.86-3.14s-7.17-.49-8.15.64c-.68.79-1.54,4.17-3.63,5.79-2.38,1.85-5.74.8-6.67,1.11-1.23.41-1.94,3.58-7.07,3.38-4.86-.19-4.95-4.07-6.19-4.91Z"/>
          <path class="cls-31" d="m118.05,23.41c-1.32-.89-4.38-.11-6.13-1.35-2.4-1.7-1.51-3.44-3.74-5.12s-11.99-4.21-10.54-10.95c.82-3.82,18.94-.41,26.14-.88,4.59-.3,37.4,3.56,38.89,4.7,1.4,1.08,1.09,10.5-5.34,10.82-2.84.15-4.72-4.75-7.84-3.23s-7.28-.49-8.23.61c-.66.76-1.49,4.22-3.57,5.85-2.38,1.87-5.76.77-6.66,1.07-1.2.39-1.75,3.56-6.88,3.39-4.85-.16-4.85-4.06-6.09-4.91Z"/>
          <path class="cls-37" d="m118.26,23.14c-1.31-.89-4.35-.04-6.09-1.27-2.42-1.71-1.43-3.38-3.68-5.06-2.27-1.7-12.07-4.18-10.58-10.84.82-3.64,18.83-.16,26.12-.68,4.58-.32,37.15,3.52,38.59,4.6,1.2.9,1.09,10.25-5.37,10.56-2.8.14-4.66-4.93-7.82-3.31-2.98,1.52-7.39-.5-8.31.58-.63.73-1.44,4.27-3.51,5.9-2.37,1.88-5.79.75-6.66,1.03-1.16.37-1.56,3.53-6.69,3.39-4.85-.13-4.74-4.04-6-4.9Z"/>
          <path class="cls-8" d="m118.47,22.88c-1.3-.9-4.32.03-6.06-1.2-2.44-1.72-1.35-3.31-3.62-4.99-2.23-1.65-12.16-4.15-10.62-10.73.81-3.46,18.72.08,26.1-.48,4.57-.35,36.89,3.5,38.3,4.5,1.01.72,1.09,10-5.4,10.3-2.76.13-4.6-5.1-7.8-3.4-3,1.59-7.49-.5-8.4.56-.6.7-1.39,4.31-3.45,5.95-2.37,1.89-5.81.72-6.65.99-1.13.35-1.37,3.51-6.5,3.4-4.85-.1-4.64-4.03-5.9-4.9Z"/>
        </g>
        <g>
          <path class="cls-19" d="m126.32,18.34c0-4.69,3.81-8.5,8.5-8.5s8.5,3.81,8.5,8.5-3.81,8.5-8.5,8.5-8.5-3.81-8.5-8.5Z"/>
          <path class="cls-19" d="m87.72.26c0-4.69,3.8-8.5,8.5-8.5s8.5,3.81,8.5,8.5-3.81,8.5-8.5,8.5-8.5-3.81-8.5-8.5Z"/>
          <path class="cls-19" d="m133.99,7.55c0-6.77,5.49-12.25,12.25-12.25s12.25,5.49,12.25,12.25-5.49,12.25-12.25,12.25-12.25-5.49-12.25-12.25Z"/>
          <circle class="cls-19" cx="106.91" cy="7.35" r="11.58" transform="translate(26.12 77.75) rotate(-45)"/>
          <path class="cls-19" d="m109.15,18.62c0-3.38,2.74-6.13,6.13-6.13s6.13,2.74,6.13,6.13-2.74,6.13-6.13,6.13-6.13-2.74-6.13-6.13Z"/>
          <path class="cls-19" d="m151.45,16.37c0-3.38,2.74-6.13,6.13-6.13s6.13,2.74,6.13,6.13-2.74,6.13-6.13,6.13-6.13-2.74-6.13-6.13Z"/>
          <path class="cls-19" d="m151.88,3.72c0-3.38,2.74-6.13,6.13-6.13s6.13,2.74,6.13,6.13-2.74,6.13-6.13,6.13-6.13-2.74-6.13-6.13Z"/>
          <path class="cls-19" d="m117.89,24.44c0-3.99,3.24-7.23,7.23-7.23s7.23,3.24,7.23,7.23-3.24,7.23-7.23,7.23-7.23-3.24-7.23-7.23Z"/>
          <polygon class="cls-19" points="104.71 -4.56 141.81 -4.56 141.81 15.34 124.51 22.48 104.71 15.34 104.71 -4.56"/>
        </g>
        <g>
          <circle class="cls-28" cx="134.62" cy="18.14" r="8.5"/>
          <path class="cls-28" d="m87.52.06c0-4.69,3.8-8.5,8.5-8.5s8.5,3.81,8.5,8.5-3.81,8.5-8.5,8.5-8.5-3.81-8.5-8.5Z"/>
          <path class="cls-28" d="m133.79,7.35c0-6.77,5.49-12.25,12.25-12.25s12.25,5.49,12.25,12.25-5.49,12.25-12.25,12.25-12.25-5.49-12.25-12.25Z"/>
          <circle class="cls-28" cx="106.71" cy="7.15" r="11.58" transform="translate(26.2 77.55) rotate(-45)"/>
          <circle class="cls-28" cx="115.07" cy="18.42" r="6.13"/>
          <path class="cls-28" d="m151.25,16.17c0-3.38,2.74-6.13,6.13-6.13s6.13,2.74,6.13,6.13-2.74,6.13-6.13,6.13-6.13-2.74-6.13-6.13Z"/>
          <path class="cls-28" d="m151.68,3.52c0-3.38,2.74-6.13,6.13-6.13s6.13,2.74,6.13,6.13-2.74,6.13-6.13,6.13-6.13-2.74-6.13-6.13Z"/>
          <path class="cls-28" d="m117.69,24.24c0-3.99,3.24-7.23,7.23-7.23s7.23,3.24,7.23,7.23-3.24,7.23-7.23,7.23-7.23-3.24-7.23-7.23Z"/>
          <polygon class="cls-28" points="104.51 -4.76 141.61 -4.76 141.61 15.14 124.31 22.28 104.51 15.14 104.51 -4.76"/>
        </g>
        <g class="cls-40">
          <path class="cls-6" d="m79.85,27.93c2.83-1.95,3.62-3.61,5.59-4.64,2.96-1.55,4.3-2.58,6.47-4.61,4.03-3.78,1.85-9.94-.94-16.97-2.68-6.75-17.19-4.63-22.36-3.56C63.02-.69,10.85,5.56,6.49,7.44c-3.57,1.53.58,28.14,11.28,30.06,6.45,1.16,8.11-1.41,9.91-1.96,1.39-.42,3.69-.17,5.62-.78,1.39-.44,3.77-1.29,5.77-1.18,1.28.06,3.58.62,5.91.64,1.52.01,4.41-.66,6.09-.54,2.6.2,5.38,2.79,10.72,1.92,5.12-.83,7.68-3.02,10.28-4.32,2.61-1.31,5.05-1.46,7.77-3.35Z"/>
          <path class="cls-20" d="m79.73,27.76c2.81-1.93,3.56-3.62,5.54-4.65,2.94-1.54,4.3-2.5,6.48-4.54,3.98-3.73,1.86-9.86-.95-16.73-2.7-6.6-16.84-4.58-22.11-3.53C63.11-.57,11.15,5.63,6.88,7.48c-3.47,1.5.35,27.9,10.99,29.79,6.35,1.13,7.99-1.45,9.81-2,1.39-.42,3.65-.15,5.63-.77,1.45-.45,3.79-1.33,5.81-1.24,1.3.06,3.56.65,5.91.67,1.58,0,4.42-.7,6.12-.57,2.58.2,5.27,2.82,10.64,1.99,5.11-.8,7.66-3.04,10.24-4.32,2.58-1.29,5.01-1.42,7.7-3.27Z"/>
          <path class="cls-34" d="m79.61,27.59c2.79-1.9,3.5-3.62,5.49-4.66,2.92-1.53,4.29-2.42,6.48-4.46,3.94-3.68,1.88-9.78-.96-16.49-2.72-6.45-16.5-4.53-21.86-3.5S11.46,5.7,7.27,7.53c-3.37,1.47.12,27.66,10.69,29.51,6.25,1.1,7.87-1.5,9.7-2.04,1.4-.41,3.61-.14,5.64-.76,1.5-.45,3.81-1.38,5.85-1.29,1.32.05,3.55.69,5.9.7,1.65,0,4.43-.74,6.16-.6,2.56.21,5.17,2.85,10.56,2.06,5.11-.76,7.63-3.06,10.2-4.32,2.55-1.26,4.97-1.38,7.63-3.19Z"/>
          <path class="cls-7" d="m79.49,27.43c2.77-1.87,3.45-3.62,5.44-4.67,2.9-1.52,4.29-2.34,6.49-4.39,3.89-3.63,1.89-9.69-.96-16.25-2.74-6.3-16.15-4.48-21.61-3.48S11.76,5.78,7.65,7.58c-3.27,1.43-.11,27.41,10.4,29.23,6.14,1.08,7.75-1.55,9.6-2.08,1.4-.41,3.56-.12,5.65-.74,1.55-.46,3.83-1.42,5.9-1.35,1.35.05,3.53.73,5.9.74,1.72,0,4.43-.78,6.2-.63,2.54.22,5.06,2.88,10.49,2.13,5.1-.71,7.61-3.07,10.16-4.32,2.53-1.24,4.93-1.34,7.56-3.12Z"/>
          <path class="cls-12" d="m79.37,27.26c2.75-1.85,3.39-3.63,5.39-4.68,2.88-1.52,4.28-2.26,6.5-4.31,3.84-3.58,1.91-9.61-.97-16.01-2.76-6.14-15.81-4.43-21.37-3.45S12.06,5.85,8.04,7.62c-3.17,1.4-.34,27.17,10.1,28.95,6.04,1.05,7.63-1.6,9.49-2.12,1.41-.4,3.52-.11,5.66-.73,1.6-.46,3.86-1.47,5.94-1.4,1.37.04,3.51.76,5.9.77,1.78,0,4.44-.82,6.23-.66,2.53.22,4.95,2.91,10.41,2.19,5.1-.67,7.58-3.09,10.12-4.32,2.5-1.22,4.9-1.29,7.48-3.04Z"/>
          <path class="cls-41" d="m79.25,27.09c2.73-1.82,3.33-3.63,5.34-4.69,2.86-1.51,4.28-2.18,6.5-4.24,3.79-3.52,1.92-9.53-.97-15.77-2.78-5.99-15.46-4.38-21.12-3.42S12.36,5.92,8.42,7.67c-3.07,1.37-.57,26.93,9.8,28.68,5.94,1.02,7.51-1.64,9.39-2.17,1.42-.4,3.48-.09,5.67-.72,1.65-.47,3.88-1.52,5.98-1.46,1.39.03,3.5.8,5.89.81,1.85,0,4.45-.85,6.27-.69,2.51.22,4.84,2.94,10.33,2.26,5.09-.63,7.56-3.11,10.08-4.32,2.47-1.2,4.86-1.25,7.41-2.96Z"/>
          <path class="cls-25" d="m79.13,26.92c2.71-1.8,3.27-3.63,5.29-4.7,2.84-1.5,4.27-2.1,6.51-4.16,3.74-3.47,1.93-9.45-.98-15.53-2.79-5.84-15.12-4.32-20.87-3.4S12.66,5.99,8.81,7.72c-2.97,1.33-.79,26.66,9.51,28.4,5.84.98,7.39-1.69,9.28-2.21,1.42-.39,3.44-.08,5.68-.71,1.7-.48,3.9-1.56,6.02-1.51,1.41.03,3.48.84,5.89.84,1.92,0,4.46-.89,6.3-.72,2.49.23,4.73,2.97,10.25,2.33,5.08-.59,7.54-3.12,10.04-4.32,2.44-1.18,4.82-1.21,7.34-2.89Z"/>
          <path class="cls-36" d="m79.01,26.75c2.69-1.77,3.22-3.64,5.24-4.71,2.82-1.49,4.27-2.02,6.52-4.09,3.69-3.42,1.95-9.37-.99-15.29-2.81-5.69-14.77-4.27-20.62-3.37C63.67.15,12.97,6.06,9.2,7.76c-2.87,1.3-1.02,26.42,9.21,28.12,5.74.95,7.27-1.74,9.18-2.25,1.43-.39,3.4-.07,5.68-.69,1.76-.48,3.92-1.61,6.07-1.57,1.43.02,3.46.88,5.89.87,1.98,0,4.46-.93,6.34-.75,2.47.23,4.63,3,10.17,2.39,5.08-.55,7.51-3.14,10-4.32,2.41-1.16,4.78-1.17,7.26-2.81Z"/>
          <path class="cls-17" d="m78.88,26.58c2.67-1.74,3.16-3.64,5.19-4.72,2.8-1.48,4.27-1.93,6.52-4.01,3.65-3.36,1.96-9.28-.99-15.05-2.83-5.53-14.42-4.21-20.38-3.34C63.76.27,13.27,6.13,9.58,7.81c-2.77,1.26-1.25,26.17,8.92,27.84,5.63.93,7.15-1.78,9.08-2.29,1.43-.38,3.35-.05,5.69-.68,1.81-.49,3.94-1.65,6.11-1.62,1.46.02,3.45.91,5.88.91,2.05,0,4.47-.97,6.38-.78,2.45.24,4.52,3.03,10.1,2.46,5.07-.52,7.49-3.15,9.96-4.32,2.38-1.14,4.74-1.13,7.19-2.73Z"/>
          <path class="cls-2" d="m78.76,26.41c2.65-1.72,3.1-3.64,5.14-4.73,2.78-1.47,4.26-1.85,6.53-3.93,3.6-3.31,1.97-9.2-1-14.8-2.85-5.38-14.08-4.16-20.13-3.31C63.86.39,13.57,6.2,9.97,7.85c-2.67,1.23-1.48,25.93,8.62,27.57,5.53.9,7.03-1.83,8.97-2.33,1.44-.38,3.31-.04,5.7-.67,1.86-.49,3.97-1.7,6.15-1.68,1.48.01,3.43.95,5.88.94,2.11,0,4.48-1.01,6.41-.82,2.43.24,4.41,3.06,10.02,2.53,5.06-.48,7.46-3.17,9.92-4.32,2.35-1.12,4.7-1.09,7.12-2.66Z"/>
          <path class="cls-1" d="m78.64,26.24c2.64-1.69,3.04-3.65,5.09-4.74,2.76-1.46,4.26-1.77,6.54-3.86,3.55-3.26,1.99-9.12-1-14.56-2.87-5.23-13.73-4.1-19.88-3.29C63.95.52,13.87,6.27,10.36,7.9c-2.57,1.19-1.71,25.68,8.33,27.29,5.43.87,6.91-1.88,8.87-2.38,1.44-.37,3.27-.02,5.71-.66,1.91-.5,3.99-1.74,6.2-1.73,1.5,0,3.41.99,5.88.98,2.18,0,4.49-1.05,6.45-.85,2.41.25,4.3,3.08,9.94,2.59,5.06-.44,7.44-3.19,9.88-4.32,2.32-1.09,4.66-1.05,7.04-2.58Z"/>
          <path class="cls-16" d="m78.52,26.07c2.62-1.66,2.99-3.65,5.04-4.74,2.74-1.45,4.26-1.69,6.54-3.78,3.51-3.2,2-9.04-1.01-14.32C86.21-1.86,75.71-.83,69.47-.04c-5.42.68-55.3,6.38-58.72,7.99-2.48,1.16-1.94,25.44,8.03,27.01,5.32.84,6.79-1.92,8.76-2.42,1.45-.37,3.23,0,5.72-.65,1.96-.5,4.01-1.79,6.24-1.79,1.52,0,3.4,1.02,5.87,1.01,2.25-.01,4.49-1.08,6.48-.88,2.39.25,4.19,3.11,9.86,2.66,5.05-.4,7.42-3.2,9.84-4.32,2.29-1.07,4.62-1.01,6.97-2.5Z"/>
          <path class="cls-22" d="m78.4,25.9c2.6-1.64,2.93-3.65,4.99-4.75,2.72-1.45,4.25-1.61,6.55-3.71,3.46-3.15,2.02-8.96-1.02-14.08-2.91-4.92-13.04-3.99-19.38-3.23-5.41.64-55.07,6.29-58.42,7.87-2.38,1.12-2.17,25.19,7.74,26.73,5.22.81,6.67-1.97,8.66-2.46,1.46-.36,3.19,0,5.73-.63,2.01-.51,4.03-1.84,6.28-1.84,1.55,0,3.38,1.06,5.87,1.04,2.31-.01,4.5-1.12,6.52-.91,2.38.25,4.08,3.14,9.78,2.73,5.04-.36,7.39-3.21,9.8-4.32,2.26-1.05,4.58-.97,6.9-2.42Z"/>
          <path class="cls-10" d="m78.28,25.73c2.58-1.61,2.87-3.66,4.94-4.76,2.7-1.44,4.25-1.53,6.56-3.63,3.41-3.1,2.03-8.87-1.02-13.84-2.92-4.77-12.69-3.93-19.14-3.21-5.39.61-54.85,6.2-58.11,7.75-2.28,1.09-2.4,24.95,7.44,26.45,5.12.78,6.55-2.01,8.55-2.5,1.46-.36,3.15.02,5.74-.62,2.07-.51,4.06-1.88,6.32-1.9,1.57-.01,3.36,1.1,5.87,1.08s4.51-1.16,6.56-.94c2.36.26,3.98,3.16,9.7,2.8,5.04-.32,7.37-3.23,9.76-4.32,2.24-1.03,4.55-.92,6.83-2.35Z"/>
          <path class="cls-30" d="m78.16,25.56c2.56-1.58,2.81-3.66,4.89-4.77,2.68-1.43,4.24-1.45,6.56-3.56,3.36-3.05,2.04-8.79-1.03-13.6-2.94-4.62-12.34-3.87-18.89-3.18-5.38.57-54.63,6.1-57.8,7.64-2.18,1.05-2.63,24.7,7.15,26.18,5.02.76,6.43-2.06,8.45-2.54,1.47-.35,3.11.04,5.75-.61,2.12-.52,4.08-1.93,6.37-1.95,1.59-.02,3.35,1.13,5.86,1.11s4.52-1.2,6.59-.97c2.34.26,3.87,3.19,9.63,2.86,5.03-.29,7.35-3.24,9.72-4.32,2.21-1,4.51-.88,6.75-2.27Z"/>
          <path class="cls-13" d="m78.04,25.4c2.54-1.56,2.76-3.66,4.84-4.78,2.66-1.42,4.24-1.37,6.57-3.48,3.31-3,2.06-8.71-1.04-13.36C85.46-.7,76.43-.04,69.78.62c-5.36.53-54.4,6.01-57.49,7.52-2.08,1.02-2.86,24.46,6.85,25.9,4.91.73,6.31-2.11,8.35-2.59,1.47-.35,3.06.05,5.76-.6,2.17-.52,4.1-1.98,6.41-2.01,1.61-.02,3.33,1.17,5.86,1.15s4.53-1.24,6.63-1c2.32.26,3.76,3.22,9.55,2.93,5.02-.25,7.32-3.26,9.68-4.32,2.18-.98,4.47-.84,6.68-2.19Z"/>
          <path class="cls-29" d="m77.92,25.23c2.52-1.53,2.7-3.67,4.8-4.79,2.64-1.41,4.23-1.29,6.58-3.41,3.26-2.94,2.07-8.63-1.04-13.12-2.98-4.31-11.65-3.75-18.39-3.12-5.34.5-54.18,5.91-57.18,7.4-1.98.98-3.09,24.22,6.55,25.62,4.81.7,6.19-2.15,8.24-2.63,1.48-.34,3.02.07,5.77-.58,2.22-.53,4.12-2.02,6.45-2.06,1.64-.03,3.31,1.2,5.86,1.18s4.53-1.28,6.66-1.03c2.3.27,3.65,3.24,9.47,3,5.02-.21,7.3-3.28,9.64-4.32,2.15-.96,4.43-.8,6.61-2.12Z"/>
          <path class="cls-18" d="m77.8,25.06c2.5-1.5,2.64-3.67,4.75-4.8,2.62-1.4,4.23-1.21,6.58-3.33,3.21-2.89,2.09-8.55-1.05-12.88C85.09-.12,76.78.35,69.94.94c-5.33.46-53.96,5.82-56.88,7.28-1.88.94-3.32,23.97,6.26,25.34,4.71.67,6.07-2.2,8.14-2.67,1.48-.34,2.98.08,5.77-.57,2.27-.53,4.15-2.07,6.5-2.12,1.66-.04,3.3,1.24,5.85,1.21s4.54-1.32,6.7-1.06c2.28.27,3.54,3.27,9.39,3.06,5.01-.18,7.27-3.29,9.6-4.32,2.12-.94,4.39-.76,6.53-2.04Z"/>
          <path class="cls-33" d="m77.68,24.89c2.49-1.48,2.58-3.67,4.7-4.81,2.6-1.39,4.22-1.14,6.59-3.26,3.17-2.84,2.1-8.46-1.05-12.64-3.02-4.01-10.95-3.63-17.9-3.07-5.31.43-53.74,5.72-56.57,7.17-1.78.91-3.55,23.73,5.96,25.07,4.6.65,5.94-2.25,8.03-2.71,1.49-.34,2.94.1,5.78-.56,2.33-.54,4.17-2.11,6.54-2.17,1.68-.04,3.28,1.28,5.85,1.25,2.71-.03,4.55-1.36,6.73-1.1s3.43,3.29,9.31,3.13c5-.14,7.25-3.31,9.56-4.32,2.09-.92,4.35-.71,6.46-1.96Z"/>
          <path class="cls-32" d="m77.56,24.72c2.47-1.45,2.53-3.68,4.65-4.82,2.58-1.38,4.22-1.06,6.6-3.18,3.12-2.79,2.11-8.38-1.06-12.4-3.03-3.85-10.61-3.56-17.65-3.04-5.29.39-53.51,5.63-56.26,7.05-1.69.87-3.78,23.49,5.67,24.79,4.5.62,5.82-2.3,7.93-2.75,1.5-.33,2.9.12,5.79-.55,2.38-.54,4.19-2.16,6.58-2.23,1.7-.05,3.26,1.31,5.84,1.28,2.78-.04,4.56-1.4,6.77-1.13s3.32,3.32,9.24,3.2c5-.1,7.23-3.33,9.52-4.32,2.06-.9,4.32-.67,6.39-1.89Z"/>
          <path class="cls-24" d="m77.44,24.55c2.45-1.42,2.47-3.68,4.6-4.83,2.56-1.38,4.22-.98,6.6-3.11,3.07-2.74,2.13-8.3-1.07-12.16-3.05-3.7-10.26-3.5-17.4-3.02-5.28.36-53.29,5.53-55.95,6.93-1.59.83-4.01,23.25,5.37,24.51,4.4.59,5.7-2.34,7.82-2.8,1.5-.33,2.86.13,5.8-.54,2.43-.54,4.21-2.21,6.62-2.28,1.73-.06,3.25,1.34,5.84,1.32,2.85-.04,4.56-1.44,6.81-1.16s3.22,3.34,9.16,3.26c4.99-.07,7.2-3.34,9.48-4.32,2.03-.88,4.28-.63,6.31-1.81Z"/>
          <path class="cls-38" d="m77.32,24.38c2.43-1.39,2.41-3.68,4.55-4.84,2.54-1.37,4.21-.9,6.61-3.03,3.02-2.69,2.14-8.22-1.07-11.92-3.07-3.55-9.91-3.44-17.15-2.99-5.26.32-53.07,5.44-55.64,6.81-1.49.8-4.24,23,5.08,24.23,4.29.57,5.58-2.39,7.72-2.84,1.51-.32,2.82.15,5.81-.52,2.48-.55,4.23-2.26,6.67-2.34,1.75-.06,3.23,1.38,5.84,1.35,2.91-.04,4.57-1.48,6.84-1.19s3.11,3.37,9.08,3.33c4.98-.03,7.18-3.36,9.44-4.32,2-.86,4.24-.59,6.24-1.73Z"/>
          <path class="cls-3" d="m77.2,24.21c2.41-1.37,2.35-3.69,4.5-4.85,2.52-1.36,4.21-.82,6.61-2.96,2.97-2.64,2.15-8.14-1.08-11.68-3.09-3.39-9.57-3.37-16.91-2.96-5.25.29-52.85,5.34-55.34,6.69-1.39.76-4.47,22.76,4.78,23.96,4.19.54,5.46-2.44,7.62-2.88,1.51-.32,2.77.16,5.82-.51,2.53-.55,4.26-2.31,6.71-2.39,1.77-.07,3.21,1.42,5.83,1.38,2.98-.05,4.58-1.52,6.88-1.22s3,3.39,9,3.4c4.97,0,7.15-3.37,9.4-4.32,1.97-.84,4.2-.54,6.17-1.66Z"/>
          <path class="cls-11" d="m77.08,24.04c2.39-1.34,2.29-3.69,4.45-4.86,2.5-1.35,4.2-.74,6.62-2.88,2.92-2.59,2.17-8.05-1.08-11.44-3.11-3.24-9.22-3.3-16.66-2.94-5.23.26-52.63,5.24-55.03,6.58-1.29.72-4.7,22.52,4.49,23.68,4.09.51,5.34-2.48,7.51-2.92,1.52-.31,2.73.18,5.83-.5,2.59-.56,4.28-2.35,6.75-2.45,1.79-.08,3.2,1.45,5.83,1.42,3.04-.05,4.59-1.56,6.91-1.25,2.17.28,2.89,3.42,8.92,3.46,4.97.04,7.13-3.39,9.36-4.32,1.94-.81,4.16-.5,6.1-1.58Z"/>
          <path class="cls-14" d="m76.96,23.87c2.38-1.31,2.24-3.69,4.4-4.87,2.48-1.34,4.2-.66,6.63-2.81,2.87-2.53,2.18-7.97-1.09-11.2-3.13-3.09-8.87-3.24-16.41-2.91-5.21.23-52.4,5.14-54.72,6.46-1.2.68-4.93,22.28,4.19,23.4,3.99.49,5.22-2.53,7.41-2.96,1.52-.31,2.69.19,5.84-.49,2.64-.56,4.3-2.4,6.8-2.5,1.82-.08,3.18,1.49,5.83,1.45,3.11-.05,4.6-1.6,6.95-1.28,2.15.29,2.78,3.44,8.85,3.53,4.96.07,7.11-3.41,9.32-4.32,1.91-.79,4.13-.46,6.02-1.5Z"/>
          <path class="cls-35" d="m76.84,23.7c2.36-1.28,2.18-3.7,4.35-4.88,2.45-1.33,4.19-.58,6.63-2.73,2.82-2.48,2.2-7.89-1.1-10.96-3.14-2.94-8.52-3.17-16.16-2.88-5.2.2-52.18,5.04-54.41,6.34-1.1.64-5.16,22.04,3.9,23.12,3.88.46,5.1-2.58,7.3-3.01,1.53-.3,2.65.21,5.85-.47,2.69-.57,4.32-2.44,6.84-2.56,1.84-.09,3.16,1.53,5.82,1.49,3.18-.05,4.6-1.64,6.99-1.31,2.13.29,2.67,3.47,8.77,3.6,4.95.11,7.08-3.42,9.28-4.33,1.88-.77,4.09-.41,5.95-1.43Z"/>
          <path class="cls-4" d="m76.72,23.53c2.34-1.25,2.12-3.7,4.3-4.88,2.43-1.32,4.18-.5,6.64-2.65,2.77-2.44,2.21-7.81-1.1-10.72-3.16-2.78-8.18-3.1-15.92-2.85-5.18.16-51.96,4.94-54.1,6.22-1,.6-5.39,21.8,3.6,22.85,3.78.44,4.98-2.62,7.2-3.05,1.53-.3,2.61.22,5.85-.46,2.74-.57,4.35-2.49,6.88-2.61,1.86-.09,3.15,1.56,5.82,1.52,3.24-.06,4.61-1.68,7.02-1.34,2.12.29,2.56,3.49,8.69,3.67,4.95.14,7.06-3.44,9.24-4.33,1.85-.76,4.05-.37,5.88-1.35Z"/>
          <path class="cls-23" d="m76.6,23.37c2.32-1.23,2.06-3.7,4.25-4.89,2.41-1.31,4.18-.43,6.65-2.58,2.72-2.39,2.22-7.73-1.11-10.48-3.18-2.63-7.83-3.03-15.67-2.83-5.17.13-51.75,4.84-53.8,6.11-.91.56-5.62,21.57,3.3,22.57,3.68.41,4.86-2.67,7.09-3.09,1.54-.29,2.57.24,5.86-.45,2.79-.58,4.37-2.54,6.93-2.67,1.88-.1,3.13,1.6,5.82,1.55,3.31-.06,4.62-1.72,7.06-1.38,2.1.29,2.46,3.51,8.61,3.73,4.94.18,7.03-3.46,9.2-4.33,1.82-.73,4.01-.33,5.8-1.27Z"/>
          <path class="cls-9" d="m76.48,23.2c2.31-1.2,2.01-3.71,4.2-4.9,2.39-1.31,4.17-.35,6.65-2.5,2.67-2.33,2.24-7.65-1.12-10.24-3.2-2.48-7.48-2.96-15.42-2.8-5.15.1-51.53,4.74-53.49,5.99-.81.52-5.85,21.33,3.01,22.29,3.57.39,4.74-2.72,6.99-3.13,1.55-.29,2.52.25,5.87-.44,2.84-.58,4.39-2.58,6.97-2.72,1.9-.11,3.11,1.63,5.81,1.59,3.38-.06,4.63-1.76,7.09-1.41,2.08.29,2.35,3.52,8.53,3.8,4.93.2,7.01-3.48,9.16-4.33,1.79-.71,3.98-.28,5.73-1.2Z"/>
          <path class="cls-31" d="m76.36,23.03c2.29-1.16,1.95-3.71,4.15-4.91,2.37-1.3,4.17-.27,6.66-2.43,2.62-2.28,2.25-7.56-1.12-10-3.22-2.33-7.14-2.89-15.17-2.77-5.13.07-51.31,4.63-53.18,5.87-.72.48-6.08,21.11,2.71,22.01,3.47.37,4.62-2.76,6.89-3.17,1.55-.28,2.48.27,5.88-.42,2.9-.59,4.41-2.63,7.01-2.78,1.93-.11,3.1,1.67,5.81,1.62,3.44-.07,4.63-1.8,7.13-1.44,2.06.29,2.24,3.55,8.45,3.87,4.93.24,6.98-3.49,9.12-4.33,1.76-.69,3.94-.24,5.66-1.12Z"/>
          <path class="cls-37" d="m76.24,22.86c2.27-1.14,1.89-3.71,4.1-4.92,2.35-1.29,4.16-.19,6.67-2.35,2.57-2.23,2.27-7.48-1.13-9.76-3.24-2.17-6.79-2.8-14.92-2.75-5.12.05-51.1,4.52-52.87,5.75-.62.43-6.31,20.86,2.42,21.74,3.37.34,4.5-2.81,6.78-3.21,1.56-.28,2.44.28,5.89-.41,2.95-.59,4.44-2.68,7.05-2.83,1.95-.12,3.08,1.71,5.81,1.66,3.51-.07,4.64-1.84,7.17-1.47,2.04.3,2.13,3.57,8.38,3.93,4.92.28,6.96-3.51,9.08-4.33,1.74-.67,3.9-.2,5.58-1.04Z"/>
          <path class="cls-8" d="m76.12,22.69c2.25-1.11,1.83-3.72,4.05-4.93,2.33-1.28,4.16-.11,6.67-2.28,2.52-2.18,2.28-7.4-1.13-9.52-3.25-2.02-6.44-2.74-14.68-2.72-5.1.01-50.89,4.4-52.56,5.64-.53.39-6.54,20.62,2.12,21.46,3.26.31,4.38-2.86,6.68-3.26,1.56-.27,2.4.3,5.9-.4,3-.6,4.46-2.72,7.1-2.89,1.97-.12,3.06,1.74,5.8,1.69,3.58-.07,4.65-1.88,7.2-1.5,2.02.3,2.02,3.6,8.3,4,4.92.31,6.94-3.53,9.04-4.33,1.71-.65,3.86-.15,5.51-.96Z"/>
        </g>
        <g>
          <circle class="cls-19" cx="61.5" cy="17.99" r="12.66"/>
          <circle class="cls-19" cx="18.56" cy="12.57" r="8.5"/>
          <path class="cls-19" d="m74.03,9.55c0-5.41,4.39-9.8,9.8-9.8s9.8,4.39,9.8,9.8-4.39,9.8-9.8,9.8-9.8-4.39-9.8-9.8Z"/>
          <path class="cls-19" d="m19.6,18.04c0-6.4,5.19-11.58,11.58-11.58s11.58,5.19,11.58,11.58-5.18,11.58-11.58,11.58-11.58-5.19-11.58-11.58Z"/>
          <path class="cls-19" d="m39.99,22.43c0-3.38,2.74-6.13,6.13-6.13s6.13,2.74,6.13,6.13-2.74,6.13-6.13,6.13-6.13-2.74-6.13-6.13Z"/>
          <path class="cls-19" d="m69.13,19.14c0-3.38,2.74-6.13,6.13-6.13s6.13,2.74,6.13,6.13-2.74,6.13-6.13,6.13-6.13-2.74-6.13-6.13Z"/>
          <path class="cls-19" d="m14.98,25.26c0-3.99,3.23-7.23,7.23-7.23s7.23,3.23,7.23,7.23-3.23,7.23-7.23,7.23-7.23-3.24-7.23-7.23Z"/>
          <polygon class="cls-19" points="16.69 -.75 81.38 -.75 81.38 15 51.22 20.66 16.69 15 16.69 -.75"/>
        </g>
        <g>
          <circle class="cls-28" cx="61.3" cy="17.79" r="12.66"/>
          <circle class="cls-28" cx="18.36" cy="12.37" r="8.5"/>
          <path class="cls-28" d="m73.83,9.35c0-5.41,4.39-9.8,9.8-9.8s9.8,4.39,9.8,9.8-4.39,9.8-9.8,9.8-9.8-4.39-9.8-9.8Z"/>
          <path class="cls-28" d="m19.4,17.84c0-6.4,5.18-11.58,11.58-11.58s11.58,5.19,11.58,11.58-5.18,11.58-11.58,11.58-11.58-5.19-11.58-11.58Z"/>
          <path class="cls-28" d="m39.79,22.23c0-3.38,2.74-6.13,6.13-6.13s6.13,2.74,6.13,6.13-2.74,6.13-6.13,6.13-6.13-2.74-6.13-6.13Z"/>
          <path class="cls-28" d="m68.93,18.94c0-3.38,2.74-6.13,6.13-6.13s6.13,2.74,6.13,6.13-2.74,6.13-6.13,6.13-6.13-2.74-6.13-6.13Z"/>
          <path class="cls-28" d="m14.78,25.06c0-3.99,3.24-7.23,7.23-7.23s7.23,3.24,7.23,7.23-3.23,7.23-7.23,7.23-7.23-3.24-7.23-7.23Z"/>
          <polygon class="cls-28" points="16.49 -.95 81.18 -.95 81.18 14.8 51.02 20.46 16.49 14.8 16.49 -.95"/>
        </g>
        <g class="cls-40">
          <path class="cls-6" d="m55.17,17.38c3.2-2.57,4.26-1.12,7.04-3.31,3.16-2.49,1.86-4.79,8.07-5.88,4.44-.78,5.09-12.11-3.67-13.94-7.24-1.51-40.37-.28-45.08,1.01C16.45-3.34-4.85.49-8.63,2.5c-3.09,1.64.86,33.61,9.1,35.58,6.02,1.44,10.42-1.66,12.2-2.01,1.74-.34,5.18-2.03,7.6-3.89,3.11-2.38,4.82-3.68,7.7-3.5,2.19.14,6.06-1.73,8.5-2.7,3.5-1.4,5.2-.3,10-2.5,3.5-1.6,5.46-3.5,8.7-6.1Z"/>
          <path class="cls-20" d="m55.01,17.1c3.17-2.54,4.26-1.11,7.04-3.25,3.17-2.44,1.89-4.77,8.04-5.83,4.45-.77,4.95-11.87-3.57-13.67-7.09-1.52-40.02-.1-44.83,1.18C16.62-3.13-4.69.57-8.39,2.56c-3.04,1.64.74,33.23,8.95,35.19,6.04,1.44,10.37-1.69,12.14-2.05,1.75-.36,5.09-1.99,7.51-3.8,3.09-2.32,4.8-3.66,7.68-3.56,2.19.08,5.95-1.8,8.46-2.8,3.48-1.39,5.21-.22,10-2.38,3.54-1.58,5.43-3.47,8.67-6.06Z"/>
          <path class="cls-34" d="m54.85,16.82c3.14-2.51,4.27-1.09,7.04-3.19,3.18-2.39,1.92-4.75,8.01-5.79,4.45-.75,4.8-11.61-3.46-13.4-6.94-1.5-39.67.09-44.58,1.35S-4.53.65-8.15,2.61c-2.99,1.63.62,32.85,8.8,34.8,6.06,1.45,10.32-1.71,12.07-2.08s5-1.95,7.41-3.71c3.07-2.25,4.78-3.64,7.67-3.62,2.18.02,5.83-1.87,8.42-2.9,3.46-1.38,5.22-.16,10-2.26,3.57-1.57,5.41-3.45,8.64-6.03Z"/>
          <path class="cls-7" d="m54.69,16.54c3.11-2.47,4.27-1.08,7.04-3.13,3.19-2.36,1.95-4.73,7.98-5.74,4.46-.73,4.66-11.36-3.36-13.13-6.79-1.5-39.32.27-44.33,1.51S-4.38.72-7.91,2.66c-2.95,1.62.49,32.46,8.65,34.41,6.08,1.45,10.26-1.74,12.01-2.12s4.92-1.9,7.32-3.61c3.06-2.18,4.76-3.62,7.65-3.67,2.18-.03,5.72-1.95,8.37-3,3.44-1.37,5.24-.08,9.99-2.14,3.61-1.56,5.39-3.43,8.61-5.99Z"/>
          <path class="cls-12" d="m54.53,16.26c3.08-2.44,4.27-1.07,7.04-3.07,3.2-2.31,1.97-4.72,7.95-5.7,4.47-.73,4.51-11.11-3.25-12.86-6.64-1.49-38.97.45-44.08,1.68S-4.22.79-7.67,2.72c-2.9,1.61.37,32.08,8.49,34.02,6.1,1.45,10.21-1.76,11.94-2.16s4.83-1.86,7.23-3.52c3.04-2.11,4.75-3.61,7.63-3.73,2.18-.09,5.6-2.02,8.33-3.09,3.42-1.36,5.25-.01,9.99-2.02,3.65-1.54,5.37-3.41,8.58-5.95Z"/>
          <path class="cls-41" d="m54.37,15.99c3.06-2.41,4.28-1.06,7.04-3.02,3.21-2.27,2-4.71,7.92-5.65,4.47-.72,4.37-10.86-3.15-12.59-6.49-1.49-38.62.64-43.83,1.84S-4.06.87-7.43,2.77c-2.85,1.61.25,31.7,8.34,33.63,6.12,1.46,10.16-1.79,11.88-2.2,1.81-.43,4.74-1.82,7.13-3.43,3.03-2.04,4.73-3.59,7.62-3.79,2.17-.15,5.49-2.09,8.29-3.19,3.39-1.35,5.27.06,9.99-1.89,3.68-1.53,5.35-3.39,8.56-5.91Z"/>
          <path class="cls-25" d="m54.21,15.71c3.03-2.38,4.28-1.04,7.04-2.96,3.22-2.22,2.03-4.69,7.89-5.61,4.48-.7,4.23-10.62-3.05-12.31-6.34-1.48-38.27.82-43.58,2.01S-3.9.95-7.2,2.83c-2.8,1.6.12,31.32,8.19,33.24,6.15,1.46,10.1-1.81,11.81-2.24,1.83-.45,4.65-1.77,7.04-3.33,3.01-1.97,4.71-3.57,7.6-3.85,2.17-.21,5.37-2.17,8.25-3.29,3.37-1.34,5.28.14,9.99-1.77,3.72-1.51,5.33-3.37,8.53-5.87Z"/>
          <path class="cls-36" d="m54.05,15.43c3-2.35,4.28-1.03,7.04-2.9,3.23-2.18,2.06-4.67,7.86-5.56,4.49-.69,4.08-10.37-2.94-12.04-6.19-1.48-37.92,1.01-43.33,2.18C17.63-1.81-3.74,1.02-6.96,2.88c-2.76,1.59,0,30.94,8.04,32.85,6.17,1.46,10.05-1.84,11.75-2.28,1.84-.47,4.57-1.73,6.95-3.24,2.99-1.9,4.69-3.55,7.59-3.91,2.17-.27,5.26-2.24,8.21-3.39,3.35-1.32,5.3.21,9.99-1.65,3.76-1.5,5.31-3.35,8.5-5.84Z"/>
          <path class="cls-17" d="m53.89,15.15c2.97-2.32,4.29-1.02,7.05-2.84,3.24-2.14,2.09-4.66,7.83-5.52,4.49-.67,3.94-10.12-2.84-11.77-6.04-1.47-37.57,1.2-43.08,2.34C17.81-1.59-3.58,1.1-6.72,2.93c-2.71,1.58-.12,30.56,7.89,32.46,6.19,1.47,9.99-1.87,11.68-2.31,1.86-.49,4.48-1.69,6.85-3.15,2.97-1.83,4.68-3.53,7.57-3.96,2.16-.32,5.14-2.31,8.16-3.49,3.33-1.31,5.31.29,9.99-1.53,3.8-1.48,5.28-3.33,8.47-5.8Z"/>
          <path class="cls-2" d="m53.73,14.87c2.94-2.29,4.29-1,7.05-2.78,3.25-2.09,2.12-4.64,7.8-5.47,4.5-.66,3.79-9.88-2.74-11.5-5.89-1.47-37.22,1.38-42.83,2.51C17.98-1.36-3.42,1.18-6.48,2.99c-2.66,1.58-.25,30.18,7.73,32.07,6.21,1.47,9.94-1.9,11.62-2.35,1.88-.51,4.39-1.64,6.76-3.05,2.96-1.76,4.66-3.51,7.55-4.02,2.16-.38,5.03-2.38,8.12-3.59,3.31-1.3,5.33.37,9.98-1.41,3.83-1.46,5.26-3.31,8.44-5.76Z"/>
          <path class="cls-1" d="m53.57,14.59c2.91-2.26,4.3-.99,7.05-2.72,3.26-2.05,2.15-4.62,7.77-5.43,4.51-.65,3.65-9.63-2.63-11.23-5.74-1.46-36.87,1.57-42.58,2.67C18.15-1.14-3.26,1.25-6.24,3.04c-2.61,1.57-.37,29.8,7.58,31.68,6.23,1.47,9.88-1.92,11.55-2.39,1.89-.53,4.3-1.6,6.66-2.96,2.94-1.69,4.64-3.49,7.54-4.08,2.16-.44,4.92-2.45,8.08-3.69s5.34.44,9.98-1.29c3.87-1.45,5.24-3.28,8.41-5.72Z"/>
          <path class="cls-16" d="m53.41,14.31c2.88-2.22,4.3-.98,7.05-2.66,3.27-2,2.18-4.6,7.74-5.38,4.51-.63,3.51-9.39-2.53-10.96-5.59-1.46-36.52,1.76-42.33,2.84C18.32-.92-3.1,1.33-6,3.1c-2.56,1.56-.49,29.42,7.43,31.29,6.26,1.48,9.83-1.95,11.49-2.43,1.91-.55,4.22-1.56,6.57-2.87,2.92-1.62,4.62-3.47,7.52-4.14,2.15-.5,4.8-2.52,8.04-3.79s5.36.52,9.98-1.17c3.91-1.43,5.22-3.26,8.38-5.69Z"/>
          <path class="cls-22" d="m53.26,14.04c2.85-2.19,4.31-.96,7.05-2.6,3.28-1.96,2.21-4.59,7.71-5.34,4.52-.62,3.36-9.14-2.43-10.69-5.44-1.45-36.17,1.95-42.08,3.01C18.49-.69-2.94,1.41-5.76,3.15c-2.52,1.56-.61,29.04,7.28,30.9,6.28,1.48,9.78-1.98,11.43-2.47,1.92-.57,4.13-1.51,6.48-2.77,2.9-1.56,4.61-3.45,7.51-4.2,2.15-.55,4.69-2.6,8-3.88s5.38.6,9.98-1.05c3.95-1.41,5.2-3.24,8.35-5.65Z"/>
          <path class="cls-10" d="m53.1,13.76c2.82-2.16,4.31-.95,7.05-2.54,3.3-1.91,2.24-4.57,7.68-5.29,4.53-.6,3.22-8.9-2.32-10.42S29.67-2.35,23.67-1.32C18.66-.46-2.78,1.48-5.52,3.2c-2.47,1.55-.74,28.65,7.13,30.51,6.3,1.48,9.72-2.01,11.36-2.51,1.94-.59,4.04-1.47,6.38-2.68,2.89-1.49,4.59-3.43,7.49-4.25,2.14-.61,4.57-2.67,7.95-3.98s5.39.68,9.98-.92c3.99-1.39,5.18-3.22,8.32-5.61Z"/>
          <path class="cls-30" d="m52.94,13.48c2.79-2.13,4.32-.94,7.05-2.48,3.31-1.87,2.26-4.55,7.64-5.25,4.53-.59,3.07-8.66-2.22-10.15S29.94-2.06,23.83-1.06C18.83-.24-2.62,1.56-5.28,3.26c-2.42,1.54-.86,28.27,6.98,30.12,6.32,1.49,9.67-2.03,11.3-2.54,1.95-.61,3.95-1.43,6.29-2.59,2.87-1.42,4.57-3.41,7.47-4.31,2.14-.67,4.46-2.74,7.91-4.08,3.21-1.24,5.41.76,9.97-.8,4.03-1.38,5.16-3.2,8.29-5.57Z"/>
          <path class="cls-13" d="m52.78,13.2c2.77-2.09,4.32-.92,7.05-2.42,3.32-1.82,2.29-4.53,7.61-5.2,4.54-.57,2.93-8.42-2.12-9.88S30.21-1.77,23.99-.8C19,0-2.46,1.64-5.04,3.31c-2.37,1.54-.98,27.89,6.82,29.73,6.34,1.49,9.61-2.06,11.23-2.58,1.97-.63,3.86-1.38,6.2-2.49,2.85-1.35,4.55-3.39,7.46-4.37,2.14-.72,4.34-2.82,7.87-4.18,3.19-1.23,5.43.84,9.97-.68,4.06-1.36,5.14-3.17,8.27-5.54Z"/>
          <path class="cls-29" d="m52.62,12.92c2.74-2.06,4.33-.91,7.05-2.36,3.33-1.78,2.32-4.51,7.58-5.16,4.55-.56,2.79-8.18-2.01-9.61S30.47-1.49,24.16-.53C19.17.22-2.3,1.72-4.81,3.37c-2.32,1.53-1.11,27.51,6.67,29.34,6.36,1.49,9.56-2.09,11.17-2.62,1.98-.66,3.77-1.34,6.1-2.4,2.83-1.28,4.54-3.37,7.44-4.43,2.13-.78,4.23-2.89,7.83-4.28,3.16-1.22,5.44.92,9.97-.56,4.1-1.34,5.12-3.15,8.24-5.5Z"/>
          <path class="cls-18" d="m52.46,12.64c2.71-2.03,4.33-.89,7.05-2.3,3.34-1.73,2.35-4.49,7.55-5.11,4.55-.54,2.64-7.94-1.91-9.34S30.74-1.2,24.32-.27C19.35.45-2.14,1.8-4.57,3.42c-2.28,1.53-1.23,27.13,6.52,28.95,6.39,1.5,9.5-2.12,11.1-2.66,2-.68,3.68-1.3,6.01-2.31,2.81-1.22,4.52-3.35,7.43-4.49,2.13-.84,4.11-2.96,7.79-4.38,3.14-1.21,5.46,1,9.97-.44,4.14-1.32,5.1-3.13,8.21-5.46Z"/>
          <path class="cls-33" d="m52.3,12.36c2.68-2,4.34-.88,7.05-2.24,3.35-1.69,2.38-4.47,7.52-5.07,4.56-.53,2.5-7.7-1.81-9.07C60.52-5.45,31-.9,24.48,0,19.52.68-1.98,1.88-4.33,3.48s-1.35,26.75,6.37,28.56c6.41,1.5,9.45-2.15,11.04-2.7,2.01-.7,3.6-1.26,5.92-2.21,2.79-1.15,4.5-3.33,7.41-4.55,2.13-.89,4-3.04,7.74-4.48,3.12-1.2,5.48,1.08,9.97-.32,4.18-1.3,5.08-3.11,8.18-5.42Z"/>
          <path class="cls-32" d="m52.14,12.09c2.65-1.97,4.34-.86,7.05-2.18,3.37-1.64,2.41-4.45,7.49-5.02,4.57-.51,2.36-7.46-1.7-8.79C60.58-5.36,31.27-.61,24.65.26,19.69.91-1.82,1.95-4.09,3.53s-1.48,26.37,6.22,28.17c6.43,1.51,9.4-2.18,10.97-2.74,2.03-.72,3.51-1.22,5.82-2.12,2.78-1.08,4.48-3.3,7.39-4.6,2.12-.95,3.88-3.11,7.7-4.58,3.1-1.19,5.5,1.16,9.97-.2,4.22-1.28,5.06-3.09,8.15-5.39Z"/>
          <path class="cls-24" d="m51.98,11.81c2.62-1.94,4.35-.85,7.05-2.12,3.38-1.59,2.44-4.43,7.46-4.98,4.58-.49,2.21-7.23-1.6-8.52C60.64-5.26,31.53-.32,24.81.52,19.86,1.14-1.66,2.03-3.85,3.58s-1.6,25.99,6.06,27.78c6.45,1.51,9.34-2.2,10.91-2.77,2.04-.74,3.42-1.17,5.73-2.03,2.76-1.02,4.47-3.28,7.38-4.66,2.12-1,3.77-3.18,7.66-4.67,3.08-1.18,5.51,1.24,9.96-.08s5.03-3.07,8.12-5.35Z"/>
          <path class="cls-38" d="m51.82,11.53c2.59-1.91,4.36-.83,7.05-2.06,3.39-1.55,2.47-4.41,7.43-4.93,4.58-.48,2.07-6.99-1.49-8.25C60.71-5.17,31.8-.03,24.97.78,20.03,1.37-1.5,2.11-3.61,3.64s-1.72,25.61,5.91,27.39c6.47,1.51,9.29-2.23,10.84-2.81,2.06-.76,3.33-1.13,5.64-1.93,2.74-.95,4.45-3.26,7.36-4.72,2.12-1.06,3.65-3.27,7.62-4.77,3.06-1.17,5.53,1.32,9.96.05s5.01-3.05,8.09-5.31Z"/>
          <path class="cls-3" d="m51.66,11.25c2.56-1.88,4.36-.82,7.05-2,3.4-1.5,2.5-4.39,7.4-4.89,4.59-.46,1.93-6.76-1.39-7.98-3.95-1.45-32.66,3.89-39.58,4.66C20.2,1.6-1.34,2.19-3.37,3.69s-1.85,25.23,5.76,27c6.5,1.52,9.23-2.26,10.78-2.85,2.07-.79,3.24-1.09,5.54-1.84,2.72-.88,4.43-3.24,7.35-4.78,2.12-1.12,3.53-3.34,7.58-4.87,3.03-1.16,5.55,1.4,9.96.17s4.99-3.03,8.06-5.27Z"/>
          <path class="cls-11" d="m51.5,10.97c2.53-1.85,4.37-.8,7.05-1.94,3.42-1.45,2.53-4.37,7.37-4.84s1.79-6.53-1.29-7.71c-3.8-1.46-32.31,4.09-39.33,4.83C20.38,1.83-1.18,2.27-3.13,3.75s-1.97,24.84,5.61,26.61c6.52,1.52,9.18-2.29,10.72-2.89,2.09-.81,3.15-1.05,5.45-1.75,2.7-.82,4.42-3.22,7.33-4.84,2.11-1.17,3.42-3.41,7.53-4.97,3.01-1.15,5.57,1.49,9.96.29s4.97-3.01,8.03-5.23Z"/>
          <path class="cls-14" d="m51.34,10.69c2.5-1.82,4.37-.78,7.05-1.88,3.43-1.41,2.56-4.35,7.34-4.8s1.65-6.3-1.18-7.44c-3.65-1.47-31.95,4.29-39.08,5-4.92.49-26.48.78-28.36,2.23s-2.09,24.46,5.46,26.22c6.54,1.52,9.12-2.32,10.65-2.93,2.1-.83,3.06-1.01,5.35-1.65,2.68-.75,4.4-3.2,7.31-4.89,2.11-1.23,3.3-3.49,7.49-5.07,2.99-1.14,5.58,1.57,9.96.41s4.94-2.99,8.01-5.2Z"/>
          <path class="cls-35" d="m51.18,10.41c2.47-1.79,4.38-.77,7.05-1.82,3.44-1.36,2.59-4.33,7.31-4.75s1.51-6.08-1.08-7.17c-3.5-1.48-31.6,4.48-38.83,5.16C20.72,2.29-.86,2.43-2.65,3.85s-2.22,24.08,5.31,25.83c6.56,1.53,9.07-2.35,10.59-2.97,2.12-.86,2.97-.97,5.26-1.56,2.66-.69,4.38-3.17,7.3-4.95,2.11-1.28,3.19-3.56,7.45-5.17,2.97-1.13,5.6,1.65,9.95.53s4.92-2.97,7.98-5.16Z"/>
          <path class="cls-4" d="m51.02,10.14c2.45-1.76,4.39-.75,7.05-1.76,3.45-1.31,2.62-4.31,7.28-4.71s1.37-5.85-.98-6.9c-3.34-1.49-31.25,4.69-38.58,5.33-4.9.43-26.49.42-28.21,1.81-1.83,1.49-2.34,23.7,5.15,25.44,6.58,1.53,9.01-2.38,10.52-3,2.13-.88,2.88-.93,5.17-1.47,2.64-.62,4.37-3.15,7.28-5.01,2.1-1.34,3.07-3.63,7.41-5.27,2.95-1.12,5.62,1.74,9.95.65s4.9-2.95,7.95-5.12Z"/>
          <path class="cls-23" d="m50.86,9.86c2.42-1.73,4.39-.73,7.05-1.7,3.47-1.26,2.65-4.29,7.25-4.66s1.23-5.63-.87-6.63c-3.19-1.51-30.9,4.89-38.33,5.49-4.89.4-26.49.24-28.13,1.61-1.78,1.48-2.46,23.32,5,25.05,6.6,1.53,8.96-2.41,10.46-3.04,2.14-.9,2.79-.89,5.07-1.37,2.63-.56,4.35-3.13,7.27-5.07,2.1-1.39,2.96-3.71,7.37-5.37,2.93-1.11,5.64,1.82,9.95.77,4.54-1.1,4.88-2.93,7.92-5.08Z"/>
          <path class="cls-9" d="m50.7,9.58c2.39-1.69,4.4-.72,7.05-1.64,3.48-1.21,2.68-4.27,7.22-4.62s1.1-5.41-.77-6.36c-3.03-1.53-30.55,5.09-38.08,5.66-4.88.37-26.49.06-28.06,1.4-1.73,1.48-2.58,22.94,4.85,24.66,6.63,1.54,8.9-2.44,10.39-3.08,2.16-.93,2.7-.85,4.98-1.28,2.61-.49,4.34-3.1,7.25-5.13,2.1-1.45,2.84-3.78,7.33-5.46,2.91-1.1,5.66,1.9,9.95.89,4.58-1.08,4.86-2.91,7.89-5.05Z"/>
          <path class="cls-31" d="m50.54,9.3c2.36-1.66,4.4-.69,7.05-1.58,3.49-1.16,2.71-4.24,7.19-4.57,4.64-.33.96-5.2-.67-6.09-2.87-1.57-30.2,5.29-37.84,5.83-4.88.34-26.49-.13-27.98,1.19-1.68,1.48-2.71,22.56,4.7,24.27,6.65,1.54,8.85-2.47,10.33-3.12,2.17-.95,2.62-.81,4.89-1.19,2.59-.43,4.32-3.08,7.23-5.18,2.1-1.51,2.73-3.85,7.28-5.56,2.89-1.09,5.67,1.99,9.95,1.02,4.62-1.05,4.84-2.88,7.86-5.01Z"/>
          <path class="cls-37" d="m50.38,9.02c2.33-1.63,4.41-.68,7.05-1.52,3.51-1.11,2.74-4.22,7.16-4.53,4.65-.32.83-4.99-.56-5.82-2.69-1.61-29.84,5.51-37.59,5.99C21.58,3.47-.04,2.84-1.46,4.13c-1.63,1.48-2.83,22.18,4.55,23.88,6.67,1.54,8.79-2.5,10.26-3.16,2.18-.98,2.53-.78,4.79-1.09,2.57-.37,4.3-3.06,7.22-5.24,2.09-1.56,2.61-3.93,7.24-5.66,2.87-1.08,5.69,2.08,9.95,1.14,4.66-1.02,4.82-2.86,7.83-4.97Z"/>
          <path class="cls-8" d="m50.22,8.74c2.3-1.6,4.41-.67,7.05-1.46,3.52-1.07,2.77-4.2,7.13-4.48,4.65-.3.71-4.78-.46-5.55-2.51-1.66-29.49,5.7-37.34,6.16C21.75,3.69.12,2.92-1.22,4.18c-1.57,1.48-2.95,21.8,4.39,23.5,6.69,1.55,8.74-2.53,10.2-3.2,2.2-1,2.44-.73,4.7-1,2.55-.3,4.28-3.04,7.2-5.3,2.09-1.62,2.5-4,7.2-5.76,2.84-1.07,5.71,2.16,9.94,1.26,4.7-1,4.8-2.84,7.8-4.93Z"/>
        </g>
        <g>
          <path class="cls-5" d="m13.06,21.68c0-2.91,2.36-5.26,5.26-5.26s5.26,2.35,5.26,5.26-2.36,5.26-5.26,5.26-5.26-2.36-5.26-5.26Z"/>
          <path class="cls-5" d="m27.43,10.61c0-2.91,2.36-5.26,5.26-5.26s5.26,2.36,5.26,5.26-2.35,5.26-5.26,5.26-5.26-2.36-5.26-5.26Z"/>
          <circle class="cls-5" cx="8.01" cy="3.47" r="6.35"/>
          <path class="cls-5" d="m15.26,13.44c0-4.47,3.62-8.1,8.1-8.1s8.1,3.62,8.1,8.1-3.62,8.1-8.1,8.1-8.1-3.62-8.1-8.1Z"/>
          <path class="cls-5" d="m48.07,4.83c0-3.79,3.07-6.86,6.86-6.86s6.86,3.07,6.86,6.86-3.07,6.86-6.86,6.86-6.86-3.07-6.86-6.86Z"/>
          <path class="cls-5" d="m58.86,1.09c0-2.45,1.99-4.44,4.44-4.44s4.44,1.99,4.44,4.44-1.99,4.44-4.44,4.44-4.44-1.99-4.44-4.44Z"/>
          <circle class="cls-5" cx="8.01" cy="21.54" r="9.15" transform="translate(-12.88 11.97) rotate(-45)"/>
          <path class="cls-5" d="m-7.27,14.11c0-3.38,2.74-6.13,6.13-6.13s6.13,2.74,6.13,6.13-2.74,6.13-6.13,6.13-6.13-2.74-6.13-6.13Z"/>
          <circle class="cls-5" cx="42.27" cy="8.95" r="9.58" transform="translate(4.49 29.91) rotate(-40.98)"/>
          <path class="cls-5" d="m10.52,6.29c0-5.29,4.29-9.58,9.58-9.58S29.68,1,29.68,6.29s-4.29,9.58-9.58,9.58-9.58-4.29-9.58-9.58Z"/>
          <polygon class="cls-5" points="73.9 -4.42 -4.84 -4.42 -4.84 11.34 16.02 20.24 45.32 6.29 73.9 -4.42"/>
        </g>
        <g>
          <path class="cls-19" d="m12.86,21.48c0-2.91,2.36-5.26,5.26-5.26s5.26,2.35,5.26,5.26-2.36,5.26-5.26,5.26-5.26-2.36-5.26-5.26Z"/>
          <path class="cls-19" d="m27.23,10.41c0-2.91,2.36-5.26,5.26-5.26s5.26,2.36,5.26,5.26-2.35,5.26-5.26,5.26-5.26-2.35-5.26-5.26Z"/>
          <circle class="cls-19" cx="7.81" cy="3.27" r="6.35"/>
          <path class="cls-19" d="m15.06,13.24c0-4.47,3.62-8.1,8.1-8.1s8.1,3.62,8.1,8.1-3.62,8.1-8.1,8.1-8.1-3.62-8.1-8.1Z"/>
          <path class="cls-19" d="m47.87,4.63c0-3.79,3.07-6.86,6.86-6.86s6.86,3.07,6.86,6.86-3.07,6.86-6.86,6.86-6.86-3.07-6.86-6.86Z"/>
          <path class="cls-19" d="m58.66.89c0-2.45,1.99-4.44,4.44-4.44s4.44,1.99,4.44,4.44-1.99,4.44-4.44,4.44-4.44-1.99-4.44-4.44Z"/>
          <circle class="cls-19" cx="7.81" cy="21.33" r="9.15" transform="translate(-12.8 11.77) rotate(-45)"/>
          <path class="cls-19" d="m-7.47,13.91c0-3.38,2.74-6.13,6.13-6.13s6.13,2.74,6.13,6.13-2.74,6.13-6.13,6.13-6.13-2.74-6.13-6.13Z"/>
          <circle class="cls-19" cx="42.07" cy="8.75" r="9.58" transform="translate(9.01 36.19) rotate(-51.44)"/>
          <path class="cls-19" d="m10.32,6.09C10.32.8,14.61-3.49,19.9-3.49S29.48.8,29.48,6.09s-4.29,9.58-9.58,9.58-9.58-4.29-9.58-9.58Z"/>
          <polygon class="cls-19" points="73.7 -4.62 -5.04 -4.62 -5.04 11.14 15.82 20.04 45.12 6.09 73.7 -4.62"/>
        </g>
        <g class="cls-40">
          <path class="cls-6" d="m177.93,35.9c4.78-.08,5.48-1.42,8.14-2.52,2.77-1.15,5.65-1.15,8.8-3.6,4.1-3.19,3.71-6.5,9.8-10.7,5.6-3.86,5.12-14.12,1.8-21.5-3.86-8.57-19.92-11.06-26.08-10.23-6.64.89-54.43,2.54-59.52,4.43-4.17,1.54-4.13,17.7,5.8,19.77,6.41,1.33,7.1,4.33,11.3,6.13,3.97,1.7,6.87.22,9.5,1.4,2.9,1.3,4.2,2.75,5.7,4.8,1.64,2.25,3.24,2.93,5.3,4.4,2.2,1.57,6.6,1.5,8.8,2.7,2.27,1.24,6.06,5,10.66,4.92Z"/>
          <path class="cls-20" d="m177.93,35.63c4.75-.07,5.47-1.44,8.08-2.53,2.72-1.13,5.58-1.13,8.72-3.58,4.07-3.16,3.68-6.48,9.67-10.58,5.56-3.78,5.11-13.84,1.88-21.07-3.76-8.45-19.34-11-25.61-10.21-6.63.83-54.63,2.41-59.62,4.28-4.11,1.55-3.94,17.45,5.85,19.42,6.31,1.27,6.98,4.27,11.19,6.06,4.01,1.7,6.92.14,9.55,1.38,2.86,1.34,4.21,2.73,5.7,4.75,1.64,2.21,3.18,2.95,5.27,4.44,2.21,1.57,6.56,1.47,8.8,2.69,2.35,1.28,6,5.02,10.53,4.95Z"/>
          <path class="cls-34" d="m177.94,35.36c4.72-.06,5.45-1.46,8.01-2.53,2.67-1.11,5.51-1.11,8.65-3.55,4.03-3.13,3.64-6.47,9.53-10.45,5.51-3.72,5.09-13.56,1.95-20.64-3.67-8.33-18.75-10.95-25.15-10.19s-54.82,2.28-59.71,4.13c-4.04,1.55-3.75,17.2,5.9,19.07,6.21,1.21,6.86,4.22,11.07,5.99,4.04,1.69,6.97.07,9.6,1.36,2.83,1.38,4.22,2.71,5.7,4.7,1.63,2.18,3.12,2.97,5.23,4.48,2.21,1.58,6.52,1.44,8.8,2.67,2.43,1.31,5.94,5.03,10.41,4.97Z"/>
          <path class="cls-7" d="m177.94,35.09c4.68-.05,5.43-1.48,7.95-2.53,2.62-1.1,5.43-1.09,8.57-3.53,3.99-3.1,3.6-6.46,9.4-10.33,5.46-3.65,5.06-13.28,2.03-20.21-3.58-8.19-18.17-10.89-24.68-10.18s-55.03,2.13-59.81,3.98c-3.99,1.54-3.56,16.95,5.95,18.72,6.11,1.15,6.74,4.17,10.96,5.92,4.08,1.68,7.02,0,9.65,1.33,2.79,1.43,4.23,2.69,5.7,4.65,1.62,2.14,3.06,2.99,5.2,4.53,2.22,1.59,6.48,1.41,8.8,2.66,2.51,1.35,5.89,5.05,10.28,5Z"/>
          <path class="cls-12" d="m177.95,34.83c4.65-.04,5.42-1.5,7.88-2.54,2.57-1.08,5.36-1.08,8.49-3.51,3.96-3.07,3.57-6.45,9.27-10.21s5.04-13,2.11-19.79c-3.49-8.07-17.58-10.83-24.22-10.16s-55.23,1.99-59.91,3.83c-3.92,1.54-3.37,16.7,6.01,18.37,6.01,1.09,6.62,4.12,10.85,5.85,4.12,1.67,7.07-.08,9.69,1.31,2.76,1.47,4.24,2.67,5.7,4.59,1.61,2.11,2.99,3.01,5.17,4.57,2.22,1.59,6.44,1.38,8.8,2.65,2.6,1.39,5.83,5.07,10.16,5.02Z"/>
          <path class="cls-41" d="m177.95,34.56c4.62-.03,5.4-1.52,7.81-2.54,2.52-1.06,5.29-1.06,8.41-3.48,3.92-3.04,3.53-6.43,9.13-10.09s5.02-12.71,2.18-19.36c-3.4-7.94-16.99-10.77-23.75-10.14s-55.43,1.86-60,3.68c-3.86,1.54-3.18,16.45,6.06,18.02,5.91,1.02,6.5,4.07,10.74,5.78s7.12-.16,9.74,1.29,4.25,2.66,5.71,4.54c1.6,2.08,2.93,3.02,5.13,4.61,2.23,1.6,6.4,1.35,8.8,2.64,2.68,1.43,5.77,5.08,10.03,5.05Z"/>
          <path class="cls-25" d="m177.96,34.29c4.59-.01,5.38-1.54,7.75-2.54,2.47-1.04,5.22-1.04,8.34-3.46,3.88-3.01,3.5-6.42,9-9.96s5.01-12.43,2.26-18.93c-3.3-7.82-16.41-10.71-23.29-10.12s-55.63,1.72-60.1,3.53c-3.8,1.54-2.98,16.19,6.11,17.67,5.81.96,6.38,4.02,10.62,5.71s7.17-.24,9.79,1.27,4.27,2.64,5.71,4.49c1.59,2.04,2.87,3.04,5.1,4.65,2.23,1.61,6.36,1.32,8.8,2.62,2.76,1.47,5.72,5.1,9.91,5.07Z"/>
          <path class="cls-36" d="m177.96,34.02c4.55-.01,5.36-1.56,7.68-2.55,2.42-1.03,5.14-1.02,8.26-3.43,3.84-2.98,3.47-6.4,8.87-9.84s4.99-12.15,2.34-18.5c-3.21-7.69-15.82-10.65-22.82-10.1-6.54.51-55.83,1.58-60.19,3.38-3.74,1.54-2.79,15.94,6.16,17.32,5.71.9,6.26,3.97,10.51,5.64s7.22-.32,9.84,1.25,4.28,2.62,5.71,4.44c1.58,2.01,2.81,3.06,5.07,4.7,2.24,1.62,6.31,1.28,8.8,2.61,2.84,1.51,5.66,5.11,9.79,5.1Z"/>
          <path class="cls-17" d="m177.97,33.75c4.52,0,5.35-1.58,7.62-2.55,2.37-1.01,5.07-1,8.18-3.41,3.81-2.95,3.44-6.39,8.74-9.72S207.47,6.2,204.91,0c-3.12-7.56-15.23-10.58-22.36-10.08-6.53.46-56.03,1.45-60.29,3.22-3.68,1.53-2.6,15.67,6.21,16.96,5.61.82,6.14,3.92,10.4,5.57s7.27-.4,9.89,1.23,4.29,2.6,5.71,4.39c1.57,1.97,2.75,3.08,5.03,4.74,2.24,1.62,6.27,1.25,8.8,2.6,2.92,1.55,5.6,5.13,9.66,5.12Z"/>
          <path class="cls-2" d="m177.97,33.48c4.49,0,5.33-1.6,7.55-2.55,2.32-.99,5-.98,8.1-3.39,3.77-2.92,3.4-6.37,8.6-9.6s4.95-11.59,2.49-17.64c-3.02-7.44-14.64-10.52-21.89-10.06-6.51.41-56.23,1.31-60.38,3.07-3.62,1.53-2.41,15.42,6.26,16.61,5.51.76,6.02,3.87,10.28,5.5s7.32-.48,9.94,1.2,4.3,2.58,5.71,4.34c1.56,1.94,2.69,3.1,5,4.78,2.25,1.63,6.23,1.22,8.8,2.58,3,1.58,5.55,5.14,9.54,5.15Z"/>
          <path class="cls-1" d="m177.98,33.22c4.46.02,5.31-1.62,7.48-2.56,2.27-.97,4.93-.96,8.03-3.36,3.73-2.89,3.37-6.36,8.47-9.47s4.93-11.31,2.57-17.22c-2.93-7.31-14.06-10.46-21.43-10.04-6.5.37-56.42,1.18-60.48,2.92-3.56,1.53-2.22,15.16,6.32,16.26,5.41.7,5.9,3.82,10.17,5.43s7.37-.56,9.98,1.18,4.31,2.56,5.71,4.28c1.56,1.9,2.63,3.12,4.97,4.82,2.25,1.64,6.19,1.19,8.8,2.57,3.09,1.62,5.49,5.16,9.41,5.17Z"/>
          <path class="cls-16" d="m177.98,32.95c4.42.03,5.29-1.65,7.42-2.56,2.22-.96,4.85-.94,7.95-3.34,3.7-2.86,3.34-6.34,8.34-9.35s4.91-11.03,2.64-16.79c-2.83-7.19-13.47-10.39-20.97-10.02-6.48.32-56.62,1.04-60.57,2.77-3.5,1.53-2.02,14.91,6.37,15.91,5.31.63,5.78,3.76,10.06,5.36s7.42-.64,10.03,1.16,4.32,2.55,5.71,4.23c1.55,1.87,2.57,3.14,4.93,4.86,2.26,1.64,6.15,1.16,8.8,2.56,3.17,1.66,5.43,5.18,9.29,5.2Z"/>
          <path class="cls-22" d="m177.98,32.68c4.39.04,5.28-1.67,7.35-2.56,2.17-.94,4.78-.93,7.87-3.32,3.66-2.83,3.31-6.33,8.2-9.23,5.08-3.01,4.9-10.75,2.72-16.36-2.74-7.06-12.88-10.33-20.5-10-6.46.27-56.82.9-60.67,2.62-3.43,1.53-1.83,14.66,6.42,15.56,5.21.57,5.66,3.71,9.94,5.29s7.47-.72,10.08,1.14,4.33,2.53,5.71,4.18c1.54,1.83,2.51,3.15,4.9,4.91,2.26,1.65,6.11,1.13,8.8,2.55,3.25,1.7,5.38,5.19,9.16,5.22Z"/>
          <path class="cls-10" d="m177.99,32.41c4.36.05,5.26-1.69,7.29-2.57,2.12-.92,4.71-.91,7.79-3.29,3.62-2.8,3.28-6.31,8.07-9.1,5.03-2.94,4.88-10.47,2.8-15.93-2.64-6.94-12.29-10.26-20.04-9.98-6.45.23-57.02.77-60.76,2.47-3.37,1.53-1.64,14.4,6.47,15.21,5.11.51,5.54,3.66,9.83,5.22s7.52-.8,10.13,1.12c2.44,1.8,4.34,2.51,5.71,4.13,1.53,1.8,2.45,3.17,4.87,4.95,2.27,1.66,6.07,1.1,8.8,2.53,3.33,1.74,5.32,5.21,9.04,5.25Z"/>
          <path class="cls-30" d="m177.99,32.14c4.33.06,5.24-1.71,7.22-2.57,2.07-.9,4.64-.89,7.72-3.27,3.58-2.77,3.25-6.29,7.94-8.98,4.99-2.86,4.86-10.19,2.87-15.5-2.55-6.81-11.71-10.19-19.57-9.96-6.43.18-57.22.63-60.86,2.32-3.31,1.53-1.45,14.15,6.52,14.86,5.01.45,5.42,3.61,9.72,5.15s7.58-.88,10.18,1.09c2.41,1.83,4.35,2.49,5.71,4.08,1.52,1.76,2.39,3.19,4.83,4.99,2.27,1.67,6.03,1.07,8.8,2.52,3.41,1.78,5.26,5.23,8.91,5.27Z"/>
          <path class="cls-13" d="m178,31.87c4.29.07,5.22-1.73,7.16-2.57,2.02-.89,4.56-.87,7.64-3.25,3.55-2.74,3.22-6.27,7.8-8.86,4.95-2.79,4.84-9.91,2.95-15.07-2.45-6.69-11.12-10.12-19.11-9.95-6.42.14-57.42.5-60.95,2.17-3.25,1.53-1.26,13.9,6.57,14.51,4.91.38,5.3,3.55,9.61,5.08,4.53,1.61,7.63-.97,10.23,1.07,2.38,1.87,4.36,2.47,5.72,4.03,1.51,1.73,2.33,3.21,4.8,5.03,2.28,1.67,5.99,1.04,8.8,2.51,3.49,1.82,5.21,5.24,8.79,5.3Z"/>
          <path class="cls-29" d="m178,31.6c4.26.08,5.21-1.75,7.09-2.58,1.97-.87,4.49-.85,7.56-3.22,3.51-2.71,3.19-6.26,7.67-8.74,4.91-2.72,4.83-9.63,3.03-14.64-2.36-6.56-10.53-10.05-18.64-9.93-6.4.1-57.62.37-61.05,2.02-3.19,1.53-1.07,13.65,6.63,14.16,4.81.32,5.19,3.5,9.49,5.01,4.57,1.6,7.68-1.05,10.27,1.05,2.34,1.9,4.37,2.45,5.72,3.97,1.5,1.69,2.27,3.23,4.77,5.07,2.28,1.68,5.95,1.01,8.8,2.49,3.58,1.85,5.15,5.26,8.67,5.32Z"/>
          <path class="cls-18" d="m178.01,31.34c4.23.09,5.19-1.77,7.02-2.58,1.92-.85,4.42-.83,7.48-3.2,3.47-2.68,3.16-6.24,7.54-8.61,4.87-2.64,4.81-9.35,3.1-14.22-2.26-6.44-9.95-10.21-18.18-9.91-6.38.24-57.82.23-61.15,1.87-3.13,1.54-.88,13.39,6.68,13.81,4.71.26,5.07,3.45,9.38,4.95,4.6,1.6,7.73-1.13,10.32,1.03,2.31,1.93,4.38,2.43,5.72,3.92,1.49,1.66,2.21,3.25,4.73,5.12,2.29,1.69,5.91.98,8.8,2.48,3.66,1.89,5.09,5.28,8.54,5.35Z"/>
          <path class="cls-33" d="m178.01,31.07c4.2.1,5.17-1.79,6.96-2.58,1.87-.83,4.34-.81,7.41-3.18,3.44-2.65,3.13-6.22,7.4-8.49,4.83-2.57,4.8-9.07,3.18-13.79-2.16-6.31-9.36-10.14-17.71-9.89-6.37.19-58.02.1-61.24,1.71s-.69,13.14,6.73,13.46c4.61.2,4.95,3.4,9.27,4.88,4.64,1.59,7.79-1.22,10.37,1.01,2.28,1.97,4.4,2.42,5.72,3.87,1.48,1.62,2.15,3.26,4.7,5.16,2.29,1.7,5.87.95,8.8,2.47,3.74,1.93,5.04,5.29,8.42,5.37Z"/>
          <path class="cls-32" d="m178.02,30.8c4.16.11,5.16-1.81,6.89-2.59,1.82-.82,4.27-.79,7.33-3.15,3.4-2.62,3.1-6.2,7.27-8.37,4.79-2.49,4.78-8.79,3.26-13.36-2.06-6.19-8.77-10.06-17.25-9.87-6.35.14-58.22-.04-61.34,1.56s-.5,12.89,6.78,13.11c4.51.13,4.83,3.34,9.15,4.81,4.68,1.58,7.84-1.3,10.42.99,2.25,2,4.41,2.4,5.72,3.82,1.48,1.59,2.09,3.28,4.67,5.2,2.3,1.7,5.83.92,8.8,2.45,3.82,1.97,4.98,5.31,8.29,5.4Z"/>
          <path class="cls-24" d="m178.02,30.53c4.13.12,5.14-1.83,6.83-2.59,1.77-.8,4.2-.78,7.25-3.13,3.36-2.59,3.07-6.18,7.14-8.24,4.75-2.42,4.77-8.51,3.34-12.93-1.97-6.07-8.18-9.98-16.78-9.85-6.34.09-58.41-.17-61.43,1.41s-.3,12.64,6.83,12.76c4.41.07,4.71,3.29,9.04,4.74,4.72,1.57,7.9-1.39,10.47.96,2.22,2.03,4.42,2.38,5.72,3.77,1.47,1.56,2.03,3.3,4.63,5.24,2.3,1.71,5.78.88,8.8,2.44,3.9,2.01,4.92,5.33,8.17,5.42Z"/>
          <path class="cls-38" d="m178.03,30.26c4.1.13,5.12-1.85,6.76-2.6,1.72-.78,4.13-.76,7.17-3.1,3.32-2.56,3.04-6.15,7.01-8.12,4.71-2.34,4.75-8.24,3.41-12.5-1.87-5.94-7.59-9.69-16.32-9.83-6.32-.1-58.61-.3-61.53,1.26s-.11,12.39,6.88,12.41c4.31.01,4.59,3.24,8.93,4.67,4.76,1.57,7.95-1.47,10.52.94,2.19,2.06,4.43,2.36,5.72,3.72,1.46,1.52,1.97,3.32,4.6,5.28,2.31,1.72,5.74.85,8.8,2.43,3.98,2.05,4.87,5.35,8.04,5.45Z"/>
          <path class="cls-3" d="m178.03,29.99c4.07.14,5.1-1.87,6.69-2.6,1.67-.76,4.05-.74,7.1-3.08,3.29-2.53,3.01-6.13,6.87-8,4.67-2.26,4.74-7.96,3.49-12.07-1.77-5.82-7-9.61-15.85-9.81-6.31-.14-58.81-.43-61.62,1.11s.08,12.14,6.94,12.06c4.21-.05,4.47,3.18,8.82,4.6,4.79,1.56,8.01-1.56,10.56.92,2.16,2.09,4.44,2.34,5.72,3.67,1.45,1.49,1.91,3.34,4.57,5.33,2.31,1.72,5.7.82,8.8,2.42,4.07,2.08,4.81,5.36,7.92,5.47Z"/>
          <path class="cls-11" d="m178.04,29.73c4.03.15,5.09-1.89,6.63-2.6,1.62-.75,3.98-.72,7.02-3.06,3.25-2.5,2.99-6.11,6.74-7.88,4.64-2.18,4.73-7.68,3.57-11.65-1.67-5.7-6.41-9.53-15.39-9.79-6.29-.18-59.01-.57-61.72.96s.27,11.89,6.99,11.71c4.11-.11,4.35,3.13,8.7,4.53,4.83,1.55,8.06-1.65,10.61.9,2.13,2.12,4.45,2.32,5.72,3.61,1.44,1.45,1.85,3.36,4.53,5.37,2.32,1.73,5.66.79,8.8,2.4,4.15,2.12,4.75,5.38,7.79,5.5Z"/>
          <path class="cls-14" d="m178.04,29.46c4,.17,5.07-1.91,6.56-2.61,1.57-.73,3.91-.7,6.94-3.03,3.21-2.47,2.96-6.09,6.61-7.75,4.6-2.1,4.71-7.4,3.64-11.22-1.57-5.58-5.83-9.46-14.93-9.77-6.28-.22-59.21-.7-61.81.81s.46,11.64,7.04,11.35c4.01-.17,4.23,3.08,8.59,4.46,4.87,1.54,8.12-1.73,10.66.88,2.1,2.15,4.46,2.31,5.72,3.56,1.43,1.42,1.79,3.38,4.5,5.41,2.32,1.74,5.62.76,8.8,2.39,4.23,2.16,4.7,5.4,7.67,5.52Z"/>
          <path class="cls-35" d="m178.04,29.19c3.97.18,5.05-1.93,6.5-2.61,1.52-.71,3.84-.68,6.86-3.01,3.18-2.44,2.93-6.06,6.47-7.63,4.56-2.02,4.7-7.12,3.72-10.79-1.46-5.45-5.24-9.38-14.46-9.75-6.26-.26-59.4-.83-61.91.66s.65,11.39,7.09,11c3.91-.23,4.12,3.02,8.48,4.39,4.91,1.52,8.18-1.82,10.71.86,2.07,2.18,4.47,2.29,5.73,3.51,1.42,1.38,1.73,3.39,4.47,5.45,2.33,1.75,5.58.73,8.8,2.38,4.31,2.2,4.64,5.42,7.55,5.55Z"/>
          <path class="cls-4" d="m178.05,28.92c3.94.19,5.03-1.95,6.43-2.61,1.47-.69,3.76-.66,6.79-2.99,3.14-2.41,2.91-6.04,6.34-7.51,4.52-1.94,4.69-6.85,3.8-10.36-1.36-5.33-4.65-9.3-14-9.74-6.25-.29-59.6-.96-62,.51-2.56,1.56.84,11.14,7.14,10.65,3.81-.29,4,2.96,8.36,4.32,4.95,1.52,8.23-1.91,10.76.83,2.04,2.21,4.48,2.27,5.73,3.46,1.41,1.35,1.67,3.41,4.43,5.49,2.33,1.75,5.54.7,8.8,2.36,4.39,2.24,4.58,5.44,7.42,5.57Z"/>
          <path class="cls-23" d="m178.05,28.65c3.9.2,5.02-1.97,6.36-2.62,1.42-.68,3.69-.64,6.71-2.96,3.1-2.38,2.88-6.01,6.21-7.38,4.49-1.85,4.68-6.57,3.87-9.93-1.25-5.21-4.06-9.22-13.53-9.72-6.23-.33-59.8-1.09-62.1.36-2.5,1.56,1.03,10.89,7.19,10.3,3.71-.35,3.88,2.91,8.25,4.25,4.99,1.51,8.29-1.99,10.81.81,2.01,2.24,4.49,2.25,5.73,3.41,1.4,1.31,1.61,3.43,4.4,5.54,2.34,1.76,5.5.67,8.8,2.35,4.47,2.28,4.53,5.46,7.3,5.6Z"/>
          <path class="cls-9" d="m178.06,28.38c3.87.22,5-1.99,6.3-2.62,1.37-.66,3.62-.63,6.63-2.94,3.06-2.35,2.85-5.98,6.07-7.26,4.45-1.77,4.67-6.29,3.95-9.5-1.15-5.09-3.48-9.13-13.07-9.7-6.21-.36-59.99-1.22-62.19.2-2.43,1.57,1.22,10.64,7.25,9.95,3.61-.41,3.76,2.86,8.14,4.18,5.02,1.5,8.35-2.08,10.85.79,1.98,2.27,4.5,2.23,5.73,3.36,1.39,1.28,1.55,3.45,4.37,5.58,2.34,1.77,5.46.64,8.8,2.34,4.55,2.32,4.47,5.48,7.17,5.62Z"/>
          <path class="cls-31" d="m178.06,28.11c3.84.23,4.98-2.01,6.23-2.62,1.32-.64,3.55-.61,6.55-2.92,3.03-2.32,2.83-5.95,5.94-7.14,4.42-1.68,4.66-6.01,4.03-9.07-1.04-4.97-2.89-9.05-12.6-9.68-6.2-.4-60.19-1.35-62.29.05-2.37,1.58,1.42,10.4,7.3,9.6,3.51-.47,3.64,2.81,8.03,4.11,5.06,1.49,8.41-2.17,10.9.77,1.95,2.3,4.52,2.21,5.73,3.3,1.39,1.24,1.49,3.47,4.33,5.62,2.35,1.77,5.42.61,8.8,2.33,4.64,2.35,4.41,5.5,7.05,5.65Z"/>
          <path class="cls-37" d="m178.07,27.85c3.81.24,4.97-2.03,6.17-2.63,1.27-.62,3.47-.59,6.48-2.89,2.99-2.29,2.8-5.92,5.81-7.02,4.38-1.59,4.66-5.74,4.1-8.65-.92-4.85-2.31-8.95-12.14-9.66-6.19-.42-60.38-1.48-62.39-.1-2.3,1.58,1.61,10.15,7.35,9.25,3.41-.53,3.52,2.75,7.91,4.04,5.1,1.49,8.47-2.26,10.95.75,1.93,2.33,4.53,2.2,5.73,3.25,1.38,1.21,1.43,3.49,4.3,5.66,2.35,1.78,5.38.58,8.8,2.31,4.72,2.39,4.36,5.51,6.92,5.68Z"/>
          <path class="cls-8" d="m178.07,27.58c3.77.25,4.95-2.05,6.1-2.63,1.21-.61,3.4-.57,6.4-2.87,2.95-2.26,2.78-5.89,5.68-6.89,4.35-1.5,4.65-5.46,4.18-8.22-.81-4.72-1.72-8.88-11.67-9.64-6.17-.47-60.58-1.6-62.48-.25-2.23,1.59,1.8,9.9,7.4,8.9,3.31-.59,3.4,2.7,7.8,3.97,5.14,1.48,8.53-2.35,11,.72,1.9,2.36,4.54,2.18,5.73,3.2,1.37,1.17,1.37,3.5,4.27,5.71,2.36,1.79,5.34.55,8.8,2.3,4.8,2.43,4.3,5.53,6.8,5.7Z"/>
        </g>
        <g>
          <path class="cls-5" d="m172.97,25.74c0-3.5,2.84-6.35,6.35-6.35s6.35,2.84,6.35,6.35-2.84,6.35-6.35,6.35-6.35-2.84-6.35-6.35Z"/>
          <circle class="cls-5" cx="132.27" cy="1.77" r="6.35"/>
          <path class="cls-5" d="m150.84,9.51c0-3.58,2.9-6.49,6.49-6.49s6.49,2.9,6.49,6.49-2.9,6.49-6.49,6.49-6.49-2.9-6.49-6.49Z"/>
          <path class="cls-5" d="m185.73,8.6c0-5.41,4.39-9.8,9.8-9.8s9.8,4.39,9.8,9.8-4.39,9.8-9.8,9.8-9.8-4.39-9.8-9.8Z"/>
          <circle class="cls-5" cx="175.03" cy="17.04" r="9.15" transform="translate(130.09 187.06) rotate(-80.76)"/>
          <path class="cls-5" d="m157.32,17.87c0-3.38,2.74-6.13,6.13-6.13s6.13,2.74,6.13,6.13-2.74,6.13-6.13,6.13-6.13-2.74-6.13-6.13Z"/>
          <path class="cls-5" d="m177.59,17.74c0-5.29,4.29-9.58,9.58-9.58s9.58,4.29,9.58,9.58-4.29,9.58-9.58,9.58-9.58-4.29-9.58-9.58Z"/>
          <path class="cls-5" d="m134.78,4.59c0-5.29,4.29-9.58,9.58-9.58s9.58,4.29,9.58,9.58-4.29,9.58-9.58,9.58-9.58-4.29-9.58-9.58Z"/>
          <polygon class="cls-5" points="119.43 -6.12 198.16 -6.12 198.16 9.64 168 15.3 148.01 4.59 119.43 -6.12"/>
        </g>
        <g>
          <path class="cls-19" d="m172.77,25.54c0-3.5,2.84-6.35,6.35-6.35s6.35,2.84,6.35,6.35-2.84,6.35-6.35,6.35-6.35-2.84-6.35-6.35Z"/>
          <circle class="cls-19" cx="132.07" cy="1.57" r="6.35"/>
          <path class="cls-19" d="m150.64,9.31c0-3.58,2.9-6.49,6.49-6.49s6.49,2.9,6.49,6.49-2.9,6.49-6.49,6.49-6.49-2.9-6.49-6.49Z"/>
          <path class="cls-19" d="m185.53,8.4c0-5.41,4.39-9.8,9.8-9.8s9.8,4.39,9.8,9.8-4.39,9.8-9.8,9.8-9.8-4.39-9.8-9.8Z"/>
          <circle class="cls-19" cx="174.83" cy="16.84" r="9.15" transform="translate(116.03 182.35) rotate(-75.94)"/>
          <path class="cls-19" d="m157.12,17.67c0-3.38,2.74-6.13,6.13-6.13s6.13,2.74,6.13,6.13-2.74,6.13-6.13,6.13-6.13-2.74-6.13-6.13Z"/>
          <path class="cls-19" d="m177.39,17.54c0-5.29,4.29-9.58,9.58-9.58s9.58,4.29,9.58,9.58-4.29,9.58-9.58,9.58-9.58-4.29-9.58-9.58Z"/>
          <path class="cls-19" d="m134.58,4.39c0-5.29,4.29-9.58,9.58-9.58s9.58,4.29,9.58,9.58-4.29,9.58-9.58,9.58-9.58-4.29-9.58-9.58Z"/>
          <polygon class="cls-19" points="119.23 -6.32 197.96 -6.32 197.96 9.44 167.8 15.1 147.81 4.39 119.23 -6.32"/>
        </g>
        <g class="cls-40">
          <path class="cls-6" d="m77.73,25.58c-1.55-.76-2.4-2.5-4.3-4-1.74-1.38-3.92-3.4-5.72-5.1-3.34-3.16-9.9-7.12-9.24-16.1.67-9.14,22.13-7.29,26.69-6.68,4.92.66,42.04-3.94,44.91-1.12,6.7,6.6.65,12.9-4.2,15.7-1.99,1.15-4.05,4.71-5.5,6-1.49,1.32-2.59,3.67-4.2,5.5-1.41,1.61-2.08,1.8-5.98,5.1-3.4,2.88-6.21,5.59-7.95,6.3-2.2.9-6.32,1.72-11.49,1.5-7.03-.3-11.96-6.57-13.03-7.1Z"/>
          <path class="cls-20" d="m77.96,25.27c-1.53-.75-2.41-2.43-4.31-3.92-1.76-1.39-3.84-3.42-5.66-5.12-3.31-3.11-9.95-6.96-9.26-15.86.68-8.96,21.82-7.17,26.46-6.59,4.91.62,41.86-3.84,44.68-1.08,6.52,6.41.69,12.7-4.22,15.42-2.01,1.12-4.04,4.69-5.49,5.98-1.52,1.36-2.62,3.6-4.21,5.41-1.39,1.58-2.03,1.86-5.87,5.11-3.37,2.85-6.17,5.46-7.88,6.15-2.17.88-6.2,1.81-11.37,1.6-6.96-.29-11.8-6.57-12.88-7.11Z"/>
          <path class="cls-34" d="m78.2,24.95c-1.5-.75-2.42-2.37-4.31-3.85-1.79-1.4-3.77-3.43-5.6-5.13-3.28-3.06-10-6.8-9.28-15.62.68-8.77,21.5-7.05,26.23-6.5s41.67-3.74,44.44-1.03c6.33,6.22.72,12.5-4.23,15.14-2.04,1.08-4.04,4.66-5.48,5.96-1.54,1.4-2.66,3.53-4.23,5.32-1.36,1.55-1.98,1.93-5.76,5.12-3.33,2.81-6.13,5.32-7.81,6-2.13.86-6.08,1.91-11.24,1.7-6.89-.29-11.65-6.56-12.74-7.11Z"/>
          <path class="cls-7" d="m78.44,24.64c-1.48-.75-2.43-2.3-4.32-3.77-1.81-1.41-3.7-3.44-5.54-5.15-3.25-3-10.03-6.63-9.3-15.38s21.18-6.93,26.01-6.4,41.49-3.65,44.21-.99c6.16,6.02.76,12.3-4.25,14.86-2.06,1.05-4.04,4.64-5.47,5.94-1.57,1.44-2.7,3.47-4.24,5.23-1.33,1.52-1.93,1.99-5.65,5.13-3.3,2.78-6.09,5.19-7.74,5.86-2.1.85-5.96,2-11.12,1.79-6.82-.28-11.49-6.56-12.59-7.11Z"/>
          <path class="cls-12" d="m78.67,24.33c-1.46-.75-2.44-2.23-4.32-3.7-1.83-1.42-3.63-3.46-5.48-5.16-3.21-2.95-10.07-6.47-9.33-15.14s20.86-6.81,25.78-6.31,41.31-3.55,43.98-.95c5.99,5.82.8,12.1-4.26,14.58-2.09,1.02-4.04,4.62-5.46,5.92-1.6,1.47-2.74,3.4-4.26,5.14-1.31,1.49-1.88,2.05-5.54,5.14-3.27,2.75-6.05,5.05-7.67,5.71-2.06.83-5.83,2.1-11,1.89-6.75-.27-11.34-6.55-12.44-7.12Z"/>
          <path class="cls-41" d="m78.91,24.01c-1.43-.74-2.46-2.17-4.33-3.62-1.85-1.43-3.55-3.47-5.42-5.18-3.18-2.9-10.11-6.3-9.35-14.9.73-8.22,20.54-6.69,25.55-6.22s41.12-3.45,43.75-.91c5.81,5.63.84,11.9-4.28,14.3-2.11.99-4.04,4.59-5.45,5.91-1.62,1.51-2.77,3.34-4.27,5.05-1.28,1.46-1.82,2.12-5.43,5.15-3.23,2.72-6.01,4.92-7.6,5.56-2.03.81-5.71,2.19-10.88,1.99-6.68-.27-11.18-6.55-12.29-7.12Z"/>
          <path class="cls-25" d="m79.15,23.7c-1.41-.74-2.47-2.1-4.33-3.55-1.88-1.44-3.48-3.49-5.36-5.2-3.14-2.85-10.16-6.14-9.37-14.65.74-8.04,20.22-6.56,25.32-6.13s40.94-3.35,43.51-.86c5.63,5.43.87,11.7-4.29,14.02-2.14.95-4.03,4.57-5.44,5.89-1.65,1.55-2.81,3.27-4.29,4.96-1.26,1.43-1.77,2.18-5.32,5.16-3.2,2.69-5.97,4.79-7.53,5.41-1.99.79-5.59,2.29-10.76,2.09-6.61-.26-11.03-6.54-12.14-7.13Z"/>
          <path class="cls-36" d="m79.38,23.39c-1.39-.73-2.47-2.04-4.34-3.47s-3.41-3.51-5.3-5.21c-3.11-2.8-10.2-5.97-9.39-14.41.75-7.85,19.9-6.44,25.09-6.03,4.85.38,40.76-3.25,43.28-.82,5.45,5.24.91,11.5-4.31,13.73-2.16.92-4.03,4.54-5.43,5.87-1.67,1.59-2.85,3.21-4.3,4.86-1.23,1.4-1.72,2.24-5.21,5.17-3.17,2.66-5.93,4.65-7.46,5.26-1.96.78-5.47,2.38-10.63,2.19-6.54-.26-10.87-6.54-11.99-7.13Z"/>
          <path class="cls-17" d="m79.62,23.07c-1.36-.73-2.48-1.97-4.35-3.39s-3.34-3.52-5.25-5.23c-3.08-2.75-10.24-5.81-9.42-14.17.76-7.67,19.58-6.32,24.86-5.94,4.84.34,40.57-3.15,43.05-.78,5.27,5.05.95,11.3-4.33,13.45-2.19.89-4.03,4.52-5.42,5.85-1.7,1.62-2.88,3.14-4.31,4.77-1.2,1.37-1.67,2.31-5.1,5.18-3.13,2.62-5.89,4.52-7.39,5.11-1.92.76-5.35,2.48-10.51,2.29-6.47-.25-10.72-6.53-11.85-7.14Z"/>
          <path class="cls-2" d="m79.86,22.76c-1.34-.72-2.5-1.9-4.35-3.32s-3.26-3.54-5.19-5.24c-3.04-2.7-10.29-5.64-9.44-13.93.77-7.48,19.26-6.19,24.63-5.85,4.82.31,40.39-3.05,42.82-.74,5.09,4.85.98,11.1-4.34,13.17-2.21.85-4.02,4.5-5.4,5.83-1.73,1.66-2.92,3.08-4.33,4.68-1.18,1.35-1.62,2.37-4.99,5.19-3.1,2.59-5.85,4.38-7.32,4.97-1.89.74-5.23,2.57-10.39,2.38-6.4-.24-10.56-6.53-11.7-7.14Z"/>
          <path class="cls-1" d="m80.1,22.45c-1.32-.72-2.51-1.84-4.36-3.24-1.96-1.49-3.19-3.55-5.13-5.26-3.01-2.65-10.34-5.48-9.46-13.69.78-7.3,18.94-6.07,24.4-5.76,4.81.27,40.21-2.95,42.58-.69,4.91,4.66,1.02,10.9-4.36,12.89-2.24.82-4.02,4.48-5.39,5.81-1.75,1.7-2.96,3.01-4.34,4.59-1.15,1.32-1.57,2.43-4.88,5.2-3.07,2.56-5.81,4.25-7.25,4.82-1.85.72-5.11,2.66-10.27,2.48-6.33-.24-10.41-6.52-11.55-7.15Z"/>
          <path class="cls-16" d="m80.33,22.14c-1.29-.71-2.52-1.77-4.36-3.17-1.99-1.5-3.12-3.57-5.07-5.28-2.97-2.6-10.38-5.32-9.48-13.45.79-7.12,18.62-5.94,24.17-5.67,4.8.24,40.02-2.85,42.35-.65,4.73,4.47,1.06,10.71-4.37,12.61-2.26.79-4.02,4.45-5.38,5.79-1.78,1.74-2.99,2.94-4.36,4.5-1.13,1.29-1.52,2.5-4.77,5.21-3.04,2.53-5.77,4.12-7.18,4.67-1.82.71-4.99,2.76-10.14,2.58-6.26-.23-10.25-6.52-11.4-7.15Z"/>
          <path class="cls-22" d="m80.57,21.82c-1.27-.71-2.53-1.7-4.37-3.09-2.01-1.52-3.04-3.58-5.01-5.29-2.94-2.55-10.43-5.15-9.51-13.21.79-6.93,18.3-5.81,23.95-5.57,4.79.2,39.84-2.75,42.12-.61,4.54,4.28,1.1,10.51-4.39,12.33-2.29.76-4.01,4.43-5.37,5.77-1.8,1.78-3.03,2.88-4.37,4.41-1.1,1.26-1.47,2.56-4.66,5.22-3,2.5-5.73,3.98-7.11,4.52-1.79.69-4.87,2.85-10.02,2.68-6.19-.22-10.1-6.51-11.25-7.16Z"/>
          <path class="cls-10" d="m80.81,21.51c-1.25-.7-2.54-1.64-4.37-3.01-2.03-1.53-2.97-3.6-4.95-5.31-2.9-2.5-10.47-4.99-9.53-12.97.8-6.75,17.98-5.69,23.72-5.48,4.78.17,39.65-2.65,41.89-.57,4.36,4.08,1.14,10.31-4.41,12.05-2.31.73-4.01,4.41-5.36,5.76-1.83,1.82-3.07,2.81-4.38,4.32-1.07,1.23-1.42,2.62-4.55,5.23-2.97,2.46-5.68,3.85-7.05,4.37-1.75.67-4.74,2.95-9.9,2.78-6.12-.22-9.94-6.51-11.11-7.16Z"/>
          <path class="cls-30" d="m81.04,21.2c-1.23-.69-2.55-1.57-4.38-2.94-2.05-1.54-2.9-3.62-4.89-5.32-2.86-2.45-10.52-4.82-9.55-12.73.81-6.56,17.66-5.56,23.49-5.39,4.77.14,39.47-2.56,41.65-.52,4.18,3.89,1.17,10.11-4.42,11.77-2.34.69-4,4.39-5.35,5.74-1.85,1.86-3.11,2.75-4.4,4.23-1.05,1.2-1.37,2.68-4.44,5.23-2.94,2.43-5.64,3.71-6.98,4.22-1.72.65-4.62,3.04-9.78,2.87-6.05-.21-9.79-6.5-10.96-7.16Z"/>
          <path class="cls-13" d="m81.28,20.88c-1.2-.69-2.56-1.5-4.39-2.86-2.08-1.55-2.82-3.63-4.83-5.34-2.83-2.4-10.57-4.66-9.57-12.49.81-6.38,17.34-5.43,23.26-5.3,4.75.1,39.29-2.46,41.42-.48,4,3.7,1.21,9.91-4.44,11.49-2.36.66-4,4.36-5.34,5.72-1.88,1.9-3.14,2.68-4.41,4.14-1.02,1.17-1.32,2.75-4.33,5.24-2.9,2.4-5.6,3.58-6.91,4.07-1.68.64-4.5,3.14-9.66,2.97-5.98-.2-9.63-6.49-10.81-7.17Z"/>
          <path class="cls-29" d="m81.52,20.57c-1.18-.68-2.57-1.43-4.39-2.79-2.1-1.56-2.75-3.65-4.77-5.36-2.79-2.35-10.62-4.49-9.59-12.24.82-6.2,17.02-5.3,23.03-5.2,4.74.07,39.1-2.36,41.19-.44,3.82,3.51,1.25,9.71-4.45,11.21-2.39.63-4,4.34-5.33,5.7-1.9,1.93-3.18,2.62-4.43,4.05-1,1.14-1.27,2.81-4.22,5.25-2.87,2.37-5.56,3.45-6.84,3.93-1.65.62-4.38,3.23-9.53,3.07-5.9-.2-9.48-6.49-10.66-7.17Z"/>
          <path class="cls-18" d="m81.75,20.26c-1.16-.68-2.58-1.37-4.4-2.71-2.12-1.57-2.67-3.67-4.72-5.37-2.76-2.31-10.67-4.33-9.62-12,.82-6.01,16.7-5.17,22.8-5.11,4.73.04,38.92-2.26,40.96-.4,3.64,3.32,1.28,9.51-4.47,10.93-2.41.59-3.99,4.32-5.32,5.68-1.93,1.97-3.22,2.55-4.44,3.96-.97,1.11-1.22,2.87-4.11,5.26-2.84,2.34-5.52,3.31-6.77,3.78-1.61.6-4.26,3.33-9.41,3.17-5.83-.19-9.32-6.48-10.51-7.18Z"/>
          <path class="cls-33" d="m81.99,19.95c-1.14-.67-2.59-1.3-4.4-2.64-2.14-1.58-2.6-3.68-4.66-5.39-2.72-2.26-10.71-4.16-9.64-11.76.83-5.83,16.38-5.04,22.57-5.02,4.72.01,38.73-2.16,40.72-.35,3.45,3.13,1.32,9.31-4.48,10.65-2.44.56-3.99,4.3-5.31,5.66-1.95,2.01-3.25,2.49-4.46,3.87-.94,1.08-1.17,2.94-4,5.27-2.8,2.31-5.48,3.18-6.7,3.63-1.58.58-4.14,3.42-9.29,3.27-5.76-.18-9.17-6.48-10.36-7.18Z"/>
          <path class="cls-32" d="m82.23,19.63c-1.11-.66-2.61-1.23-4.41-2.56-2.17-1.59-2.53-3.7-4.6-5.41-2.68-2.21-10.77-4-9.66-11.52.83-5.65,16.06-4.9,22.34-4.93,4.71-.02,38.55-2.06,40.49-.31,3.27,2.94,1.35,9.1-4.5,10.36-2.46.52-3.98,4.28-5.3,5.64-1.97,2.05-3.29,2.42-4.47,3.78-.92,1.05-1.12,3-3.89,5.28-2.77,2.27-5.44,3.04-6.63,3.48-1.54.57-4.02,3.52-9.17,3.37-5.69-.18-9.01-6.47-10.22-7.19Z"/>
          <path class="cls-24" d="m82.47,19.32c-1.09-.66-2.62-1.17-4.41-2.48-2.19-1.6-2.45-3.72-4.54-5.42-2.65-2.16-10.82-3.84-9.68-11.28.83-5.46,15.74-4.77,22.12-4.84,4.7-.05,38.36-1.96,40.26-.27,3.08,2.75,1.39,8.9-4.52,10.08-2.49.49-3.98,4.25-5.29,5.62-2,2.09-3.33,2.35-4.48,3.69-.89,1.03-1.07,3.06-3.78,5.29-2.74,2.24-5.4,2.91-6.56,3.33-1.51.55-3.9,3.61-9.04,3.46-5.62-.17-8.86-6.46-10.07-7.19Z"/>
          <path class="cls-38" d="m82.7,19.01c-1.07-.65-2.63-1.1-4.42-2.41-2.21-1.62-2.38-3.73-4.48-5.44-2.61-2.11-10.87-3.67-9.71-11.04.83-5.28,15.42-4.64,21.89-4.74,4.68-.08,38.18-1.86,40.03-.23,2.9,2.56,1.43,8.7-4.53,9.8-2.51.46-3.97,4.23-5.28,5.61-2.02,2.13-3.36,2.29-4.5,3.59-.86,1-1.02,3.13-3.67,5.3-2.7,2.21-5.36,2.78-6.49,3.18-1.47.53-3.78,3.7-8.92,3.56-5.55-.16-8.71-6.46-9.92-7.2Z"/>
          <path class="cls-3" d="m82.94,18.69c-1.05-.64-2.64-1.03-4.43-2.33-2.23-1.63-2.3-3.75-4.42-5.45-2.57-2.07-10.92-3.51-9.73-10.8.83-5.1,15.1-4.5,21.66-4.65,4.67-.11,37.99-1.76,39.79-.18,2.71,2.37,1.47,8.5-4.55,9.52-2.54.42-3.97,4.21-5.27,5.59-2.05,2.17-3.4,2.22-4.51,3.5-.84.97-.97,3.19-3.56,5.31-2.67,2.18-5.32,2.64-6.42,3.04-1.44.51-3.66,3.8-8.8,3.66-5.48-.16-8.55-6.45-9.77-7.2Z"/>
          <path class="cls-11" d="m83.18,18.38c-1.02-.64-2.65-.96-4.43-2.26-2.26-1.64-2.23-3.77-4.36-5.47-2.54-2.02-10.98-3.34-9.75-10.56.83-4.91,14.78-4.37,21.43-4.56,4.66-.13,37.81-1.65,39.56-.14,2.53,2.18,1.5,8.3-4.56,9.24-2.56.39-3.96,4.19-5.26,5.57-2.07,2.21-3.44,2.16-4.53,3.41-.81.94-.92,3.25-3.45,5.32-2.64,2.15-5.28,2.51-6.35,2.89-1.4.5-3.53,3.89-8.68,3.76-5.41-.15-8.4-6.44-9.62-7.21Z"/>
          <path class="cls-14" d="m83.41,18.07c-1-.63-2.66-.89-4.44-2.18-2.28-1.64-2.15-3.79-4.3-5.49-2.5-1.97-11.03-3.18-9.77-10.32.83-4.73,14.46-4.23,21.2-4.47,4.65-.16,37.62-1.55,39.33-.1,2.34,2,1.54,8.1-4.58,8.96-2.59.36-3.96,4.17-5.25,5.55-2.09,2.25-3.48,2.09-4.54,3.32-.79.91-.87,3.32-3.34,5.33-2.6,2.11-5.24,2.37-6.28,2.74-1.37.48-3.41,3.99-8.56,3.86-5.34-.15-8.24-6.44-9.48-7.21Z"/>
          <path class="cls-35" d="m83.65,17.76c-.98-.62-2.67-.83-4.44-2.11-2.31-1.66-2.08-3.81-4.24-5.5-2.46-1.93-11.09-3.02-9.8-10.08.83-4.55,14.14-4.1,20.97-4.37,4.64-.19,37.43-1.45,39.09-.06,2.15,1.81,1.58,7.9-4.6,8.68-2.61.32-3.96,4.15-5.23,5.53-2.12,2.29-3.51,2.03-4.55,3.23-.76.88-.82,3.38-3.23,5.34-2.57,2.08-5.2,2.24-6.21,2.59-1.34.46-3.29,4.08-8.43,3.95-5.27-.14-8.09-6.43-9.33-7.22Z"/>
          <path class="cls-4" d="m83.89,17.44c-.96-.62-2.69-.76-4.45-2.03-2.33-1.67-2-3.82-4.19-5.52-2.42-1.88-11.15-2.86-9.82-9.83.83-4.37,13.82-3.96,20.74-4.28,4.63-.22,37.25-1.35,38.86-.01,1.97,1.62,1.61,7.7-4.61,8.4-2.64.29-3.95,4.12-5.22,5.51-2.14,2.33-3.55,1.96-4.57,3.14-.73.85-.77,3.44-3.12,5.35-2.54,2.05-5.16,2.11-6.14,2.44-1.3.44-3.17,4.18-8.31,4.05-5.2-.13-7.94-6.42-9.18-7.22Z"/>
          <path class="cls-23" d="m84.12,17.13c-.94-.61-2.7-.69-4.45-1.95-2.35-1.68-1.93-3.84-4.13-5.53-2.38-1.83-11.21-2.69-9.84-9.59.83-4.18,13.5-3.82,20.51-4.19,4.62-.24,37.06-1.24,38.63.03,1.78,1.44,1.65,7.5-4.63,8.12-2.66.26-3.95,4.1-5.21,5.49-2.16,2.37-3.59,1.9-4.58,3.05-.71.82-.72,3.51-3.01,5.36-2.5,2.02-5.12,1.97-6.07,2.29-1.27.42-3.05,4.27-8.19,4.15-5.13-.13-7.78-6.41-9.03-7.22Z"/>
          <path class="cls-9" d="m84.36,16.82c-.92-.6-2.71-.63-4.46-1.88-2.37-1.69-1.85-3.86-4.07-5.55-2.35-1.79-11.27-2.53-9.86-9.35.82-4,13.18-3.68,20.29-4.1,4.6-.27,36.87-1.14,38.4.07s1.69,7.3-4.64,7.84c-2.69.23-3.94,4.08-5.2,5.47-2.19,2.41-3.62,1.83-4.6,2.96-.68.79-.66,3.57-2.9,5.37-2.47,1.99-5.07,1.84-6,2.15-1.23.41-2.93,4.37-8.07,4.25-5.06-.12-7.63-6.41-8.88-7.23Z"/>
          <path class="cls-31" d="m84.6,16.5c-.89-.59-2.72-.56-4.47-1.8-2.4-1.7-1.77-3.88-4.01-5.57S64.79,6.77,66.24.02c.82-3.82,12.86-3.54,20.06-4.01,4.59-.3,36.68-1.03,38.16.11,1.4,1.08,1.73,7.1-4.66,7.56-2.71.19-3.93,4.06-5.19,5.46-2.21,2.46-3.66,1.76-4.61,2.87-.66.76-.61,3.63-2.79,5.38-2.44,1.96-5.03,1.7-5.93,2-1.2.39-2.81,4.46-7.94,4.35-4.99-.11-7.48-6.4-8.73-7.23Z"/>
          <path class="cls-37" d="m84.84,16.19c-.87-.59-2.73-.49-4.47-1.73-2.42-1.71-1.7-3.9-3.95-5.58-2.27-1.7-11.4-2.21-9.91-8.87.82-3.64,12.54-3.39,19.83-3.91,4.58-.32,36.49-.92,37.93.16,1.2.9,1.76,6.9-4.67,7.28-2.74.16-3.93,4.04-5.18,5.44-2.23,2.5-3.7,1.7-4.63,2.78-.63.73-.56,3.7-2.68,5.39-2.4,1.92-4.99,1.57-5.86,1.85-1.16.37-2.69,4.55-7.82,4.44-4.92-.11-7.32-6.39-8.59-7.24Z"/>
          <path class="cls-8" d="m85.07,15.88c-.85-.58-2.74-.42-4.48-1.65-2.44-1.72-1.62-3.92-3.89-5.6-2.23-1.65-11.47-2.05-9.93-8.63.81-3.46,12.22-3.26,19.6-3.82,4.57-.35,36.29-.8,37.7.2,1.01.72,1.8,6.7-4.69,7-2.76.13-3.93,4.02-5.17,5.42-2.25,2.54-3.73,1.63-4.64,2.69-.6.71-.51,3.76-2.57,5.4-2.37,1.89-4.95,1.44-5.79,1.7-1.13.35-2.57,4.65-7.7,4.54-4.85-.1-7.17-6.38-8.44-7.24Z"/>
        </g>
        <g>
          <path class="cls-5" d="m98.05,14.36c0-3.66,2.97-6.63,6.63-6.63s6.63,2.97,6.63,6.63-2.97,6.63-6.63,6.63-6.63-2.97-6.63-6.63Z"/>
          <path class="cls-5" d="m83.34,16.35c0-5.93,4.81-10.74,10.74-10.74s10.74,4.81,10.74,10.74-4.81,10.74-10.74,10.74-10.74-4.81-10.74-10.74Z"/>
          <path class="cls-5" d="m76.9,8.83c0-5.1,4.13-9.23,9.23-9.23s9.23,4.13,9.23,9.23-4.13,9.23-9.23,9.23-9.23-4.13-9.23-9.23Z"/>
          <path class="cls-5" d="m65.32,1.53c0-4.96,4.02-8.98,8.98-8.98s8.98,4.02,8.98,8.98-4.02,8.98-8.98,8.98-8.98-4.02-8.98-8.98Z"/>
          <path class="cls-5" d="m112.48-1.42c0-4.13,3.35-7.48,7.48-7.48s7.48,3.35,7.48,7.48-3.35,7.48-7.48,7.48-7.48-3.35-7.48-7.48Z"/>
          <circle class="cls-5" cx="112.26" cy="6.54" r="6.38"/>
          <polygon class="cls-5" points="68.68 -9.47 118.27 -9.47 109.3 10.51 77.91 10.51 68.68 -9.47"/>
        </g>
        <g>
          <path class="cls-19" d="m97.85,14.16c0-3.66,2.97-6.63,6.63-6.63s6.63,2.97,6.63,6.63-2.97,6.63-6.63,6.63-6.63-2.97-6.63-6.63Z"/>
          <circle class="cls-19" cx="93.88" cy="16.15" r="10.74"/>
          <path class="cls-19" d="m76.7,8.63c0-5.1,4.13-9.23,9.23-9.23s9.23,4.13,9.23,9.23-4.13,9.23-9.23,9.23-9.23-4.13-9.23-9.23Z"/>
          <path class="cls-19" d="m65.12,1.33c0-4.96,4.02-8.98,8.98-8.98s8.98,4.02,8.98,8.98-4.02,8.98-8.98,8.98-8.98-4.02-8.98-8.98Z"/>
          <path class="cls-19" d="m112.28-1.62c0-4.13,3.35-7.48,7.48-7.48s7.48,3.35,7.48,7.48-3.35,7.48-7.48,7.48-7.48-3.35-7.48-7.48Z"/>
          <path class="cls-19" d="m105.68,6.34c0-3.52,2.86-6.38,6.38-6.38s6.38,2.86,6.38,6.38-2.86,6.38-6.38,6.38-6.38-2.86-6.38-6.38Z"/>
          <polygon class="cls-19" points="68.48 -9.67 118.07 -9.67 109.1 10.31 77.71 10.31 68.48 -9.67"/>
        </g>
      </g>
    </g>
  </g>
</svg>