<?xml version="1.0" encoding="UTF-8"?><svg id="_Ñëîé_4" xmlns="http://www.w3.org/2000/svg" width="200" height="75" viewBox="0 0 200 75"><defs><style>.cls-1{fill:#fff;}.cls-2{fill:#f0f9ff;}.cls-3{fill:#b8dbf2;}.cls-4{fill:#e1f0fa;}.cls-5{fill:#c8e4f7;}</style></defs><path class="cls-5" d="m0,25.9v.15c1.09.23,2.07.76,2.84,1.5C2.08,26.75,1.1,26.17,0,25.9Z"/><path class="cls-5" d="m4.66,31.89c.39-.06.79-.1,1.21-.1,2.19,0,4.18.85,5.67,2.23,0,0,.01,0,.02,0-1.51-1.5-3.59-2.43-5.89-2.43-.34,0-.68.03-1.01.07,0,.05,0,.09,0,.13,0,.03,0,.06,0,.1Z"/><path class="cls-3" d="m0,34.19c1.24-1.22,2.86-2.05,4.66-2.31,0-.03,0-.06,0-.1,0-.05,0-.09,0-.13-.04-1.61-.72-3.07-1.81-4.11C2.07,26.81,1.09,26.28,0,26.05v8.14Z"/><path class="cls-3" d="m5.59,41.76c-.05-.32-.08-.64-.08-.98,0-3.49,2.63-6.37,6.02-6.77-1.49-1.38-3.48-2.23-5.67-2.23-.41,0-.81.04-1.21.1C2.86,32.15,1.24,32.98,0,34.19v8.39c1.26-.59,2.66-.94,4.14-.94.49,0,.98.05,1.45.12Z"/><path class="cls-5" d="m190.73,29.62c.28,0,.56.03.83.07,0-.06.02-.11.03-.17-.34-.06-.69-.1-1.05-.1-2.16,0-4.04,1.17-5.05,2.9.06.08.12.16.18.23,1.01-1.75,2.9-2.94,5.07-2.94Z"/><path class="cls-5" d="m180.98,30.22c1.57,0,2.99.62,4.04,1.62-1.07-1.12-2.57-1.82-4.24-1.82-2.13,0-3.98,1.13-5.01,2.83.09.03.18.06.26.1,1.04-1.64,2.86-2.72,4.95-2.72Z"/><path class="cls-5" d="m191.79,29.72c.73-3.88,4.13-6.81,8.21-6.81v-.19c-.07,0-.13-.01-.2-.01-4.09,0-7.49,2.94-8.21,6.81-.01.05-.02.11-.03.17.08.01.15.02.23.03Z"/><path class="cls-3" d="m192.27,34.45c-.41-.98-.63-2.06-.63-3.19,0-.53.05-1.05.15-1.55-.07-.01-.15-.02-.23-.03-.27-.04-.55-.07-.83-.07-2.17,0-4.06,1.18-5.07,2.94.74.98,1.19,2.2,1.19,3.53,0,.11-.01.22-.02.33,1.11.27,2.13.73,3.03,1.37.48-1.33,1.32-2.48,2.41-3.33Z"/><path class="cls-3" d="m176.04,32.94c1.47.54,2.78,1.4,3.85,2.5.47.46.89.96,1.27,1.49,1.1-.49,2.32-.77,3.61-.77.71,0,1.41.09,2.07.25,0-.11.02-.22.02-.33,0-1.33-.45-2.54-1.19-3.53-.06-.08-.12-.16-.18-.23-.14-.17-.3-.33-.46-.48-1.05-1-2.47-1.62-4.04-1.62-2.08,0-3.91,1.09-4.95,2.72Z"/><path class="cls-3" d="m191.79,29.72c-.09.5-.15,1.02-.15,1.55,0,1.13.23,2.2.63,3.19,1.25-.97,2.82-1.56,4.52-1.56,1.15,0,2.24.27,3.21.74v-10.73c-4.09,0-7.49,2.94-8.21,6.81Z"/><path class="cls-4" d="m78.25,36.6c1.05,0,2.03.25,2.9.69.01-.03.03-.05.04-.08-.93-.52-2.01-.82-3.15-.82-1.8,0-3.42.73-4.6,1.91.16-.03.33-.05.5-.08,1.14-1.02,2.65-1.64,4.3-1.64Z"/><path class="cls-4" d="m116.13,35.16c2.65,0,5.06,1.06,6.82,2.77-1.78-1.83-4.27-2.97-7.02-2.97-.92,0-1.81.14-2.65.37.04.07.07.15.11.22.87-.25,1.79-.4,2.75-.4Z"/><path class="cls-4" d="m95.49,28.72c1.64,0,3.13.65,4.24,1.7-1.12-1.17-2.69-1.9-4.44-1.9-3.39,0-6.14,2.75-6.14,6.14.07.03.14.06.21.1.06-3.34,2.78-6.04,6.13-6.04Z"/><path class="cls-4" d="m81.39,37.42c1.05-1.87,3.05-3.14,5.35-3.14.93,0,1.81.21,2.6.59,0-.03,0-.07,0-.1-.07-.03-.14-.07-.21-.1-.79-.37-1.67-.59-2.6-.59-2.3,0-4.3,1.27-5.35,3.14-.01.03-.03.05-.04.08.08.04.16.08.24.12Z"/><path class="cls-4" d="m104.65,29.89c2.59,0,4.94,1.04,6.67,2.71-1.74-1.79-4.17-2.91-6.87-2.91-1.59,0-3.08.39-4.4,1.07.06.07.13.14.19.21,1.32-.69,2.82-1.08,4.41-1.08Z"/><path class="cls-4" d="m67.28,37.44c1.75,0,3.39.48,4.8,1.3.03-.01.05-.02.08-.03-1.47-.93-3.21-1.47-5.08-1.47-4.19,0-7.74,2.69-9.04,6.44.05.12.09.24.14.36,1.25-3.83,4.85-6.6,9.1-6.6Z"/><path class="cls-5" d="m80.65,40.99c-.02-.19-.03-.39-.03-.58,0-1.08.28-2.1.78-2.98-.08-.04-.16-.08-.24-.12-.87-.44-1.86-.69-2.9-.69-1.65,0-3.15.62-4.3,1.64.31-.04.62-.07.94-.07,2.05,0,3.89.85,5.2,2.22.19.19.38.38.56.59Z"/><path class="cls-5" d="m113.38,35.56c.54,1.2.84,2.52.84,3.91,0,.94-.14,1.84-.39,2.69l1.91.65c.73-.26,1.52-.41,2.34-.41.98,0,1.91.2,2.75.57.58-1.66,1.53-3.15,2.77-4.34-.2-.24-.42-.47-.65-.69-1.76-1.71-4.17-2.77-6.82-2.77-.95,0-1.87.14-2.75.4Z"/><path class="cls-5" d="m89.35,34.76s0,.07,0,.1c1.15.54,2.1,1.42,2.72,2.52l2.96-1.62.7.24c.85-2.17,2.46-3.96,4.51-5.03-.06-.07-.12-.14-.19-.21-.1-.12-.21-.23-.33-.34-1.1-1.05-2.59-1.7-4.24-1.7-3.36,0-6.08,2.69-6.13,6.04Z"/><path class="cls-5" d="m80.65,40.99c.5.6.89,1.28,1.18,2.02l10.25-5.62c-.62-1.1-1.58-1.98-2.72-2.52-.79-.37-1.67-.59-2.6-.59-2.3,0-4.3,1.27-5.35,3.14-.49.88-.78,1.9-.78,2.98,0,.2.01.39.03.58Z"/><path class="cls-5" d="m100.24,30.97c-2.05,1.07-3.66,2.85-4.51,5.03l18.11,6.16c.25-.86.39-1.76.39-2.69,0-1.4-.31-2.72-.84-3.91-.03-.08-.07-.15-.11-.22-.49-1.02-1.15-1.95-1.96-2.73-1.72-1.67-4.07-2.71-6.67-2.71-1.59,0-3.09.39-4.41,1.08Z"/><path class="cls-5" d="m65.18,43c.96,0,1.89.17,2.75.46.59-2.14,2.14-3.88,4.16-4.73-1.41-.82-3.05-1.3-4.8-1.3-4.25,0-7.85,2.77-9.1,6.6.13.33.24.66.34,1.01.53-.21,1.1-.36,1.69-.43,1.4-1.01,3.11-1.61,4.97-1.61Z"/><path class="cls-5" d="m81.82,43c.31.81.49,1.68.49,2.59.74-.32,1.56-.5,2.41-.5,1.74,0,3.31.73,4.43,1.9.95.91,1.61,2.12,1.82,3.48,1.16-1.02,2.68-1.63,4.35-1.63.3,0,.6.03.89.07,1.72-3.64,5.41-6.17,9.71-6.17,2.52,0,4.84.88,6.67,2.33.8-1.03,1.89-1.82,3.14-2.27l-1.91-.65-18.11-6.16-.7-.24-2.96,1.62-10.25,5.62Z"/><path class="cls-4" d="m21,32.34c.13,0,.26.01.39.02.02-.06.04-.12.07-.19-.22-.02-.44-.03-.66-.03-2.19,0-4.14.99-5.44,2.55.09.04.18.08.26.13,1.3-1.52,3.22-2.48,5.38-2.48Z"/><path class="cls-4" d="m21.66,32.37c.93-2.38,3.25-4.07,5.96-4.07,1.72,0,3.28.68,4.43,1.78-1.17-1.22-2.81-1.98-4.63-1.98-2.71,0-5.03,1.69-5.96,4.07-.02.06-.05.12-.07.19.09,0,.18,0,.27.01Z"/><path class="cls-4" d="m34.78,31.79c2.67,0,5.1,1.07,6.87,2.8-1.79-1.85-4.3-3-7.07-3-.44,0-.87.04-1.3.09.04.07.07.14.1.21.46-.06.92-.11,1.39-.11Z"/><path class="cls-4" d="m48.22,37.23c2.91,0,5.54,1.16,7.46,3.04-1.94-2-4.66-3.24-7.66-3.24-1.47,0-2.87.3-4.14.83.03.08.06.17.09.25,1.3-.56,2.74-.88,4.25-.88Z"/><path class="cls-4" d="m5.62,41.94c0-.06-.02-.12-.03-.17-.47-.07-.96-.12-1.45-.12C2.66,41.64,1.26,41.99,0,42.58v.3c1.31-.66,2.78-1.03,4.34-1.03.43,0,.86.04,1.28.09Z"/><path class="cls-4" d="m5.52,40.79c0,.33.03.66.08.98,0,.06.02.12.03.17.06,0,.12.02.17.03-.05-.32-.08-.64-.08-.98,0-3.76,3.05-6.82,6.82-6.82,1.09,0,2.12.26,3.03.72.02-.02.04-.05.06-.07-.09-.05-.17-.09-.26-.13-.91-.45-1.94-.72-3.03-.72-.26,0-.52.02-.78.05,0,0-.01,0-.02,0-3.39.39-6.02,3.27-6.02,6.77Z"/><path class="cls-4" d="m60.21,44.61c-.59.07-1.16.22-1.69.43.02.08.04.17.06.25.39-.17.8-.29,1.23-.39.13-.1.26-.2.4-.3Z"/><path class="cls-5" d="m17.29,36.11l4.22.52c-.19-.61-.29-1.25-.29-1.92,0-.83.16-1.61.45-2.34-.09,0-.18,0-.27-.01-.13,0-.26-.02-.39-.02-2.15,0-4.08.96-5.38,2.48-.02.02-.04.04-.06.07.64.32,1.22.73,1.73,1.22Z"/><path class="cls-5" d="m21.66,32.37c-.28.72-.45,1.51-.45,2.34,0,.67.1,1.32.29,1.92l4.48.55c1.43-2.8,4.16-4.83,7.39-5.29-.03-.07-.07-.15-.1-.21-.32-.6-.74-1.14-1.22-1.6-1.15-1.1-2.71-1.78-4.43-1.78-2.71,0-5.03,1.69-5.96,4.07Z"/><path class="cls-5" d="m33.38,31.9c-3.24.46-5.96,2.48-7.39,5.29l15.2,1.88.42.46c.72-.57,1.51-1.05,2.36-1.42-.03-.08-.06-.17-.09-.25-.52-1.24-1.28-2.35-2.23-3.27-1.78-1.73-4.2-2.8-6.87-2.8-.47,0-.94.04-1.39.11Z"/><path class="cls-5" d="m43.97,38.11c-.85.37-1.64.85-2.36,1.42l9.85,10.73c.74-.14,1.51-.22,2.3-.22.28,0,.56.02.84.04.48-2.16,1.99-3.94,3.99-4.78-.02-.08-.04-.17-.06-.25-.1-.34-.21-.68-.34-1.01-.05-.12-.09-.24-.14-.36-.56-1.29-1.36-2.44-2.36-3.41-1.93-1.88-4.56-3.04-7.46-3.04-1.51,0-2.95.32-4.25.88Z"/><path class="cls-5" d="m6.8,44.67c-.52-.8-.86-1.72-1.01-2.7-.06,0-.12-.02-.17-.03-.42-.06-.84-.09-1.28-.09C2.78,41.85,1.31,42.22,0,42.88v9.65c1.01-.52,2.12-.87,3.29-1.01.17-2.76,1.49-5.21,3.51-6.86Z"/><path class="cls-5" d="m12.62,42.53l1.71-6.79,2.96.37c-.51-.49-1.09-.9-1.73-1.22-.91-.45-1.94-.72-3.03-.72-3.76,0-6.82,3.05-6.82,6.82,0,.33.03.66.08.98.14.98.49,1.9,1.01,2.7,1.59-1.3,3.61-2.08,5.81-2.13Z"/><path class="cls-5" d="m59.82,44.91c-.43.09-.84.22-1.23.39-2,.85-3.51,2.62-3.99,4.78.74.05,1.46.17,2.16.34.28-2.22,1.41-4.17,3.06-5.51Z"/><path class="cls-5" d="m17.29,36.11l-2.96-.37-1.71,6.79c.07,0,.15-.01.22-.01.57,0,1.12.06,1.67.15.65-2.82,3.17-4.92,6.18-4.92,1.8,0,3.43.76,4.58,1.96,1.13,1.08,1.85,2.56,1.95,4.22,1.67.42,3.16,1.3,4.32,2.5.33.32.62.66.9,1.02,1.09-.99,2.53-1.6,4.12-1.6s3.15.66,4.25,1.72c.52-.14,1.06-.22,1.63-.22,1.74,0,3.31.73,4.43,1.9.61.58,1.11,1.29,1.43,2.09.99-.49,2.05-.86,3.17-1.08l-9.85-10.73-.42-.46-15.2-1.88-4.48-.55-4.22-.52Z"/><path class="cls-4" d="m152.53,29.92c1.34,0,2.59.37,3.67,1.01.01-.02.02-.04.03-.06-1.13-.73-2.47-1.15-3.91-1.15-3.07,0-5.69,1.92-6.74,4.62.08.04.15.09.22.14,1.07-2.67,3.67-4.55,6.72-4.55Z"/><path class="cls-4" d="m192.27,34.45c-1.09.85-1.94,2-2.41,3.33.07.05.14.11.21.16,1.03-2.83,3.74-4.85,6.92-4.85,1.07,0,2.09.23,3.01.65v-.1c-.97-.47-2.06-.74-3.21-.74-1.71,0-3.27.59-4.52,1.56Z"/><path class="cls-4" d="m120.83,42.97c.08.03.15.07.23.11,1.54-4.31,5.64-7.4,10.48-7.4,1.7,0,3.3.39,4.74,1.07.02-.03.03-.05.05-.08-1.5-.76-3.19-1.19-4.99-1.19-3.01,0-5.74,1.2-7.74,3.14-1.24,1.2-2.19,2.68-2.77,4.34Z"/><path class="cls-4" d="m172.63,32.49c2.82,0,5.37,1.13,7.25,2.95-1.07-1.1-2.38-1.95-3.85-2.5-.09-.03-.17-.07-.26-.1-1.05-.36-2.17-.56-3.34-.56s-2.31.21-3.37.57c.02.08.04.17.06.25,1.1-.39,2.27-.62,3.5-.62Z"/><path class="cls-4" d="m156.43,31.07c1.23-1.99,3.42-3.32,5.93-3.32,1.87,0,3.57.74,4.82,1.94-1.27-1.32-3.05-2.15-5.02-2.15-2.51,0-4.7,1.33-5.93,3.32-.01.02-.02.04-.03.06.08.05.16.09.24.14Z"/><path class="cls-4" d="m112.6,45.08c.07.06.15.11.22.17,1.28-1.62,3.25-2.66,5.46-2.66.98,0,1.91.2,2.75.57.01-.03.02-.06.03-.09-.08-.04-.15-.08-.23-.11-.84-.36-1.77-.57-2.75-.57-.82,0-1.61.15-2.34.41-1.25.45-2.34,1.24-3.14,2.27Z"/><path class="cls-4" d="m136.53,36.87c1.24-1.93,3.4-3.22,5.86-3.22,1.23,0,2.39.32,3.39.88,0-.02.02-.04.02-.06-.07-.05-.15-.09-.22-.14-1-.56-2.16-.88-3.39-.88-2.46,0-4.63,1.28-5.86,3.22-.02.03-.03.05-.05.08.08.04.17.08.25.12Z"/><path class="cls-4" d="m184.96,36.36c1.9,0,3.66.61,5.1,1.63,0-.01,0-.03.01-.04-.07-.05-.14-.11-.21-.16-.9-.64-1.92-1.11-3.03-1.37-.67-.16-1.36-.25-2.07-.25-1.29,0-2.5.28-3.61.77.05.07.1.15.15.22,1.11-.51,2.35-.8,3.65-.8Z"/><path class="cls-5" d="m147.5,35.9l7.95-2.01c.12-1.02.47-1.97.98-2.81-.08-.05-.16-.1-.24-.14-1.08-.64-2.33-1.01-3.67-1.01-3.05,0-5.65,1.89-6.72,4.55,0,.02-.02.04-.02.06.64.36,1.22.82,1.72,1.36Z"/><path class="cls-5" d="m190.07,37.94s0,.03-.01.04c.5.35.96.76,1.37,1.21.19-.01.37-.03.56-.03,1.67,0,3.23.45,4.57,1.23l3.43.59v-7.24c-.92-.41-1.94-.65-3.01-.65-3.18,0-5.89,2.02-6.92,4.85Z"/><path class="cls-5" d="m123.31,44.76c.46-.11.94-.18,1.44-.18.8,0,1.57.16,2.27.44v-3.94l8.64-2.18c.19-.72.48-1.4.88-2.02-.08-.04-.17-.08-.25-.12-1.44-.68-3.04-1.07-4.74-1.07-4.84,0-8.94,3.09-10.48,7.4-.01.03-.02.06-.03.09.87.37,1.64.92,2.28,1.59Z"/><path class="cls-5" d="m180.41,37.62c.29-.17.59-.33.89-.47-.05-.08-.1-.15-.15-.22-.38-.54-.8-1.04-1.27-1.49-1.87-1.82-4.43-2.95-7.25-2.95-1.23,0-2.41.23-3.5.62.12.52.2,1.06.2,1.61,0,.34-.03.67-.08.99l11.17,1.91Z"/><path class="cls-5" d="m156.43,31.07c-.52.84-.86,1.79-.98,2.81l1.28-.32,12.52,2.15c.05-.33.08-.65.08-.99,0-.56-.07-1.09-.2-1.61-.02-.08-.04-.17-.06-.25-.34-1.22-1-2.3-1.88-3.16-1.25-1.2-2.95-1.94-4.82-1.94-2.51,0-4.7,1.33-5.93,3.32Z"/><path class="cls-5" d="m113.61,46c1.27,1.23,2.24,2.78,2.77,4.51.77.02,1.52.13,2.24.31,0-.04,0-.08,0-.11,0-2.89,2-5.3,4.69-5.95-.64-.67-1.41-1.22-2.28-1.59-.84-.36-1.77-.57-2.75-.57-2.22,0-4.19,1.04-5.46,2.66.28.23.54.48.8.74Z"/><path class="cls-5" d="m135.66,38.89l11.84-2.99c-.5-.54-1.07-1-1.72-1.36-1-.56-2.16-.88-3.39-.88-2.46,0-4.63,1.28-5.86,3.22-.39.61-.69,1.29-.88,2.02Z"/><path class="cls-5" d="m184.96,36.36c-1.3,0-2.54.29-3.65.8-.31.14-.61.3-.89.47l9.9,1.7c.37-.07.74-.11,1.12-.13-.42-.45-.87-.85-1.37-1.21-1.44-1.02-3.2-1.63-5.1-1.63Z"/><path class="cls-5" d="m147.5,35.9l-11.84,2.99-8.64,2.18v3.94c.22.09.44.19.65.3,2.22-3.67,6.23-6.13,10.83-6.13,3.55,0,6.75,1.46,9.05,3.81.4.39.76.8,1.1,1.24,1.07-1.77,3.01-2.95,5.23-2.95,1.74,0,3.31.73,4.43,1.9.51.48.93,1.05,1.25,1.69,2.11-2.82,5.47-4.65,9.26-4.65,1.02,0,2,.14,2.93.39,1.29-1.96,3.51-3.26,6.04-3.26,2.05,0,3.89.85,5.2,2.22.85.82,1.51,1.85,1.88,3,1.34-1.66,3.25-2.84,5.44-3.25l-9.9-1.7-11.17-1.91-12.52-2.15-1.28.32-7.95,2.01Z"/><path class="cls-5" d="m198.56,41.94c.56.54,1.04,1.15,1.44,1.81v-2.77l-3.43-.59c.73.43,1.4.95,1.99,1.55Z"/><path class="cls-2" d="m60.21,44.61c-.13.1-.27.19-.4.3-1.65,1.34-2.78,3.29-3.06,5.51.07.02.15.04.22.06.59-4.11,4.12-7.28,8.4-7.28.88,0,1.72.13,2.52.38.01-.04.02-.08.03-.12-.86-.3-1.79-.46-2.75-.46-1.86,0-3.57.6-4.97,1.61Z"/><path class="cls-2" d="m48.29,51.33c.03.08.06.17.09.25,1.67-.86,3.57-1.35,5.58-1.35,1.04,0,2.04.14,3,.38,0-.05.01-.1.02-.14-.07-.02-.15-.04-.22-.06-.7-.18-1.42-.29-2.16-.34-.28-.02-.55-.04-.84-.04-.79,0-1.55.08-2.3.22-1.12.21-2.18.58-3.17,1.08Z"/><path class="cls-2" d="m84.93,45.3c1.64,0,3.13.65,4.23,1.7-1.12-1.17-2.69-1.9-4.43-1.9-.86,0-1.67.18-2.41.5,0,0,0,0,0,0,0,.1-.01.2-.02.3.8-.38,1.69-.6,2.63-.6Z"/><path class="cls-2" d="m40.98,47.75s.02.02.03.02c.52-.14,1.06-.22,1.63-.22,1.64,0,3.13.65,4.23,1.7-1.12-1.17-2.68-1.9-4.43-1.9-.56,0-1.11.08-1.63.22.06.06.12.12.17.18Z"/><path class="cls-2" d="m67.93,43.46s-.02.08-.03.12c.08.02.15.06.23.08.85-3.05,3.64-5.29,6.96-5.29,1.94,0,3.71.77,5,2.02-1.31-1.37-3.16-2.22-5.2-2.22-.32,0-.63.03-.94.07-.17.02-.34.04-.5.08-.44.09-.87.22-1.28.39-.03.01-.05.02-.08.03-2.02.85-3.56,2.59-4.16,4.73Z"/><path class="cls-4" d="m56.98,50.48s-.02.1-.02.14c1.88.47,3.58,1.37,5.01,2.6l7.5-3.1c-1-1.24-1.6-2.81-1.6-4.53,0-.67.1-1.32.27-1.94-.08-.03-.15-.06-.23-.08-.8-.25-1.64-.38-2.52-.38-4.28,0-7.81,3.16-8.4,7.28Z"/><path class="cls-4" d="m48.02,56.59c.41.53.74,1.13.97,1.78,1.72-1.67,4.07-2.7,6.65-2.7.96,0,1.88.14,2.75.41v-1.38l3.57-1.47c-1.42-1.23-3.13-2.13-5.01-2.6-.96-.24-1.96-.38-3-.38-2.01,0-3.9.49-5.58,1.35.24.65.37,1.35.37,2.09,0,1.05-.27,2.05-.74,2.91Z"/><path class="cls-4" d="m89.4,52.5c.39-.77.92-1.46,1.57-2.02-.21-1.36-.87-2.57-1.82-3.48-1.1-1.05-2.59-1.7-4.23-1.7-.94,0-1.83.22-2.63.6-.05,1.34-.47,2.58-1.15,3.63l8.26,2.98Z"/><path class="cls-4" d="m42.63,47.55c-.56,0-1.11.08-1.63.22,1.15,1.11,1.87,2.67,1.87,4.4,0,.58-.09,1.14-.24,1.67.01,0,.02,0,.04,0,1.84,0,3.5.77,4.68,2.01.24.23.46.47.66.74.47-.87.74-1.86.74-2.91,0-.73-.14-1.43-.37-2.09-.03-.08-.06-.17-.09-.25-.33-.79-.82-1.5-1.43-2.09-1.1-1.05-2.59-1.7-4.23-1.7Z"/><path class="cls-4" d="m69.46,50.13l6.23-2.57,5.46,1.97c.68-1.05,1.1-2.29,1.15-3.63,0-.1.02-.2.02-.3,0,0,0,0,0,0,0-.91-.18-1.79-.49-2.59-.28-.74-.68-1.42-1.18-2.02-.17-.21-.36-.4-.56-.59-1.3-1.25-3.06-2.02-5-2.02-3.32,0-6.11,2.24-6.96,5.29-.17.62-.27,1.26-.27,1.94,0,1.72.6,3.29,1.6,4.53Z"/><path class="cls-4" d="m81.39,63.91c-.02-.2-.03-.4-.03-.61,0-3.52,2.86-6.38,6.38-6.38.39,0,.77.04,1.15.11-.12-.5-.19-1.02-.19-1.56,0-1.07.26-2.08.71-2.97l-8.26-2.98-5.46-1.97-6.23,2.57-7.5,3.1-3.57,1.47v1.38c1.58.47,2.99,1.35,4.11,2.5,1.08,1.05,1.91,2.35,2.4,3.81.85-.42,1.81-.67,2.82-.67,1.8,0,3.43.76,4.58,1.96.13.12.25.25.37.38,1.43-.43,2.96-.59,4.54-.38.44.06.87.15,1.3.26.49-.1,1-.16,1.53-.16.46,0,.91.05,1.35.13Z"/><path class="cls-2" d="m138.7,39.39c3.45,0,6.57,1.38,8.85,3.61-2.3-2.35-5.5-3.81-9.05-3.81-4.6,0-8.61,2.46-10.83,6.13.08.04.16.1.24.14,2.23-3.64,6.22-6.07,10.8-6.07Z"/><path class="cls-2" d="m118.63,50.97c0-.05,0-.1,0-.15-.72-.19-1.47-.3-2.24-.31.02.06.03.13.05.19.76,0,1.49.1,2.2.27Z"/><path class="cls-2" d="m169.02,40.42c.92,0,1.8.12,2.66.32.03-.04.05-.09.08-.13-.94-.25-1.92-.39-2.93-.39-3.79,0-7.15,1.83-9.26,4.65.05.09.09.19.14.28,2.11-2.87,5.5-4.74,9.33-4.74Z"/><path class="cls-2" d="m154.08,41.49c1.64,0,3.13.65,4.23,1.7-1.12-1.17-2.68-1.9-4.43-1.9-2.22,0-4.16,1.18-5.23,2.95.06.08.12.16.18.24,1.07-1.79,3.02-2.99,5.26-2.99Z"/><path class="cls-2" d="m118.62,50.7s0,.08,0,.11c0,.05,0,.1,0,.15.06.02.13.03.19.05,0-.04,0-.08,0-.11,0-3.38,2.74-6.13,6.13-6.13,1.06,0,2.05.27,2.92.74.01-.02.02-.04.03-.06-.08-.05-.15-.1-.24-.14-.21-.11-.43-.21-.65-.3-.7-.28-1.47-.44-2.27-.44-.5,0-.98.07-1.44.18-2.69.65-4.69,3.06-4.69,5.95Z"/><path class="cls-2" d="m171.96,40.81c1.29-1.96,3.51-3.26,6.04-3.26,1.94,0,3.7.77,5,2.02-1.31-1.37-3.16-2.22-5.2-2.22-2.53,0-4.75,1.3-6.04,3.26-.03.04-.05.09-.08.13.09.02.19.05.28.07Z"/><path class="cls-4" d="m138.7,39.39c-4.57,0-8.57,2.43-10.8,6.07-.01.02-.02.04-.03.06,1.91,1.04,3.21,3.06,3.21,5.39,0,.66-.11,1.3-.3,1.89l17.49-3.28c-.2-.6-.31-1.24-.31-1.9,0-1.15.32-2.22.87-3.14-.06-.08-.12-.16-.18-.24-.34-.44-.71-.85-1.1-1.24-2.28-2.23-5.4-3.61-8.85-3.61Z"/><path class="cls-4" d="m116.76,52.25c1.01.33,1.93.83,2.75,1.47-.42-.81-.66-1.73-.68-2.7-.06-.02-.13-.03-.19-.05-.71-.17-1.44-.27-2.2-.27.15.5.25,1.02.32,1.55Z"/><path class="cls-4" d="m172.49,49.46c-1.08-1.26-1.73-2.89-1.73-4.68,0-1.47.44-2.83,1.19-3.97-.09-.02-.18-.05-.28-.07-.85-.2-1.74-.32-2.66-.32-3.83,0-7.22,1.87-9.33,4.74.33.75.52,1.58.52,2.45,0,1.27-.39,2.45-1.05,3.43l10.28,1.68c.69-1.36,1.76-2.49,3.06-3.27Z"/><path class="cls-4" d="m154.08,41.49c-2.24,0-4.19,1.2-5.26,2.99-.55.92-.87,1.99-.87,3.14,0,.67.11,1.3.31,1.9l.72-.14,10.17,1.67c.66-.98,1.05-2.16,1.05-3.43,0-.87-.19-1.7-.52-2.45-.04-.1-.09-.19-.14-.28-.32-.63-.74-1.2-1.25-1.69-1.1-1.05-2.59-1.7-4.23-1.7Z"/><path class="cls-4" d="m131.07,50.9c0-2.33-1.3-4.35-3.21-5.39-.87-.47-1.86-.74-2.92-.74-3.38,0-6.13,2.74-6.13,6.13,0,.04,0,.08,0,.11.02.97.26,1.89.68,2.7.35.27.67.56.98.87.04.04.08.07.12.11l10.16-1.9c.19-.6.3-1.23.3-1.89Z"/><path class="cls-4" d="m177.99,37.55c-2.53,0-4.75,1.3-6.04,3.26-.75,1.14-1.19,2.5-1.19,3.97,0,1.79.65,3.42,1.73,4.68,1.16-.7,2.5-1.11,3.94-1.14,0-.05-.02-.1-.02-.15,0-2.91,2.36-5.26,5.26-5.26.91,0,1.75.25,2.5.66.21-.34.44-.68.69-.99-.37-1.15-1.02-2.18-1.88-3-1.3-1.25-3.06-2.02-5-2.02Z"/><path class="cls-4" d="m136.7,64.31c.54,0,1.05.11,1.53.29.21-3.6,3.19-6.45,6.84-6.45,1.19,0,2.3.3,3.28.83.89-4.37,4.75-7.66,9.39-7.66,2.69,0,5.13,1.12,6.87,2.91.11.11.22.23.33.34.72-.37,1.52-.59,2.38-.59.54,0,1.05.11,1.54.26.15-.52.34-1.02.58-1.5l-10.28-1.68-10.17-1.67-.72.14-17.49,3.28-10.16,1.9c1.32,1.33,2.23,3.07,2.55,5,.8-.24,1.65-.37,2.54-.37,2.53,0,4.81,1.05,6.44,2.73.88.85,1.58,1.87,2.06,3.02.71-.49,1.57-.77,2.5-.77Z"/><path class="cls-1" d="m181.68,42.9c-2.91,0-5.26,2.36-5.26,5.26,0,.05.01.1.02.15.06,0,.13,0,.19,0,.03-2.88,2.37-5.2,5.25-5.2.81,0,1.57.2,2.26.53.01-.02.03-.05.04-.07-.75-.41-1.59-.66-2.5-.66Z"/><path class="cls-1" d="m167.31,53.97c-.86,0-1.66.23-2.38.59.06.07.13.14.19.21.72-.37,1.53-.6,2.39-.6.46,0,.89.08,1.31.18.01-.04.02-.09.03-.13-.49-.15-1-.26-1.54-.26Z"/><path class="cls-1" d="m176.44,48.32c-1.44.04-2.79.45-3.94,1.14-1.3.78-2.37,1.91-3.06,3.27-.24.47-.44.98-.58,1.5-.01.04-.02.09-.03.13.08.02.16.05.23.07.93-3.35,3.96-5.82,7.58-5.91,0-.05-.02-.1-.02-.15,0-.02,0-.04,0-.06-.06,0-.13,0-.19,0Z"/><path class="cls-1" d="m148.35,58.98c-.97-.53-2.09-.83-3.28-.83-3.65,0-6.63,2.85-6.84,6.45.07.03.14.04.21.07.28-3.54,3.23-6.32,6.83-6.32,1.1,0,2.14.27,3.06.73,0-.03,0-.06.01-.1Z"/><path class="cls-1" d="m138.44,64.67c-.07-.03-.14-.04-.21-.07-.48-.18-.99-.29-1.53-.29-.93,0-1.79.29-2.5.77.04.09.07.19.1.28.73-.53,1.63-.85,2.6-.85.54,0,1.05.11,1.53.29,0-.04,0-.09,0-.13Z"/><path class="cls-1" d="m190.31,39.32c-2.19.41-4.1,1.59-5.44,3.25-.25.31-.48.65-.69.99-.01.02-.03.05-.04.07.08.04.16.09.24.13,1.61-2.64,4.5-4.4,7.81-4.4,2.47,0,4.72.99,6.36,2.58-.59-.6-1.26-1.13-1.99-1.55-1.35-.78-2.91-1.23-4.57-1.23-.19,0-.38.02-.56.03-.38.02-.75.06-1.12.13Z"/><path class="cls-1" d="m157.73,51.32c-4.63,0-8.5,3.29-9.39,7.66,0,.03,0,.06-.01.1.07.04.15.07.21.1.89-4.37,4.75-7.66,9.39-7.66,2.59,0,4.94,1.03,6.67,2.71-1.74-1.79-4.17-2.91-6.87-2.91Z"/><path class="cls-2" d="m181.88,43.1c-2.89,0-5.22,2.32-5.25,5.2,0,.02,0,.04,0,.06,0,.05.01.1.02.15.07,0,.14-.01.21-.01,2.13,0,4.06.83,5.5,2.17l.87-.41c-.11-.57-.17-1.15-.17-1.76,0-1.74.49-3.36,1.34-4.74-.08-.04-.16-.09-.24-.13-.69-.33-1.45-.53-2.26-.53Z"/><path class="cls-2" d="m168.75,56.6c0-.75.11-1.48.3-2.17-.08-.02-.15-.05-.23-.07-.42-.11-.86-.18-1.31-.18-.87,0-1.67.23-2.39.6.82.93,1.46,2.02,1.87,3.21l1.79-.85c-.01-.18-.03-.35-.03-.53Z"/><path class="cls-2" d="m176.85,48.51c-.07,0-.14,0-.21.01-3.63.09-6.65,2.56-7.58,5.91-.19.69-.3,1.42-.3,2.17,0,.18.02.36.03.53l13.57-6.46c-1.45-1.34-3.38-2.17-5.5-2.17Z"/><path class="cls-2" d="m148.36,61.1c0-.66.07-1.3.19-1.91-.07-.04-.14-.07-.21-.1-.92-.46-1.96-.73-3.06-.73-3.61,0-6.56,2.78-6.83,6.32,0,.04,0,.09,0,.13,1.66.61,2.84,2.17,2.89,4.03l8.24-3.08c-.77-1.38-1.21-2.96-1.21-4.65Z"/><path class="cls-2" d="m141.33,68.83c-.05-1.86-1.24-3.41-2.89-4.03-.48-.18-.99-.29-1.53-.29-.97,0-1.87.32-2.6.85.37.98.58,2.04.58,3.15,0,.45-.04.89-.11,1.33h3.85l2.71-1.01Z"/><path class="cls-2" d="m198.56,41.94c-1.65-1.6-3.89-2.58-6.36-2.58-3.31,0-6.21,1.77-7.81,4.4-.84,1.38-1.34,3-1.34,4.74,0,.6.06,1.19.17,1.76l.96-.46,11.19,4.77c.52-2.3,2.33-4.11,4.63-4.62v-6.2c-.4-.66-.89-1.27-1.44-1.81Z"/><path class="cls-2" d="m195.37,54.58l4.63,1.97v-6.59c-2.3.51-4.11,2.32-4.63,4.62Z"/><path class="cls-2" d="m165.12,54.78c-.06-.07-.12-.14-.19-.21-.11-.12-.22-.23-.33-.34-1.72-1.67-4.07-2.71-6.67-2.71-4.63,0-8.5,3.29-9.39,7.66-.13.62-.19,1.26-.19,1.91,0,1.69.44,3.27,1.21,4.65l5.32-1.99,12.1-5.76c-.41-1.2-1.05-2.28-1.87-3.21Z"/><path class="cls-2" d="m195.37,54.58l-11.19-4.77-.96.46-.87.41-13.57,6.46-1.79.85-12.1,5.76-5.32,1.99-8.24,3.08-2.71,1.01h30.26c.27-2.98,2.78-5.32,5.84-5.32.86,0,1.68.19,2.42.53,1.74-1.42,3.95-2.28,6.37-2.28.12,0,.23.01.35.02.74-2.4,2.97-4.14,5.61-4.14,3,0,5.47,2.26,5.82,5.16.18-.02.35-.03.53-.03,1.64,0,3.12.67,4.18,1.75v-8.99l-4.63-1.97Z"/><path class="cls-1" d="m14.75,42.71c.71-2.73,3.18-4.76,6.14-4.76,1.7,0,3.24.67,4.38,1.76-1.16-1.21-2.78-1.96-4.58-1.96-3.01,0-5.53,2.1-6.18,4.92.08.01.16.02.24.04Z"/><path class="cls-1" d="m67.73,61.72c-1.02,0-1.97.24-2.82.67.03.09.06.17.09.25.88-.46,1.87-.72,2.93-.72,1.7,0,3.24.67,4.38,1.76-1.16-1.21-2.78-1.96-4.58-1.96Z"/><path class="cls-1" d="m42.68,53.84s-.02,0-.04,0c-.02.07-.04.14-.06.21.1,0,.2-.02.3-.02,1.74,0,3.32.69,4.48,1.81-1.18-1.24-2.84-2.01-4.68-2.01Z"/><path class="cls-1" d="m3.29,51.52C2.12,51.66,1.01,52.01,0,52.53v.3c1-.54,2.11-.9,3.28-1.07,0-.08,0-.16.01-.23Z"/><path class="cls-1" d="m31.53,46.43c-1.16-1.2-2.65-2.07-4.32-2.5,0,.05,0,.1,0,.15,1.65.38,3.14,1.2,4.31,2.35Z"/><path class="cls-1" d="m36.75,46.05c1.64,0,3.13.65,4.23,1.7-.06-.06-.11-.12-.17-.18-1.1-1.06-2.6-1.72-4.25-1.72s-3.03.61-4.12,1.6c.06.08.11.15.17.23,1.09-1.01,2.55-1.63,4.15-1.63Z"/><path class="cls-1" d="m13.04,42.72c.57,0,1.12.06,1.67.15.01-.05.03-.11.04-.16-.08-.02-.16-.02-.24-.04-.54-.1-1.1-.15-1.67-.15-.07,0-.15,0-.22.01-2.2.05-4.22.84-5.81,2.13-2.02,1.64-3.35,4.09-3.51,6.86,0,.08,0,.15-.01.23.07-.01.14-.02.21-.03.3-5.02,4.45-9,9.55-9Z"/><path class="cls-1" d="m58.39,56.08c-.87-.26-1.8-.41-2.75-.41-2.59,0-4.93,1.03-6.65,2.7.03.1.07.19.1.29,1.73-1.72,4.12-2.79,6.75-2.79s4.94,1.04,6.67,2.71c-1.12-1.16-2.53-2.03-4.11-2.5Z"/><path class="cls-2" d="m20.88,37.96c-2.96,0-5.43,2.02-6.14,4.76-.01.05-.03.11-.04.16,1.99.35,3.78,1.31,5.14,2.69,1.5-1.08,3.34-1.72,5.32-1.72.71,0,1.39.09,2.05.24,0-.05,0-.1,0-.15-.09-1.66-.82-3.14-1.95-4.22-1.14-1.09-2.68-1.76-4.38-1.76Z"/><path class="cls-2" d="m72.68,64.07c-.12-.13-.24-.26-.37-.38-1.14-1.09-2.68-1.76-4.38-1.76-1.06,0-2.06.26-2.93.72.27.89.42,1.83.42,2.81,0,1.58-.39,3.07-1.07,4.39h1.67c1.3-2.79,3.75-4.88,6.66-5.77Z"/><path class="cls-2" d="m48.99,58.37c-.23-.65-.56-1.25-.97-1.78-.2-.26-.42-.51-.66-.74-1.17-1.12-2.74-1.81-4.48-1.81-.1,0-.2.01-.3.02-.63,1.94-2.2,3.46-4.17,4.01l8.31,4.45c.47-1.47,1.29-2.79,2.36-3.86-.03-.1-.07-.19-.1-.29Z"/><path class="cls-2" d="m2.04,64.42v-4.02l4.71-.88c-2.01-1.76-3.29-4.33-3.29-7.21,0-.19.02-.38.03-.58-.07,0-.14.02-.21.03C2.11,51.92,1,52.28,0,52.83v13c.57-.6,1.26-1.09,2.04-1.41Z"/><path class="cls-2" d="m30.62,52.18c0-1.78.76-3.38,1.98-4.5-.06-.08-.11-.15-.17-.23-.28-.36-.57-.7-.9-1.02-1.18-1.14-2.66-1.97-4.31-2.35-.66-.15-1.34-.24-2.05-.24-1.99,0-3.82.64-5.32,1.72,1.71,1.73,2.77,4.11,2.77,6.73,0,1.61-.4,3.12-1.1,4.45l9.76-1.83c-.41-.83-.65-1.76-.65-2.74Z"/><path class="cls-2" d="m42.58,54.06c.02-.07.04-.14.06-.21.15-.53.24-1.09.24-1.67,0-1.73-.72-3.29-1.87-4.4,0,0-.02-.02-.03-.02-1.1-1.05-2.59-1.7-4.23-1.7s-3.06.62-4.15,1.63c-1.21,1.12-1.98,2.72-1.98,4.5,0,.99.24,1.92.65,2.74l.92-.17,6.21,3.32c1.97-.55,3.55-2.07,4.17-4.01Z"/><path class="cls-2" d="m22.61,52.3c0-2.63-1.06-5-2.77-6.73-1.36-1.38-3.15-2.34-5.14-2.69-.54-.1-1.1-.15-1.67-.15-5.1,0-9.25,3.98-9.55,9-.01.19-.03.38-.03.58,0,2.88,1.28,5.46,3.29,7.21l14.76-2.77c.7-1.33,1.1-2.84,1.1-4.45Z"/><path class="cls-2" d="m65.42,65.45c0-.98-.15-1.92-.42-2.81-.03-.09-.06-.17-.09-.25-.49-1.46-1.32-2.76-2.4-3.81-1.72-1.67-4.07-2.71-6.67-2.71s-5.02,1.06-6.75,2.79c-1.07,1.07-1.89,2.39-2.36,3.86l5.47,2.93,11.72,4.39h.43c.68-1.32,1.07-2.81,1.07-4.39Z"/><path class="cls-2" d="m52.19,65.45l-5.47-2.93-8.31-4.45-6.21-3.32-.92.17-9.76,1.83-14.76,2.77-4.71.88v4.02c.69-.28,1.44-.44,2.23-.44,1.6,0,3.06.65,4.11,1.69.7-2.46,2.95-4.26,5.64-4.26.98,0,1.91.24,2.72.67,1.53-1.93,3.89-3.17,6.55-3.17,4.23,0,7.71,3.14,8.27,7.21.58-.2,1.21-.31,1.86-.31,2.6,0,4.8,1.69,5.57,4.04h24.93l-11.72-4.39Z"/><path class="cls-1" d="m89.4,52.5c-.45.9-.71,1.9-.71,2.97,0,.54.07,1.06.19,1.56.05,0,.1.01.16.03-.09-.45-.15-.91-.15-1.38,0-3.66,2.97-6.63,6.63-6.63.21,0,.41.01.61.03.03-.06.05-.11.08-.16-.29-.04-.59-.07-.89-.07-1.67,0-3.19.62-4.35,1.63-.65.56-1.18,1.25-1.57,2.02Z"/><path class="cls-1" d="m96.42,49.12c1.72-3.64,5.41-6.17,9.71-6.17,2.91,0,5.55,1.16,7.49,3.05-.25-.26-.52-.51-.8-.74-.07-.06-.15-.12-.22-.17-1.83-1.46-4.15-2.33-6.67-2.33-4.29,0-7.99,2.53-9.71,6.17-.03.05-.05.11-.08.16.09,0,.19.02.28.04Z"/><path class="cls-1" d="m119.51,53.72c-.82-.64-1.75-1.14-2.75-1.47,0,.05.02.09.02.14,1.41.43,2.68,1.2,3.71,2.2-.3-.31-.63-.6-.98-.87Z"/><path class="cls-1" d="m125.7,59.33c-.88,0-1.73.13-2.54.37.01.08.03.16.04.25.85-.27,1.76-.41,2.7-.41,2.43,0,4.63.97,6.24,2.53-1.63-1.68-3.91-2.73-6.44-2.73Z"/><path class="cls-1" d="m81.41,64.09c0-.06-.02-.11-.02-.17-.44-.08-.89-.13-1.35-.13-.52,0-1.03.05-1.53.16.18.04.35.1.52.15.39-.06.79-.11,1.21-.11s.79.04,1.17.1Z"/><path class="cls-1" d="m88.88,57.03c-.37-.07-.75-.11-1.15-.11-3.52,0-6.38,2.86-6.38,6.38,0,.21.01.41.03.61,0,.06.02.12.02.17.06,0,.12.02.18.03-.02-.2-.03-.4-.03-.61,0-3.52,2.86-6.38,6.38-6.38.39,0,.77.04,1.15.11-.01-.06-.03-.12-.04-.17-.05-.01-.1-.02-.16-.03Z"/><path class="cls-2" d="m95.38,53.69c0-1.64.38-3.19,1.03-4.58-.09-.01-.19-.03-.28-.04-.2-.02-.41-.03-.61-.03-3.66,0-6.63,2.97-6.63,6.63,0,.47.05.94.15,1.38.01.06.03.12.04.17,1.55.28,2.9,1.12,3.84,2.3h4.19c-1.09-1.68-1.73-3.69-1.73-5.84Z"/><path class="cls-2" d="m116.43,50.7c-.02-.06-.03-.13-.05-.19-.54-1.73-1.51-3.27-2.77-4.51-1.94-1.88-4.57-3.05-7.49-3.05-4.29,0-7.99,2.53-9.71,6.17-.66,1.39-1.03,2.94-1.03,4.58,0,2.16.64,4.16,1.73,5.84h5.4c.7-.19,1.44-.26,2.21-.16.1.01.19.03.29.05.83-4.24,4.57-7.45,9.06-7.45.94,0,1.85.14,2.71.41,0-.05-.01-.09-.02-.14-.07-.53-.18-1.05-.32-1.55Z"/><path class="cls-2" d="m120.61,54.7s-.08-.07-.12-.11c-1.03-1-2.3-1.77-3.71-2.2-.86-.26-1.77-.41-2.71-.41-4.49,0-8.23,3.2-9.06,7.45.16.03.31.06.47.11h16.81l.3.64c.2-.08.41-.16.61-.22-.01-.08-.02-.16-.04-.25-.32-1.93-1.23-3.67-2.55-5Z"/><path class="cls-2" d="m134.3,65.37c-.03-.09-.06-.19-.1-.28-.47-1.15-1.18-2.17-2.06-3.02-1.62-1.57-3.82-2.53-6.24-2.53-.94,0-1.85.15-2.7.41-.21.07-.41.14-.61.22l4.47,9.67h7.72c.06-.43.11-.88.11-1.33,0-1.11-.21-2.17-.58-3.15Z"/><path class="cls-2" d="m81.41,64.09c-.38-.06-.77-.1-1.17-.1s-.81.04-1.21.11c1.02.32,1.97.78,2.83,1.36-.14-.43-.23-.87-.27-1.33-.06-.01-.12-.02-.18-.03Z"/><path class="cls-2" d="m90.9,59.53h2.02c-.94-1.18-2.29-2.02-3.84-2.3-.37-.07-.75-.11-1.15-.11-3.52,0-6.38,2.86-6.38,6.38,0,.21.01.41.03.61.04.46.14.91.27,1.33.03.02.06.04.09.06,1.34-1.45,3.34-2.26,5.44-1.98.54.07,1.04.21,1.53.4l1.97-4.39Z"/><path class="cls-2" d="m102.51,59.53h-11.61l-1.97,4.39c.52.21,1.01.48,1.45.81,2.27-2.07,5.4-3.17,8.68-2.74.06,0,.12.02.18.03.73-1.22,1.9-2.11,3.27-2.5Z"/><path class="cls-2" d="m122.58,60.17l-.3-.64h-16.81c2.28.62,3.91,2.62,4.07,4.95.21,0,.42.02.63.05,3.01.39,5.35,2.55,6.12,5.3h10.75l-4.47-9.67Z"/><path class="cls-1" d="m16.74,62.07c-.81-.43-1.74-.67-2.72-.67-2.68,0-4.94,1.8-5.64,4.26,1.08,1.06,1.75,2.54,1.75,4.18,0,0,0,0,0,0h5.2c-.26-.81-.41-1.68-.41-2.58,0-1.96.68-3.77,1.81-5.19Z"/><path class="cls-1" d="m33.42,65.8c-.65,0-1.27.11-1.86.31.05.38.09.76.09,1.16,0,.9-.15,1.76-.41,2.58h7.75c-.77-2.34-2.97-4.04-5.57-4.04Z"/><path class="cls-1" d="m8.38,65.66c-1.06-1.04-2.51-1.69-4.11-1.69-.79,0-1.54.16-2.23.44C1.26,64.74.57,65.22,0,65.83v4.01h10.13s0,0,0,0c0-1.63-.67-3.11-1.75-4.18Z"/><path class="cls-1" d="m31.56,66.11c-.56-4.07-4.05-7.21-8.27-7.21-2.65,0-5.02,1.24-6.55,3.17-1.13,1.43-1.81,3.23-1.81,5.19,0,.9.15,1.76.41,2.58h15.91c.26-.81.41-1.68.41-2.58,0-.39-.04-.78-.09-1.16Z"/><path class="cls-1" d="m54.34,65.45c.6-.32,1.29-.5,2.02-.5,1.99,0,3.67,1.34,4.18,3.16-.8.79-1.3,1.89-1.3,3.1,0,0,0,0,0,0h-3.86c.19-.6.3-1.24.3-1.91,0-1.46-.51-2.79-1.35-3.85Z"/><path class="cls-1" d="m41.96,68.22c.48,0,.95.08,1.38.23-.04.28-.07.57-.07.86,0,.67.11,1.31.3,1.91h-5.75c.57-1.74,2.2-3,4.13-3Z"/><path class="cls-1" d="m60.54,68.12c.79-.77,1.86-1.25,3.05-1.25.59,0,1.15.12,1.66.33.58.24,1.09.6,1.51,1.05v2.98h-7.52s0,0,0,0c0-1.21.5-2.31,1.3-3.1Z"/><path class="cls-1" d="m43.34,68.45c.42-3.02,3-5.35,6.14-5.35,1.97,0,3.72.92,4.86,2.35.84,1.06,1.35,2.4,1.35,3.85,0,.67-.11,1.31-.3,1.91h-11.81c-.19-.6-.3-1.24-.3-1.91,0-.29.03-.58.07-.86Z"/><path class="cls-1" d="m162.26,65.45c.6-.32,1.29-.5,2.02-.5,1.99,0,3.67,1.34,4.18,3.16-.8.79-1.3,1.89-1.3,3.1,0,0,0,0,0,0h-3.86c.19-.6.3-1.24.3-1.91,0-1.46-.51-2.79-1.35-3.85Z"/><path class="cls-1" d="m149.88,68.22c.48,0,.95.08,1.38.23-.04.28-.07.57-.07.86,0,.67.11,1.31.3,1.91h-5.75c.57-1.74,2.2-3,4.13-3Z"/><path class="cls-1" d="m168.46,68.12c.79-.77,1.86-1.25,3.05-1.25.59,0,1.15.12,1.66.33.58.24,1.09.6,1.51,1.05v2.98h-7.52s0,0,0,0c0-1.21.5-2.31,1.3-3.1Z"/><path class="cls-1" d="m151.25,68.45c.42-3.02,3-5.35,6.14-5.35,1.97,0,3.72.92,4.86,2.35.84,1.06,1.35,2.4,1.35,3.85,0,.67-.11,1.31-.3,1.91h-11.81c-.19-.6-.3-1.24-.3-1.91,0-.29.03-.58.07-.86Z"/><path class="cls-1" d="m191.08,66.21c.97-1.33,2.48-2.24,4.21-2.4-.35-2.91-2.82-5.16-5.82-5.16-2.64,0-4.87,1.74-5.61,4.14,2.88.1,5.44,1.4,7.21,3.42Z"/><path class="cls-1" d="m195.82,63.78c-.18,0-.36.01-.53.03-1.73.16-3.24,1.07-4.21,2.4.92,1.04,1.63,2.27,2.05,3.63h6.87v-4.31c-1.06-1.08-2.54-1.75-4.18-1.75Z"/><path class="cls-1" d="m177.14,65.05c-.74-.34-1.56-.53-2.42-.53-3.06,0-5.56,2.34-5.84,5.32h5.02c.59-1.9,1.73-3.56,3.24-4.8Z"/><path class="cls-1" d="m191.08,66.21c-1.77-2.02-4.34-3.32-7.21-3.42-.12,0-.23-.02-.35-.02-2.42,0-4.64.85-6.37,2.28-1.5,1.23-2.65,2.89-3.24,4.8h19.22c-.42-1.36-1.13-2.59-2.05-3.63Z"/><path class="cls-1" d="m104.72,59.38c-.76-.1-1.51-.04-2.21.16-1.37.38-2.54,1.28-3.27,2.5,2.56.38,4.78,1.62,6.4,3.39,1.16-.65,2.5-1,3.9-.94-.16-2.33-1.8-4.33-4.07-4.95-.15-.04-.31-.08-.47-.11-.1-.02-.19-.04-.29-.05Z"/><path class="cls-1" d="m110.18,64.54c-.21-.03-.42-.04-.63-.05-1.4-.06-2.74.29-3.9.94,1.14,1.25,1.99,2.76,2.45,4.42h8.2c-.77-2.75-3.11-4.91-6.12-5.3Z"/><path class="cls-1" d="m90.38,64.74c-.44-.33-.93-.6-1.45-.81-.48-.19-.99-.33-1.53-.4-2.11-.27-4.1.53-5.44,1.98,1.59,1.1,2.85,2.59,3.66,4.33h1.63c.56-2.01,1.66-3.76,3.13-5.1Z"/><path class="cls-1" d="m105.65,65.42c-1.62-1.78-3.85-3.02-6.4-3.39-.06,0-.12-.03-.18-.03-3.29-.43-6.41.67-8.68,2.74-1.47,1.34-2.57,3.09-3.13,5.1h20.85c-.46-1.66-1.31-3.17-2.45-4.42Z"/><path class="cls-1" d="m81.96,65.51s-.06-.04-.09-.06c-.86-.58-1.81-1.04-2.83-1.36-.17-.05-.34-.1-.52-.15-.42-.11-.85-.2-1.3-.26-1.57-.2-3.11-.05-4.54.38-2.92.89-5.36,2.98-6.66,5.77h19.61c-.81-1.74-2.08-3.24-3.66-4.33Z"/><path class="cls-1" d="m127.27,64.74c.44-.33.93-.6,1.45-.81.48-.19.99-.33,1.53-.4,2.11-.27,4.1.53,5.44,1.98-1.59,1.1-2.85,2.59-3.66,4.33h-1.63c-.56-2.01-1.66-3.76-3.13-5.1Z"/><path class="cls-1" d="m112,65.42c1.62-1.78,3.85-3.02,6.4-3.39.06,0,.12-.03.18-.03,3.29-.43,6.41.67,8.68,2.74,1.47,1.34,2.57,3.09,3.13,5.1h-20.85c.46-1.66,1.31-3.17,2.45-4.42Z"/><path class="cls-1" d="m135.69,65.51s.06-.04.09-.06c.86-.58,1.81-1.04,2.83-1.36.17-.05.34-.1.52-.15.42-.11.85-.2,1.3-.26,1.57-.2,3.11-.05,4.54.38,2.92.89,5.36,2.98,6.66,5.77h-19.61c.81-1.74,2.08-3.24,3.66-4.33Z"/><rect class="cls-1" y="69.84" width="200" height="5.16"/></svg>