<?xml version="1.0" encoding="UTF-8"?><svg id="_Ñëîé_4" xmlns="http://www.w3.org/2000/svg" width="200" height="75" viewBox="0 0 200 75"><defs><style>.cls-1{fill:#fff;}.cls-2{fill:#f0f9ff;}.cls-3{fill:#e1f0fa;}</style></defs><path class="cls-2" d="m60.1,46.42c-.13.1-.27.19-.39.3-1.64,1.36-2.76,3.31-3.02,5.53.07.02.15.04.22.06.57-4.12,4.07-7.31,8.35-7.34.88,0,1.73.12,2.52.36,0-.04.02-.08.03-.12-.87-.29-1.79-.45-2.75-.44-1.86.01-3.56.63-4.96,1.65Z"/><path class="cls-2" d="m48.22,53.22c.03.08.06.17.09.25,1.67-.87,3.56-1.38,5.57-1.39,1.04,0,2.04.13,3,.36,0-.05.01-.1.02-.14-.07-.02-.15-.04-.22-.06-.7-.17-1.42-.28-2.16-.33-.28-.02-.55-.04-.84-.04-.79,0-1.55.09-2.3.24-1.12.22-2.18.6-3.16,1.1Z"/><path class="cls-2" d="m84.82,46.93c1.64-.01,3.13.63,4.24,1.67-1.12-1.16-2.7-1.88-4.44-1.87-.86,0-1.67.19-2.41.51,0,0,0,0,0,0,0,.1,0,.2-.01.3.79-.39,1.68-.61,2.63-.62Z"/><path class="cls-2" d="m40.89,49.69s.02.02.03.02c.52-.15,1.06-.23,1.62-.24,1.64-.01,3.13.63,4.24,1.67-1.12-1.16-2.7-1.88-4.44-1.87-.56,0-1.11.09-1.62.24.06.06.12.12.18.18Z"/><path class="cls-2" d="m67.81,45.21s-.02.08-.03.12c.08.02.15.06.23.08.83-3.06,3.6-5.32,6.92-5.34,1.94-.01,3.71.75,5.02,1.99-1.32-1.36-3.17-2.2-5.22-2.18-.32,0-.63.03-.94.07-.17.02-.34.05-.5.08-.44.09-.87.23-1.28.4-.03.01-.05.02-.08.03-2.01.86-3.54,2.62-4.12,4.76Z"/><path class="cls-3" d="m56.91,52.3s-.02.1-.02.14c1.88.46,3.59,1.35,5.02,2.57l7.48-3.15c-1.01-1.23-1.62-2.8-1.63-4.52,0-.67.09-1.32.26-1.94-.08-.03-.15-.06-.23-.08-.8-.24-1.65-.37-2.52-.36-4.28.03-7.78,3.22-8.35,7.34Z"/><path class="cls-3" d="m47.99,58.48c.41.53.75,1.13.98,1.78,1.71-1.68,4.05-2.72,6.63-2.74.96,0,1.88.13,2.76.39v-1.38s3.55-1.5,3.55-1.5c-1.43-1.22-3.14-2.11-5.02-2.57-.96-.24-1.96-.37-3-.36-2.01.01-3.9.52-5.57,1.39.24.65.38,1.35.39,2.08,0,1.05-.25,2.05-.72,2.92Z"/><path class="cls-3" d="m89.35,54.1c.38-.78.91-1.46,1.55-2.03-.22-1.36-.88-2.57-1.84-3.47-1.11-1.04-2.6-1.68-4.24-1.67-.94,0-1.83.23-2.63.62-.05,1.34-.45,2.58-1.12,3.64l8.28,2.92Z"/><path class="cls-3" d="m42.54,49.48c-.56,0-1.11.09-1.62.24,1.16,1.11,1.89,2.66,1.9,4.39,0,.58-.08,1.14-.22,1.67.01,0,.02,0,.04,0,1.84-.01,3.51.75,4.7,1.98.24.23.46.47.66.73.46-.87.72-1.86.72-2.92,0-.73-.15-1.43-.39-2.08-.03-.08-.06-.17-.09-.25-.33-.79-.83-1.5-1.45-2.08-1.11-1.04-2.6-1.68-4.24-1.67Z"/><path class="cls-3" d="m69.39,51.87l6.21-2.61,5.47,1.93c.68-1.06,1.08-2.3,1.12-3.64,0-.1.01-.2.01-.3,0,0,0,0,0,0,0-.91-.19-1.79-.51-2.59-.29-.74-.69-1.41-1.19-2.01-.17-.21-.36-.4-.56-.59-1.31-1.24-3.07-2-5.02-1.99-3.32.02-6.09,2.28-6.92,5.34-.17.62-.26,1.27-.26,1.94.01,1.72.62,3.28,1.63,4.52Z"/><path class="cls-3" d="m81.41,65.57c-.02-.2-.03-.4-.04-.61-.02-3.52,2.81-6.4,6.33-6.42.39,0,.77.04,1.15.1-.12-.5-.2-1.02-.2-1.55,0-1.07.25-2.08.69-2.98l-8.28-2.92-5.47-1.93-6.21,2.61-7.48,3.15-3.56,1.5v1.38c1.6.46,3.01,1.33,4.14,2.47,1.09,1.04,1.93,2.34,2.43,3.79.85-.43,1.8-.68,2.82-.69,1.8-.01,3.43.73,4.6,1.93.13.12.25.25.37.38,1.42-.44,2.96-.61,4.53-.42.44.05.88.14,1.3.25.49-.11,1-.16,1.52-.17.46,0,.91.04,1.35.12Z"/><path class="cls-2" d="m138.55,40.64c3.45-.02,6.58,1.33,8.87,3.55-2.32-2.33-5.53-3.77-9.08-3.75-4.6.03-8.59,2.52-10.79,6.2.08.04.16.09.24.14,2.2-3.65,6.18-6.11,10.75-6.15Z"/><path class="cls-2" d="m118.56,52.36c0-.05,0-.1,0-.15-.72-.18-1.47-.29-2.24-.3.02.06.03.13.05.19.76,0,1.49.09,2.2.26Z"/><path class="cls-2" d="m168.88,41.46c.92,0,1.8.1,2.66.3.03-.04.05-.09.08-.13-.94-.24-1.92-.38-2.94-.37-3.79.03-7.14,1.88-9.23,4.72.05.09.1.19.14.28,2.09-2.88,5.46-4.78,9.29-4.8Z"/><path class="cls-2" d="m153.95,42.63c1.64-.01,3.13.63,4.24,1.67-1.12-1.16-2.7-1.88-4.44-1.87-2.22.02-4.15,1.21-5.21,2.99.06.08.12.16.18.24,1.06-1.8,3-3.01,5.23-3.03Z"/><path class="cls-2" d="m118.55,52.1s0,.08,0,.11c0,.05,0,.1,0,.15.06.01.13.03.19.05,0-.04,0-.08,0-.11-.02-3.38,2.7-6.15,6.08-6.17,1.06,0,2.05.25,2.93.72.01-.02.02-.04.03-.06-.08-.05-.15-.1-.24-.14-.21-.11-.43-.21-.65-.3-.7-.28-1.47-.43-2.27-.42-.5,0-.98.07-1.44.19-2.68.67-4.67,3.1-4.65,5.98Z"/><path class="cls-2" d="m171.81,41.83c1.28-1.97,3.49-3.29,6.01-3.3,1.94-.01,3.71.75,5.02,1.99-1.32-1.36-3.17-2.2-5.22-2.18-2.53.02-4.74,1.33-6.01,3.3-.03.04-.05.09-.08.13.09.02.19.05.28.07Z"/><path class="cls-3" d="m138.55,40.64c-4.57.03-8.55,2.49-10.75,6.15-.01.02-.02.04-.03.06,1.92,1.02,3.23,3.04,3.24,5.36,0,.66-.1,1.3-.29,1.9l17.47-3.4c-.2-.6-.31-1.24-.32-1.9,0-1.15.31-2.22.85-3.14-.06-.08-.12-.16-.18-.24-.35-.43-.71-.85-1.11-1.23-2.3-2.22-5.43-3.58-8.87-3.55Z"/><path class="cls-3" d="m116.7,53.65c1.01.33,1.94.82,2.76,1.45-.43-.81-.68-1.72-.7-2.69-.06-.02-.13-.03-.19-.05-.71-.16-1.44-.26-2.2-.26.15.5.26,1.02.33,1.55Z"/><path class="cls-3" d="m172.41,50.47c-1.08-1.25-1.75-2.88-1.76-4.67-.01-1.47.42-2.83,1.16-3.97-.09-.02-.19-.05-.28-.07-.86-.19-1.74-.31-2.66-.3-3.83.03-7.21,1.92-9.29,4.8.33.75.53,1.58.53,2.45,0,1.27-.37,2.46-1.03,3.44l10.29,1.61c.68-1.36,1.74-2.5,3.03-3.29Z"/><path class="cls-3" d="m153.95,42.63c-2.24.02-4.18,1.23-5.23,3.03-.54.92-.86,1.99-.85,3.14,0,.67.12,1.3.32,1.9l.72-.14,10.18,1.59c.66-.98,1.04-2.17,1.03-3.44,0-.87-.2-1.7-.53-2.45-.04-.1-.09-.19-.14-.28-.32-.63-.75-1.2-1.26-1.68-1.11-1.04-2.6-1.68-4.24-1.67Z"/><path class="cls-3" d="m131,52.21c-.02-2.33-1.33-4.34-3.24-5.36-.87-.47-1.87-.73-2.93-.72-3.38.02-6.11,2.79-6.08,6.17,0,.04,0,.08,0,.11.02.97.28,1.89.7,2.69.35.27.68.55.98.86.04.04.08.07.12.11l10.15-1.98c.19-.6.29-1.23.29-1.9Z"/><path class="cls-3" d="m177.83,38.53c-2.53.02-4.74,1.33-6.01,3.3-.74,1.14-1.17,2.51-1.16,3.97.01,1.79.68,3.42,1.76,4.67,1.15-.7,2.5-1.13,3.94-1.17,0-.05-.02-.1-.02-.15-.02-2.91,2.32-5.28,5.22-5.3.91,0,1.75.24,2.5.64.21-.35.43-.68.68-1-.38-1.15-1.04-2.17-1.9-2.99-1.31-1.24-3.07-2-5.02-1.99Z"/><path class="cls-3" d="m136.72,65.58c.54,0,1.05.1,1.54.28.19-3.6,3.14-6.47,6.79-6.5,1.19,0,2.3.29,3.28.81.86-4.38,4.7-7.7,9.33-7.73,2.69-.02,5.13,1.08,6.89,2.86.11.11.22.23.33.34.72-.37,1.52-.61,2.38-.61.54,0,1.05.1,1.55.25.14-.52.33-1.03.57-1.5l-10.29-1.61-10.18-1.59-.72.14-17.47,3.4-10.15,1.98c1.33,1.32,2.26,3.05,2.59,4.98.8-.24,1.65-.38,2.53-.39,2.53-.02,4.82,1.02,6.46,2.69.88.84,1.59,1.86,2.08,3,.71-.49,1.57-.79,2.5-.79Z"/><path class="cls-1" d="m181.56,43.85c-2.91.02-5.24,2.39-5.22,5.3,0,.05.01.1.02.15.06,0,.13-.01.19-.01.01-2.88,2.33-5.22,5.22-5.24.81,0,1.57.19,2.26.51.01-.02.03-.05.04-.07-.75-.4-1.59-.65-2.5-.64Z"/><path class="cls-1" d="m167.26,55.02c-.86,0-1.66.24-2.38.61.06.07.13.14.19.21.72-.38,1.52-.61,2.39-.62.46,0,.89.07,1.31.18.01-.04.02-.09.03-.13-.49-.15-1-.25-1.55-.25Z"/><path class="cls-1" d="m176.35,49.3c-1.44.05-2.78.47-3.94,1.17-1.3.79-2.35,1.93-3.03,3.29-.24.48-.43.98-.57,1.5-.01.04-.02.09-.03.13.08.02.16.05.23.07.91-3.36,3.92-5.85,7.54-5.97,0-.05-.02-.1-.02-.15,0-.02,0-.04,0-.06-.06,0-.13,0-.19.01Z"/><path class="cls-1" d="m148.33,60.16c-.98-.52-2.1-.82-3.28-.81-3.65.03-6.61,2.9-6.79,6.5.07.02.14.04.21.07.25-3.54,3.18-6.34,6.79-6.37,1.1,0,2.14.25,3.07.71,0-.03,0-.06.01-.1Z"/><path class="cls-1" d="m138.47,65.92c-.07-.03-.14-.04-.21-.07-.48-.17-.99-.28-1.54-.28-.93,0-1.79.3-2.5.79.04.09.07.19.1.28.73-.54,1.62-.87,2.59-.87.54,0,1.05.1,1.54.28,0-.04,0-.09,0-.13Z"/><path class="cls-1" d="m190.16,40.21c-2.18.42-4.09,1.62-5.42,3.29-.25.31-.47.65-.68,1-.01.02-.03.05-.04.07.08.04.16.09.24.13,1.59-2.65,4.47-4.44,7.78-4.46,2.47-.02,4.72.95,6.38,2.54-.59-.6-1.26-1.12-2-1.54-1.35-.77-2.91-1.21-4.58-1.2-.19,0-.38.02-.56.03-.38.03-.75.07-1.12.14Z"/><path class="cls-1" d="m157.66,52.43c-4.63.03-8.48,3.35-9.33,7.73,0,.03,0,.06-.01.1.07.04.15.07.22.1.86-4.38,4.7-7.7,9.33-7.73,2.59-.02,4.95,1,6.68,2.66-1.75-1.78-4.19-2.88-6.89-2.86Z"/><path class="cls-2" d="m181.76,44.05c-2.89.02-5.21,2.36-5.22,5.24,0,.02,0,.04,0,.06,0,.05.01.1.02.15.07,0,.14-.01.21-.01,2.13-.02,4.06.8,5.52,2.13l.87-.42c-.11-.57-.18-1.15-.18-1.75-.01-1.74.47-3.36,1.3-4.75-.08-.04-.16-.09-.24-.13-.69-.32-1.45-.52-2.26-.51Z"/><path class="cls-2" d="m168.72,57.64c0-.75.1-1.48.29-2.17-.08-.02-.15-.05-.23-.07-.42-.11-.86-.18-1.31-.18-.87,0-1.67.24-2.39.62.83.92,1.47,2.01,1.89,3.2l1.79-.87c-.01-.18-.03-.35-.03-.53Z"/><path class="cls-2" d="m176.76,49.49c-.07,0-.14,0-.21.01-3.63.12-6.63,2.61-7.54,5.97-.19.69-.29,1.42-.29,2.17,0,.18.02.36.03.53l13.53-6.56c-1.45-1.33-3.39-2.15-5.52-2.13Z"/><path class="cls-2" d="m148.36,62.28c0-.66.06-1.3.18-1.91-.07-.04-.14-.07-.22-.1-.93-.45-1.96-.71-3.07-.71-3.61.03-6.54,2.83-6.79,6.37,0,.04,0,.09,0,.13,1.66.6,2.86,2.15,2.92,4.01l8.21-3.14c-.78-1.37-1.23-2.95-1.24-4.64Z"/><path class="cls-2" d="m141.38,70.06c-.07-1.85-1.26-3.41-2.92-4.01-.48-.17-.99-.28-1.54-.28-.97,0-1.86.34-2.59.87.37.98.59,2.03.6,3.14,0,.45-.04.89-.1,1.33l3.85-.03,2.7-1.03Z"/><path class="cls-2" d="m198.42,42.77c-1.66-1.59-3.91-2.56-6.38-2.54-3.31.02-6.19,1.81-7.78,4.46-.83,1.39-1.32,3.01-1.3,4.75,0,.6.07,1.19.18,1.75l.96-.46,11.22,4.69c.5-2.3,2.3-4.12,4.6-4.65l-.04-6.2c-.41-.66-.9-1.27-1.46-1.8Z"/><path class="cls-2" d="m195.33,55.43l4.64,1.94-.05-6.59c-2.3.53-4.09,2.35-4.6,4.65Z"/><path class="cls-2" d="m165.07,55.84c-.06-.07-.13-.14-.19-.21-.11-.12-.22-.23-.33-.34-1.74-1.66-4.09-2.68-6.68-2.66-4.63.03-8.48,3.35-9.33,7.73-.12.62-.18,1.26-.18,1.91.01,1.69.46,3.27,1.24,4.64l5.3-2.03,12.06-5.85c-.42-1.19-1.07-2.28-1.89-3.2Z"/><path class="cls-2" d="m195.33,55.43l-11.22-4.69-.96.46-.87.42-13.53,6.56-1.79.87-12.06,5.85-5.3,2.03-8.21,3.14-2.7,1.03,30.26-.21c.25-2.99,2.74-5.34,5.8-5.36.86,0,1.68.18,2.42.51,1.73-1.43,3.94-2.31,6.36-2.32.12,0,.23.01.35.02.72-2.4,2.94-4.16,5.58-4.18,3-.02,5.49,2.22,5.85,5.12.18-.02.35-.03.53-.03,1.64-.01,3.12.65,4.19,1.73l-.06-8.99-4.64-1.94Z"/><path class="cls-1" d="m14.62,44.84c.69-2.74,3.15-4.78,6.1-4.8,1.7-.01,3.25.65,4.4,1.73-1.16-1.2-2.79-1.94-4.6-1.93-3.01.02-5.52,2.14-6.15,4.97.08.01.16.02.24.04Z"/><path class="cls-1" d="m67.74,63.47c-1.02,0-1.97.26-2.82.69.03.09.06.17.09.25.87-.47,1.87-.74,2.93-.74,1.7-.01,3.25.65,4.4,1.73-1.16-1.2-2.79-1.94-4.6-1.93Z"/><path class="cls-1" d="m42.63,55.77s-.02,0-.04,0c-.02.07-.04.14-.06.21.1,0,.2-.02.3-.02,1.74-.01,3.32.67,4.5,1.78-1.19-1.23-2.86-1.99-4.7-1.98Z"/><path class="cls-1" d="m3.23,53.73c-1.17.15-2.28.51-3.28,1.03v.3c1-.55,2.1-.92,3.27-1.09,0-.08,0-.16.01-.23Z"/><path class="cls-1" d="m31.43,48.44c-1.17-1.19-2.66-2.06-4.34-2.47,0,.05,0,.1,0,.15,1.66.37,3.14,1.18,4.33,2.31Z"/><path class="cls-1" d="m36.65,48.02c1.64-.01,3.13.63,4.24,1.67-.06-.06-.12-.12-.18-.18-1.11-1.06-2.61-1.7-4.27-1.69-1.59.01-3.03.63-4.11,1.63.06.07.12.15.17.23,1.08-1.02,2.53-1.65,4.14-1.66Z"/><path class="cls-1" d="m12.91,44.86c.57,0,1.12.05,1.67.14.01-.05.03-.11.04-.16-.08-.02-.16-.02-.24-.04-.54-.09-1.1-.15-1.67-.14-.07,0-.15.01-.22.01-2.2.07-4.22.87-5.8,2.17-2.01,1.66-3.32,4.11-3.46,6.88,0,.08,0,.15-.01.23.07-.01.14-.02.21-.03.26-5.02,4.39-9.03,9.48-9.07Z"/><path class="cls-1" d="m58.36,57.9c-.87-.26-1.8-.39-2.76-.39-2.59.02-4.92,1.06-6.63,2.74.03.1.07.19.1.29,1.72-1.73,4.1-2.82,6.73-2.83,2.59-.02,4.95,1,6.69,2.66-1.13-1.15-2.55-2.01-4.13-2.47Z"/><path class="cls-2" d="m20.72,40.04c-2.96.02-5.42,2.06-6.1,4.8-.01.05-.03.11-.04.16,2,.34,3.79,1.28,5.16,2.65,1.49-1.09,3.32-1.74,5.31-1.76.71,0,1.39.08,2.05.22,0-.05,0-.1,0-.15-.11-1.66-.84-3.14-1.98-4.2-1.15-1.08-2.69-1.74-4.4-1.73Z"/><path class="cls-2" d="m72.7,65.78c-.12-.13-.24-.26-.37-.38-1.15-1.08-2.69-1.74-4.4-1.73-1.06,0-2.05.28-2.93.74.28.89.43,1.83.44,2.8.01,1.58-.37,3.08-1.04,4.4h1.67c1.28-2.81,3.71-4.92,6.62-5.83Z"/><path class="cls-2" d="m48.97,60.25c-.23-.65-.57-1.24-.98-1.78-.2-.26-.42-.51-.66-.73-1.17-1.11-2.76-1.79-4.5-1.78-.1,0-.2.01-.3.02-.61,1.95-2.17,3.47-4.14,4.04l8.35,4.39c.46-1.48,1.27-2.8,2.34-3.88-.03-.1-.07-.19-.1-.29Z"/><path class="cls-2" d="m2.06,66.63l-.03-4.02,4.71-.92c-2.03-1.74-3.32-4.31-3.34-7.19,0-.19.01-.39.03-.58-.07,0-.14.02-.21.03-1.17.18-2.27.55-3.27,1.09l.09,13c.56-.61,1.25-1.1,2.03-1.42Z"/><path class="cls-2" d="m30.57,54.19c-.01-1.78.74-3.38,1.95-4.51-.06-.08-.11-.15-.17-.23-.28-.36-.58-.7-.91-1.01-1.19-1.13-2.67-1.95-4.33-2.31-.66-.15-1.35-.23-2.05-.22-1.99.01-3.82.67-5.31,1.76,1.72,1.72,2.8,4.09,2.82,6.71.01,1.61-.38,3.12-1.07,4.46l9.75-1.9c-.42-.82-.67-1.75-.67-2.74Z"/><path class="cls-2" d="m42.53,55.99c.02-.07.04-.14.06-.21.15-.53.23-1.09.22-1.67-.01-1.73-.74-3.28-1.9-4.39,0,0-.02-.02-.03-.02-1.11-1.04-2.6-1.68-4.24-1.67-1.6.01-3.05.64-4.14,1.66-1.2,1.13-1.96,2.73-1.95,4.51,0,.99.25,1.92.67,2.74l.92-.18,6.23,3.28c1.97-.57,3.53-2.09,4.14-4.04Z"/><path class="cls-2" d="m22.56,54.37c-.02-2.63-1.09-4.99-2.82-6.71-1.37-1.37-3.16-2.32-5.16-2.65-.54-.09-1.1-.15-1.67-.14-5.1.04-9.22,4.05-9.48,9.07-.01.19-.03.38-.03.58.02,2.88,1.32,5.45,3.34,7.19l14.74-2.87c.69-1.33,1.08-2.85,1.07-4.46Z"/><path class="cls-2" d="m65.45,67.22c0-.98-.16-1.92-.44-2.8-.03-.09-.06-.17-.09-.25-.5-1.45-1.34-2.75-2.43-3.79-1.74-1.66-4.09-2.68-6.69-2.66-2.64.02-5.01,1.1-6.73,2.83-1.07,1.07-1.87,2.4-2.34,3.88l5.49,2.89,11.75,4.31h.43c.67-1.32,1.05-2.82,1.04-4.4Z"/><path class="cls-2" d="m52.23,67.31l-5.49-2.89-8.35-4.39-6.23-3.28-.92.18-9.75,1.9-14.74,2.87-4.71.92.03,4.02c.69-.29,1.44-.45,2.23-.46,1.6-.01,3.06.62,4.13,1.66.68-2.46,2.92-4.28,5.61-4.3.98,0,1.91.23,2.72.65,1.52-1.94,3.87-3.2,6.53-3.22,4.23-.03,7.73,3.08,8.32,7.15.58-.2,1.21-.31,1.86-.32,2.6-.02,4.81,1.66,5.6,4l24.93-.18-11.75-4.31Z"/><path class="cls-1" d="m89.35,54.1c-.44.9-.7,1.91-.69,2.98,0,.54.08,1.06.2,1.55.05,0,.1.01.16.02-.1-.45-.15-.91-.16-1.38-.03-3.66,2.92-6.65,6.58-6.68.21,0,.41,0,.61.03.02-.06.05-.11.08-.16-.29-.04-.59-.06-.89-.06-1.67.01-3.18.64-4.34,1.67-.64.57-1.17,1.26-1.55,2.03Z"/><path class="cls-1" d="m96.33,50.66c1.69-3.65,5.37-6.2,9.66-6.23,2.91-.02,5.56,1.13,7.51,3-.26-.26-.52-.5-.8-.74-.07-.06-.15-.11-.22-.17-1.84-1.44-4.17-2.3-6.69-2.29-4.29.03-7.97,2.58-9.66,6.23-.03.06-.05.11-.08.16.09,0,.19.02.28.03Z"/><path class="cls-1" d="m119.46,55.1c-.82-.63-1.75-1.12-2.76-1.45,0,.05.02.09.02.14,1.41.42,2.68,1.18,3.72,2.18-.31-.31-.64-.6-.98-.86Z"/><path class="cls-1" d="m125.69,60.68c-.88,0-1.73.14-2.53.39.01.08.03.16.04.24.85-.27,1.76-.43,2.7-.43,2.43-.02,4.63.94,6.26,2.49-1.64-1.67-3.93-2.71-6.46-2.69Z"/><path class="cls-1" d="m81.44,65.74c0-.06-.02-.11-.02-.17-.44-.08-.89-.12-1.35-.12-.52,0-1.03.06-1.52.17.18.04.35.09.52.15.39-.07.79-.11,1.21-.11s.79.03,1.18.09Z"/><path class="cls-1" d="m88.86,58.64c-.37-.06-.75-.1-1.15-.1-3.52.02-6.36,2.9-6.33,6.42,0,.21.01.41.04.61,0,.06.02.12.02.17.06,0,.12.02.18.03-.02-.2-.03-.4-.04-.61-.02-3.52,2.81-6.4,6.33-6.42.39,0,.77.04,1.15.1-.01-.06-.03-.12-.05-.17-.05-.01-.1-.02-.16-.02Z"/><path class="cls-2" d="m95.33,55.25c-.01-1.64.36-3.19,1-4.58-.09-.01-.19-.03-.28-.03-.2-.02-.41-.03-.61-.03-3.66.03-6.61,3.01-6.58,6.68,0,.47.06.94.16,1.38.01.06.03.12.05.17,1.55.27,2.91,1.1,3.86,2.27l4.19-.03c-1.11-1.67-1.76-3.67-1.78-5.83Z"/><path class="cls-2" d="m116.36,52.11c-.02-.06-.03-.13-.05-.19-.55-1.73-1.53-3.26-2.81-4.49-1.95-1.87-4.6-3.02-7.51-3-4.29.03-7.97,2.58-9.66,6.23-.65,1.39-1.01,2.94-1,4.58.02,2.16.67,4.15,1.78,5.83l5.4-.04c.7-.2,1.44-.27,2.21-.17.1.01.19.03.29.05.8-4.25,4.52-7.48,9-7.51.94,0,1.86.13,2.72.39,0-.05-.02-.09-.02-.14-.08-.53-.18-1.05-.33-1.55Z"/><path class="cls-2" d="m120.57,56.08s-.08-.07-.12-.11c-1.04-1-2.31-1.75-3.72-2.18-.86-.26-1.77-.39-2.72-.39-4.49.03-8.2,3.26-9,7.51.16.03.31.06.47.1l16.81-.12.3.64c.2-.08.4-.16.61-.23-.01-.08-.03-.16-.04-.24-.33-1.93-1.26-3.66-2.59-4.98Z"/><path class="cls-2" d="m134.33,66.65c-.04-.09-.07-.19-.1-.28-.48-1.14-1.19-2.16-2.08-3-1.63-1.55-3.83-2.51-6.26-2.49-.94,0-1.85.16-2.7.43-.21.07-.41.15-.61.23l4.54,9.64,7.72-.05c.06-.44.1-.88.1-1.33,0-1.11-.23-2.16-.6-3.14Z"/><path class="cls-2" d="m81.44,65.74c-.38-.06-.77-.1-1.18-.09s-.81.05-1.21.11c1.03.31,1.98.76,2.84,1.34-.14-.43-.24-.87-.28-1.33-.06-.01-.12-.02-.18-.03Z"/><path class="cls-2" d="m90.89,61.12h2.02c-.95-1.19-2.31-2.02-3.86-2.29-.37-.06-.75-.1-1.15-.1-3.52.02-6.36,2.9-6.33,6.42,0,.21.01.41.04.61.05.46.14.91.28,1.33.03.02.06.04.09.06,1.33-1.46,3.32-2.28,5.43-2.02.54.07,1.05.2,1.53.39l1.94-4.41Z"/><path class="cls-2" d="m102.51,61.04l-5.4.04-4.19.03h-2.02s-1.94,4.42-1.94,4.42c.52.21,1.01.47,1.46.8,2.26-2.09,5.38-3.21,8.66-2.8.06,0,.12.02.18.03.72-1.22,1.89-2.13,3.25-2.52Z"/><path class="cls-2" d="m122.58,61.54l-.3-.64-16.81.12c2.28.61,3.93,2.59,4.11,4.92.21,0,.42.02.63.05,3.01.37,5.37,2.52,6.16,5.26l10.75-.08-4.54-9.64Z"/><path class="cls-1" d="m16.75,64.18c-.82-.42-1.74-.66-2.72-.65-2.68.02-4.93,1.84-5.61,4.3,1.09,1.06,1.77,2.53,1.78,4.16,0,0,0,0,0,0l5.2-.04c-.27-.81-.42-1.67-.43-2.57-.01-1.96.65-3.77,1.78-5.21Z"/><path class="cls-1" d="m33.45,67.8c-.65,0-1.27.12-1.86.32.06.38.09.76.1,1.16,0,.9-.13,1.76-.39,2.58l7.75-.05c-.78-2.34-3-4.02-5.6-4Z"/><path class="cls-1" d="m38.26,68.74c-.5,0-.98.09-1.43.24.04.29.07.59.07.89,0,.69-.1,1.35-.3,1.98l5.95-.04c-.6-1.8-2.3-3.08-4.3-3.07Z"/><path class="cls-1" d="m8.42,67.83c-1.07-1.04-2.52-1.67-4.13-1.66-.79,0-1.54.17-2.23.46-.78.33-1.46.82-2.03,1.42l.03,4.01,10.13-.07s0,0,0,0c-.01-1.63-.69-3.11-1.78-4.16Z"/><path class="cls-1" d="m31.6,68.12c-.59-4.07-4.1-7.18-8.32-7.15-2.65.02-5.01,1.28-6.53,3.22-1.12,1.43-1.79,3.24-1.78,5.21,0,.9.16,1.76.43,2.57l15.91-.11c.26-.81.4-1.68.39-2.58,0-.39-.04-.78-.1-1.16Z"/><path class="cls-1" d="m54.37,67.3c.6-.32,1.29-.51,2.01-.51,1.99-.01,3.67,1.31,4.21,3.13-.8.79-1.29,1.89-1.28,3.11,0,0,0,0,0,0l-3.86.03c.19-.6.29-1.25.29-1.91-.01-1.46-.53-2.79-1.37-3.84Z"/><path class="cls-1" d="m42.01,70.16c.48,0,.95.08,1.38.22-.04.28-.06.57-.06.86,0,.67.12,1.31.32,1.91l-5.75.04c.56-1.74,2.18-3.01,4.11-3.03Z"/><path class="cls-1" d="m60.59,69.92c.78-.78,1.85-1.27,3.04-1.27.59,0,1.15.11,1.66.32.58.23,1.09.59,1.52,1.04l.02,2.98-7.52.05s0,0,0,0c0-1.21.48-2.31,1.28-3.11Z"/><path class="cls-1" d="m43.39,70.37c.4-3.02,2.97-5.37,6.1-5.39,1.97-.01,3.73.89,4.88,2.32.85,1.05,1.36,2.39,1.37,3.84,0,.67-.1,1.31-.29,1.91l-11.81.08c-.2-.6-.31-1.24-.32-1.91,0-.29.02-.58.06-.86Z"/><path class="cls-1" d="m162.29,66.54c.6-.32,1.29-.51,2.01-.51,1.99-.01,3.67,1.31,4.21,3.13-.8.79-1.29,1.89-1.28,3.11,0,0,0,0,0,0l-3.86.03c.19-.6.29-1.25.29-1.91-.01-1.46-.53-2.79-1.37-3.84Z"/><path class="cls-1" d="m149.93,69.39c.48,0,.95.08,1.38.22-.04.28-.06.57-.06.86,0,.67.12,1.31.32,1.91l-5.75.04c.56-1.74,2.18-3.01,4.11-3.03Z"/><path class="cls-1" d="m168.51,69.16c.78-.78,1.85-1.27,3.04-1.27.59,0,1.15.11,1.66.32.58.23,1.09.59,1.52,1.04l.02,2.98-7.52.05s0,0,0,0c0-1.21.48-2.31,1.28-3.11Z"/><path class="cls-1" d="m151.31,69.61c.4-3.02,2.97-5.37,6.1-5.39,1.97-.01,3.73.89,4.88,2.32.85,1.05,1.36,2.39,1.37,3.84,0,.67-.1,1.31-.29,1.91l-11.81.08c-.2-.6-.31-1.24-.32-1.91,0-.29.02-.58.06-.86Z"/><path class="cls-1" d="m191.11,67.09c.96-1.34,2.46-2.26,4.19-2.43-.37-2.91-2.85-5.14-5.85-5.12-2.64.02-4.86,1.78-5.58,4.18,2.88.08,5.45,1.36,7.24,3.37Z"/><path class="cls-1" d="m195.84,64.63c-.18,0-.36.01-.53.03-1.73.17-3.24,1.09-4.19,2.43.92,1.04,1.64,2.26,2.07,3.62l6.87-.05-.03-4.31c-1.07-1.07-2.55-1.74-4.19-1.73Z"/><path class="cls-1" d="m177.17,66.02c-.74-.33-1.56-.52-2.42-.51-3.06.02-5.55,2.38-5.8,5.36l5.02-.04c.58-1.91,1.71-3.57,3.2-4.82Z"/><path class="cls-1" d="m191.11,67.09c-1.79-2.01-4.36-3.29-7.24-3.37-.12,0-.23-.02-.35-.02-2.42.02-4.63.89-6.36,2.32-1.5,1.24-2.63,2.91-3.2,4.82l19.22-.14c-.43-1.36-1.15-2.58-2.07-3.62Z"/><path class="cls-1" d="m104.71,60.87c-.76-.09-1.51-.03-2.21.17-1.36.39-2.53,1.3-3.25,2.52,2.56.36,4.79,1.58,6.43,3.35,1.15-.66,2.49-1.02,3.89-.96-.18-2.33-1.83-4.32-4.11-4.92-.15-.04-.31-.07-.47-.1-.1-.02-.19-.04-.29-.05Z"/><path class="cls-1" d="m110.21,65.99c-.21-.03-.42-.04-.63-.05-1.4-.05-2.74.3-3.89.96,1.15,1.24,2.01,2.75,2.49,4.4l8.2-.06c-.79-2.75-3.14-4.89-6.16-5.26Z"/><path class="cls-1" d="m90.41,66.33c-.44-.33-.93-.6-1.46-.8-.48-.19-.99-.33-1.53-.39-2.11-.26-4.1.56-5.43,2.02,1.6,1.08,2.87,2.57,3.7,4.31h1.63c.54-2.03,1.63-3.78,3.09-5.13Z"/><path class="cls-1" d="m105.68,66.91c-1.64-1.76-3.87-2.99-6.43-3.35-.06,0-.12-.02-.18-.03-3.29-.4-6.41.72-8.66,2.8-1.46,1.35-2.55,3.11-3.09,5.12l20.85-.15c-.47-1.65-1.33-3.16-2.49-4.4Z"/><path class="cls-1" d="m81.99,67.16s-.06-.04-.09-.06c-.86-.57-1.82-1.03-2.84-1.34-.17-.05-.34-.1-.52-.15-.42-.11-.86-.19-1.3-.25-1.58-.19-3.11-.03-4.53.42-2.91.91-5.34,3.02-6.62,5.82l19.61-.14c-.83-1.73-2.1-3.22-3.7-4.31Z"/><path class="cls-1" d="m127.3,66.07c.44-.33.92-.61,1.44-.82.48-.19.99-.34,1.52-.41,2.11-.29,4.11.5,5.46,1.95-1.58,1.11-2.83,2.61-3.63,4.36h-1.63c-.57-1.99-1.68-3.74-3.16-5.07Z"/><path class="cls-1" d="m112.03,66.86c1.61-1.79,3.82-3.05,6.38-3.44.06,0,.12-.03.18-.03,3.28-.45,6.42.63,8.7,2.68,1.48,1.33,2.59,3.07,3.16,5.08l-20.85.15c.45-1.66,1.29-3.18,2.42-4.43Z"/><path class="cls-1" d="m135.73,66.78s.06-.04.09-.06c.86-.59,1.8-1.05,2.82-1.38.17-.05.34-.11.52-.15.42-.11.85-.21,1.3-.27,1.57-.22,3.11-.07,4.54.35,2.92.87,5.38,2.94,6.7,5.73l-19.61.14c.8-1.74,2.05-3.25,3.63-4.36Z"/><rect class="cls-1" x="-.06" y="70.16" width="199.98" height="4.84"/></svg>