<?xml version="1.0" encoding="UTF-8"?><svg id="Layer_2" xmlns="http://www.w3.org/2000/svg" width="1921" height="1112.01" viewBox="0 0 1921 1112.01"><defs><style>.cls-1{fill:#485ae0;}.cls-2{fill:#3745ad;}.cls-3{fill:#8e98e6;}.cls-4{fill:#1f2761;}</style></defs><g id="Layer_1-2"><path class="cls-3" d="m1920,300.16s-38.88-57.15-66.79-64.15-71.78-65-71.78-65c0,0-61.81-53-81.74-78-19.94-25-24.92-43-60.81-39-35.89,4-82.74-45-133.58-53s-50.84,34-70.78,35-34.89,12-78.75,30c-43.86,18-83.74,66-83.74,66,0,0-29.91,37-104.67,56-74.77,19-120.62,0-191.4,36-70.78,36-144.55,95-180.44,88-35.89-7-173.46-4-207.35,16-33.89,20-133.58,66-133.58,66,0,0-119.63,4-180.44-27-60.81-31-98.69-59-128.6-65,0,0-90.37-52.57-124.61-38-.89.38-20.93,9-20.93,9h0v644h1920V300.16Z"/><path class="cls-1" d="m1695,590.01c-105.12,36.63-260.05,72.02-431.18,33-97.31-22.19-80.31-109.77-323.77-148-165.57-26-334.81-189-546.37-144-211.56,45-217.99,133-290.66,134-72.66,1-103.02,18-103.02,18v487h1920c.33-133.33.67-266.67,1-400-18.12-5.47-39.63-10.13-64-12-72.23-5.53-130.1,16.54-162,32Z"/><path class="cls-2" d="m0,649.59l72.42-38.22s136.86-88.45,284.7-28.82c147.85,59.63,357.63,111.31,489.49,77.52,131.86-33.79,361.66-149.64,557.94-98.17,196.27,51.46,223.4,105.7,351.19,108.89,127.79,3.2,162.25-40.44,162.25-40.44v318.44H0v-299.19Z"/><path class="cls-4" d="m1637.6,695.99c-200.66,2.5-260.57,80.13-642.87,35.89S0,853.75,0,853.75v258.27h1920v-93h1v-283.79s-82.74-41.73-283.4-39.23Z"/></g></svg>