<?xml version="1.0" encoding="UTF-8"?><svg id="Layer_2" xmlns="http://www.w3.org/2000/svg" width="1944" height="1110" xmlns:xlink="http://www.w3.org/1999/xlink" viewBox="0 0 1944 1110"><defs><style>.cls-1{fill:#485ae0;filter:url(#drop-shadow-2);}.cls-2{fill:#1f2761;filter:url(#drop-shadow-4);}.cls-3{fill:#8e98e6;filter:url(#drop-shadow-1);}.cls-4{fill:#3745ad;filter:url(#drop-shadow-3);}</style><filter id="drop-shadow-1" filterUnits="userSpaceOnUse"><feOffset dx="7" dy="-7"/><feGaussianBlur result="blur" stdDeviation="4"/><feFlood flood-color="#000" flood-opacity=".5"/><feComposite in2="blur" operator="in"/><feComposite in="SourceGraphic"/></filter><filter id="drop-shadow-2" filterUnits="userSpaceOnUse"><feOffset dx="7" dy="-7"/><feGaussianBlur result="blur-2" stdDeviation="4"/><feFlood flood-color="#000" flood-opacity=".5"/><feComposite in2="blur-2" operator="in"/><feComposite in="SourceGraphic"/></filter><filter id="drop-shadow-3" filterUnits="userSpaceOnUse"><feOffset dx="7" dy="-7"/><feGaussianBlur result="blur-3" stdDeviation="4"/><feFlood flood-color="#000" flood-opacity=".5"/><feComposite in2="blur-3" operator="in"/><feComposite in="SourceGraphic"/></filter><filter id="drop-shadow-4" filterUnits="userSpaceOnUse"><feOffset dx="7" dy="-7"/><feGaussianBlur result="blur-4" stdDeviation="2"/><feFlood flood-color="#000" flood-opacity=".5"/><feComposite in2="blur-4" operator="in"/><feComposite in="SourceGraphic"/></filter></defs><g id="Layer_1-2"><path class="cls-3" d="m1925,320.15s-38.88-57.15-66.79-64.15-71.78-65-71.78-65c0,0-61.81-53-81.74-78-19.94-25-24.92-43-60.81-39-35.89,4-82.74-45-133.58-53s-50.84,34-70.78,35-34.89,12-78.75,30c-43.86,18-83.74,66-83.74,66,0,0-29.91,37-104.67,56-74.77,19-120.62,0-191.4,36-70.78,36-144.55,95-180.44,88-35.89-7-173.46-4-207.35,16-33.89,20-133.58,66-133.58,66,0,0-119.63,4-180.44-27-60.81-31-98.69-59-128.6-65,0,0-90.37-52.57-124.61-38-.89.38-20.93,9-20.93,9h0v644h1920V320.15Z"/><path class="cls-1" d="m1857.86,544.65s-457.51,134.35-589.04,98.35c-131.53-36-158.21-122-323.77-148s-334.81-189-546.37-144c-211.56,45-217.99,133-290.66,134s-103.02,18-103.02,18v487h1920v-445.35h-67.14Z"/><path class="cls-4" d="m5,669.57l72.42-38.22s136.86-88.45,284.7-28.82c147.85,59.63,357.63,111.31,489.49,77.52,131.86-33.79,361.66-149.64,557.94-98.17,196.27,51.46,223.4,105.7,351.19,108.89,127.79,3.2,162.25-40.44,162.25-40.44v318.44H5v-299.19Z"/><path class="cls-2" d="m5,912s612.12-199,994.22-146c382.1,53,441.98-40,642.53-43s283.25,47,283.25,47v340H5v-198Z"/></g></svg>