<?xml version="1.0" encoding="UTF-8"?><svg id="Layer_2" xmlns="http://www.w3.org/2000/svg" width="921" height="686" xmlns:xlink="http://www.w3.org/1999/xlink" viewBox="0 0 921 686"><defs><style>.cls-1{fill:#e6eaff;filter:url(#drop-shadow-1);}</style><filter id="drop-shadow-1" filterUnits="userSpaceOnUse"><feOffset dx="7" dy="-7"/><feGaussianBlur result="blur" stdDeviation="4"/><feFlood flood-color="#000" flood-opacity=".5"/><feComposite in2="blur" operator="in"/><feComposite in="SourceGraphic"/></filter></defs><g id="Layer_1-2"><path class="cls-1" d="m79.22,530.61c1.45,9.77,4.82,19.43,10.27,28.41,21.89,36.1,68.91,47.62,105.01,25.72,2.5-1.52,4.88-3.16,7.15-4.91,9.73,2.2,19.72,3.29,29.76,3.23,3.15,11.72,7.98,23.2,14.58,34.09,37.6,62,118.35,81.78,180.35,44.18,46.58-28.25,69.32-80.84,61.82-131.55,9.16-1.58,18.19-4.87,26.62-9.98,12.72-7.72,22.39-18.56,28.62-30.94,1.27,3.61,2.92,7.15,4.99,10.56,16.08,26.51,50.61,34.97,77.13,18.89.74-.45,1.47-.92,2.18-1.4.01.02.02.04.03.06,16.08,26.51,50.61,34.97,77.13,18.89,24.22-14.69,33.36-44.76,22.51-70.07,13.21,2.56,27.38.41,39.79-7.12,26.51-16.08,34.97-50.61,18.89-77.13,24.12-14.63,33.29-44.53,22.64-69.77,9.99-3.11,19.76-7.47,29.11-13.14,62-37.6,81.78-118.35,44.18-180.35-29.77-49.09-86.58-71.7-139.73-60.33-.47-.85-.95-1.71-1.46-2.55-21.28-35.08-66.96-46.27-102.04-24.99-19.63,11.91-31.77,31.46-34.94,52.52-22.69-33.51-67.93-43.67-102.91-22.45-9.93,6.02-17.99,13.95-24.02,23.02-34.68-10.79-73.64-7.23-107.14,13.09-45.46,27.57-68.22,78.33-62.31,127.89-14.28,9.63-26.09,21.64-35.24,35.18-21.45-9.48-47.04-8.7-68.61,4.39-25.64,15.55-38.5,44.14-35.26,72.1-1.97,1.06-3.92,2.18-5.86,3.35-21.15,12.83-37.38,30.68-48.1,51.09-22.3-11.71-50.01-11.79-73.12,2.23-35.08,21.28-46.27,66.96-24.99,102.04,13.86,22.86,38.09,35.56,63,35.76Zm630.12-227.61c.11.06.23.12.35.17-.05.08-.1.16-.15.24-.07-.14-.13-.28-.2-.41Z"/></g></svg>