<?xml version="1.0" encoding="UTF-8"?><svg id="Layer_2" xmlns="http://www.w3.org/2000/svg" width="1957" height="942" xmlns:xlink="http://www.w3.org/1999/xlink" viewBox="0 0 1957 942"><defs><style>.cls-1{fill:#8e98e6;filter:url(#drop-shadow-1);}</style><filter id="drop-shadow-1" filterUnits="userSpaceOnUse"><feOffset dx="7" dy="-7"/><feGaussianBlur result="blur" stdDeviation="4"/><feFlood flood-color="#000" flood-opacity=".5"/><feComposite in2="blur" operator="in"/><feComposite in="SourceGraphic"/></filter></defs><g id="Layer_1-2"><path class="cls-1" d="m1938,320.15s-39-57.15-67-64.15-72-65-72-65c0,0-62-53-82-78s-25-43-61-39-83-45-134-53-51,34-71,35-35,12-79,30-84,66-84,66c0,0-30,37-105,56s-121,0-192,36-145,95-181,88-174-4-208,16-134,66-134,66c0,0-120,4-181-27-61-31-99-59-129-65s-79-44-125-38-21,9-21,9v644h1926V320.15Z"/></g></svg>