<?xml version="1.0" encoding="UTF-8"?><svg id="Layer_2" xmlns="http://www.w3.org/2000/svg" width="1920" height="917.01" viewBox="0 0 1920 917.01"><defs><style>.cls-1{fill:#8e98e6;}</style></defs><g id="Layer_1-2"><path class="cls-1" d="m1920,300.16s-38.88-57.15-66.79-64.15-71.78-65-71.78-65c0,0-61.81-53-81.74-78-19.94-25-24.92-43-60.81-39-35.89,4-82.74-45-133.58-53s-50.84,34-70.78,35-34.89,12-78.75,30c-43.86,18-83.74,66-83.74,66,0,0-29.91,37-104.67,56-74.77,19-120.62,0-191.4,36-70.78,36-144.55,95-180.44,88-35.89-7-173.46-4-207.35,16-33.89,20-133.58,66-133.58,66,0,0-119.63,4-180.44-27-60.81-31-98.69-59-128.6-65,0,0-90.37-52.57-124.61-38-.89.38-20.93,9-20.93,9h0v644h1920V300.16Z"/></g></svg>